%TF.GenerationSoftware,KiCad,Pcbnew,8.0.2*%
%TF.CreationDate,2024-05-30T02:19:43-04:00*%
%TF.ProjectId,Line-following-learn-to-solder-kit,4c696e65-2d66-46f6-9c6c-6f77696e672d,0*%
%TF.SameCoordinates,Original*%
%TF.FileFunction,Legend,Bot*%
%TF.FilePolarity,Positive*%
%FSLAX46Y46*%
G04 Gerber Fmt 4.6, Leading zero omitted, Abs format (unit mm)*
G04 Created by KiCad (PCBNEW 8.0.2) date 2024-05-30 02:19:43*
%MOMM*%
%LPD*%
G01*
G04 APERTURE LIST*
G04 Aperture macros list*
%AMRoundRect*
0 Rectangle with rounded corners*
0 $1 Rounding radius*
0 $2 $3 $4 $5 $6 $7 $8 $9 X,Y pos of 4 corners*
0 Add a 4 corners polygon primitive as box body*
4,1,4,$2,$3,$4,$5,$6,$7,$8,$9,$2,$3,0*
0 Add four circle primitives for the rounded corners*
1,1,$1+$1,$2,$3*
1,1,$1+$1,$4,$5*
1,1,$1+$1,$6,$7*
1,1,$1+$1,$8,$9*
0 Add four rect primitives between the rounded corners*
20,1,$1+$1,$2,$3,$4,$5,0*
20,1,$1+$1,$4,$5,$6,$7,0*
20,1,$1+$1,$6,$7,$8,$9,0*
20,1,$1+$1,$8,$9,$2,$3,0*%
%AMRotRect*
0 Rectangle, with rotation*
0 The origin of the aperture is its center*
0 $1 length*
0 $2 width*
0 $3 Rotation angle, in degrees counterclockwise*
0 Add horizontal line*
21,1,$1,$2,0,0,$3*%
G04 Aperture macros list end*
%ADD10C,0.100000*%
%ADD11C,0.150000*%
%ADD12C,0.120000*%
%ADD13O,3.000000X2.500000*%
%ADD14C,10.000000*%
%ADD15C,5.400000*%
%ADD16C,3.000000*%
%ADD17C,2.000000*%
%ADD18RotRect,2.000000X2.000000X45.000000*%
%ADD19O,3.300000X6.000000*%
%ADD20C,3.300000*%
%ADD21O,1.800000X2.200000*%
%ADD22R,2.400000X1.600000*%
%ADD23O,2.400000X1.600000*%
%ADD24C,2.200000*%
%ADD25R,2.200000X1.800000*%
%ADD26RoundRect,0.450000X-0.550000X0.450000X-0.550000X-0.450000X0.550000X-0.450000X0.550000X0.450000X0*%
%ADD27RoundRect,0.450000X-0.650000X0.450000X-0.650000X-0.450000X0.650000X-0.450000X0.650000X0.450000X0*%
%ADD28R,1.800000X1.800000*%
%ADD29C,1.800000*%
%ADD30RoundRect,0.225000X-0.675000X-0.775000X0.675000X-0.775000X0.675000X0.775000X-0.675000X0.775000X0*%
%ADD31O,1.800000X2.000000*%
%ADD32R,2.200000X2.500000*%
%ADD33O,2.500000X2.200000*%
%ADD34O,2.200000X2.500000*%
%ADD35R,1.600000X1.600000*%
%ADD36C,1.600000*%
G04 APERTURE END LIST*
D10*
X101780000Y-69530000D02*
X99980000Y-69530000D01*
X101755000Y-68980000D02*
X101780000Y-69530000D01*
X100255000Y-68980000D02*
X101755000Y-68980000D01*
X100255000Y-68380000D02*
X100255000Y-68980000D01*
X101405000Y-68380000D02*
X100255000Y-68380000D01*
X101405000Y-67730000D02*
X101405000Y-68380000D01*
X100380000Y-67730000D02*
X101405000Y-67730000D01*
X100380000Y-67155000D02*
X100380000Y-67730000D01*
X101480000Y-67155000D02*
X100380000Y-67155000D01*
X101455000Y-66530000D02*
X101480000Y-67155000D01*
X99955000Y-66555000D02*
X101455000Y-66530000D01*
X99930000Y-65955000D02*
X99955000Y-66555000D01*
X101780000Y-65905000D02*
X99930000Y-65955000D01*
X81705000Y-69530000D02*
X79955000Y-69530000D01*
X81755000Y-68930000D02*
X81705000Y-69530000D01*
X80205000Y-68955000D02*
X81755000Y-68930000D01*
X80205000Y-68305000D02*
X80205000Y-68955000D01*
X81330000Y-68330000D02*
X80205000Y-68305000D01*
X81355000Y-67630000D02*
X81330000Y-68330000D01*
X80280000Y-67630000D02*
X81355000Y-67630000D01*
X80255000Y-67055000D02*
X80280000Y-67630000D01*
X81505000Y-67055000D02*
X80255000Y-67055000D01*
X81555000Y-66480000D02*
X81505000Y-67055000D01*
X79905000Y-66480000D02*
X81555000Y-66480000D01*
X79930000Y-65930000D02*
X79905000Y-66480000D01*
X81730000Y-65905000D02*
X79930000Y-65930000D01*
X102830000Y-59780000D02*
X102205000Y-59780000D01*
X82812287Y-59735210D02*
X82062287Y-59735210D01*
X83062287Y-61735210D02*
X82062287Y-61735210D01*
X82562287Y-61235210D02*
X82562287Y-62235210D01*
X102505000Y-61355000D02*
X102505000Y-62355000D01*
X103005000Y-61855000D02*
X102005000Y-61855000D01*
D11*
X111899523Y-93934819D02*
X111899523Y-92934819D01*
X111899523Y-92934819D02*
X111566190Y-93649104D01*
X111566190Y-93649104D02*
X111232857Y-92934819D01*
X111232857Y-92934819D02*
X111232857Y-93934819D01*
X110804285Y-93030057D02*
X110756666Y-92982438D01*
X110756666Y-92982438D02*
X110661428Y-92934819D01*
X110661428Y-92934819D02*
X110423333Y-92934819D01*
X110423333Y-92934819D02*
X110328095Y-92982438D01*
X110328095Y-92982438D02*
X110280476Y-93030057D01*
X110280476Y-93030057D02*
X110232857Y-93125295D01*
X110232857Y-93125295D02*
X110232857Y-93220533D01*
X110232857Y-93220533D02*
X110280476Y-93363390D01*
X110280476Y-93363390D02*
X110851904Y-93934819D01*
X110851904Y-93934819D02*
X110232857Y-93934819D01*
D10*
X114833734Y-77566704D02*
X114357544Y-77566704D01*
X114928972Y-77852419D02*
X114595639Y-76852419D01*
X114595639Y-76852419D02*
X114262306Y-77852419D01*
X113702782Y-82578609D02*
X113559925Y-82626228D01*
X113559925Y-82626228D02*
X113512306Y-82673847D01*
X113512306Y-82673847D02*
X113464687Y-82769085D01*
X113464687Y-82769085D02*
X113464687Y-82911942D01*
X113464687Y-82911942D02*
X113512306Y-83007180D01*
X113512306Y-83007180D02*
X113559925Y-83054800D01*
X113559925Y-83054800D02*
X113655163Y-83102419D01*
X113655163Y-83102419D02*
X114036115Y-83102419D01*
X114036115Y-83102419D02*
X114036115Y-82102419D01*
X114036115Y-82102419D02*
X113702782Y-82102419D01*
X113702782Y-82102419D02*
X113607544Y-82150038D01*
X113607544Y-82150038D02*
X113559925Y-82197657D01*
X113559925Y-82197657D02*
X113512306Y-82292895D01*
X113512306Y-82292895D02*
X113512306Y-82388133D01*
X113512306Y-82388133D02*
X113559925Y-82483371D01*
X113559925Y-82483371D02*
X113607544Y-82530990D01*
X113607544Y-82530990D02*
X113702782Y-82578609D01*
X113702782Y-82578609D02*
X114036115Y-82578609D01*
X118928972Y-122185752D02*
X118548020Y-122185752D01*
X118786115Y-122852419D02*
X118786115Y-121995276D01*
X118786115Y-121995276D02*
X118738496Y-121900038D01*
X118738496Y-121900038D02*
X118643258Y-121852419D01*
X118643258Y-121852419D02*
X118548020Y-121852419D01*
X118071829Y-122852419D02*
X118167067Y-122804800D01*
X118167067Y-122804800D02*
X118214686Y-122757180D01*
X118214686Y-122757180D02*
X118262305Y-122661942D01*
X118262305Y-122661942D02*
X118262305Y-122376228D01*
X118262305Y-122376228D02*
X118214686Y-122280990D01*
X118214686Y-122280990D02*
X118167067Y-122233371D01*
X118167067Y-122233371D02*
X118071829Y-122185752D01*
X118071829Y-122185752D02*
X117928972Y-122185752D01*
X117928972Y-122185752D02*
X117833734Y-122233371D01*
X117833734Y-122233371D02*
X117786115Y-122280990D01*
X117786115Y-122280990D02*
X117738496Y-122376228D01*
X117738496Y-122376228D02*
X117738496Y-122661942D01*
X117738496Y-122661942D02*
X117786115Y-122757180D01*
X117786115Y-122757180D02*
X117833734Y-122804800D01*
X117833734Y-122804800D02*
X117928972Y-122852419D01*
X117928972Y-122852419D02*
X118071829Y-122852419D01*
X117309924Y-122852419D02*
X117309924Y-122185752D01*
X117309924Y-122376228D02*
X117262305Y-122280990D01*
X117262305Y-122280990D02*
X117214686Y-122233371D01*
X117214686Y-122233371D02*
X117119448Y-122185752D01*
X117119448Y-122185752D02*
X117024210Y-122185752D01*
X115928971Y-122852419D02*
X115928971Y-122185752D01*
X115928971Y-122280990D02*
X115881352Y-122233371D01*
X115881352Y-122233371D02*
X115786114Y-122185752D01*
X115786114Y-122185752D02*
X115643257Y-122185752D01*
X115643257Y-122185752D02*
X115548019Y-122233371D01*
X115548019Y-122233371D02*
X115500400Y-122328609D01*
X115500400Y-122328609D02*
X115500400Y-122852419D01*
X115500400Y-122328609D02*
X115452781Y-122233371D01*
X115452781Y-122233371D02*
X115357543Y-122185752D01*
X115357543Y-122185752D02*
X115214686Y-122185752D01*
X115214686Y-122185752D02*
X115119447Y-122233371D01*
X115119447Y-122233371D02*
X115071828Y-122328609D01*
X115071828Y-122328609D02*
X115071828Y-122852419D01*
X114452781Y-122852419D02*
X114548019Y-122804800D01*
X114548019Y-122804800D02*
X114595638Y-122757180D01*
X114595638Y-122757180D02*
X114643257Y-122661942D01*
X114643257Y-122661942D02*
X114643257Y-122376228D01*
X114643257Y-122376228D02*
X114595638Y-122280990D01*
X114595638Y-122280990D02*
X114548019Y-122233371D01*
X114548019Y-122233371D02*
X114452781Y-122185752D01*
X114452781Y-122185752D02*
X114309924Y-122185752D01*
X114309924Y-122185752D02*
X114214686Y-122233371D01*
X114214686Y-122233371D02*
X114167067Y-122280990D01*
X114167067Y-122280990D02*
X114119448Y-122376228D01*
X114119448Y-122376228D02*
X114119448Y-122661942D01*
X114119448Y-122661942D02*
X114167067Y-122757180D01*
X114167067Y-122757180D02*
X114214686Y-122804800D01*
X114214686Y-122804800D02*
X114309924Y-122852419D01*
X114309924Y-122852419D02*
X114452781Y-122852419D01*
X113833733Y-122185752D02*
X113452781Y-122185752D01*
X113690876Y-121852419D02*
X113690876Y-122709561D01*
X113690876Y-122709561D02*
X113643257Y-122804800D01*
X113643257Y-122804800D02*
X113548019Y-122852419D01*
X113548019Y-122852419D02*
X113452781Y-122852419D01*
X112976590Y-122852419D02*
X113071828Y-122804800D01*
X113071828Y-122804800D02*
X113119447Y-122757180D01*
X113119447Y-122757180D02*
X113167066Y-122661942D01*
X113167066Y-122661942D02*
X113167066Y-122376228D01*
X113167066Y-122376228D02*
X113119447Y-122280990D01*
X113119447Y-122280990D02*
X113071828Y-122233371D01*
X113071828Y-122233371D02*
X112976590Y-122185752D01*
X112976590Y-122185752D02*
X112833733Y-122185752D01*
X112833733Y-122185752D02*
X112738495Y-122233371D01*
X112738495Y-122233371D02*
X112690876Y-122280990D01*
X112690876Y-122280990D02*
X112643257Y-122376228D01*
X112643257Y-122376228D02*
X112643257Y-122661942D01*
X112643257Y-122661942D02*
X112690876Y-122757180D01*
X112690876Y-122757180D02*
X112738495Y-122804800D01*
X112738495Y-122804800D02*
X112833733Y-122852419D01*
X112833733Y-122852419D02*
X112976590Y-122852419D01*
X112214685Y-122852419D02*
X112214685Y-122185752D01*
X112214685Y-122376228D02*
X112167066Y-122280990D01*
X112167066Y-122280990D02*
X112119447Y-122233371D01*
X112119447Y-122233371D02*
X112024209Y-122185752D01*
X112024209Y-122185752D02*
X111928971Y-122185752D01*
X110833732Y-122852419D02*
X110833732Y-121852419D01*
X110405161Y-122852419D02*
X110405161Y-122328609D01*
X110405161Y-122328609D02*
X110452780Y-122233371D01*
X110452780Y-122233371D02*
X110548018Y-122185752D01*
X110548018Y-122185752D02*
X110690875Y-122185752D01*
X110690875Y-122185752D02*
X110786113Y-122233371D01*
X110786113Y-122233371D02*
X110833732Y-122280990D01*
X109548018Y-122804800D02*
X109643256Y-122852419D01*
X109643256Y-122852419D02*
X109833732Y-122852419D01*
X109833732Y-122852419D02*
X109928970Y-122804800D01*
X109928970Y-122804800D02*
X109976589Y-122709561D01*
X109976589Y-122709561D02*
X109976589Y-122328609D01*
X109976589Y-122328609D02*
X109928970Y-122233371D01*
X109928970Y-122233371D02*
X109833732Y-122185752D01*
X109833732Y-122185752D02*
X109643256Y-122185752D01*
X109643256Y-122185752D02*
X109548018Y-122233371D01*
X109548018Y-122233371D02*
X109500399Y-122328609D01*
X109500399Y-122328609D02*
X109500399Y-122423847D01*
X109500399Y-122423847D02*
X109976589Y-122519085D01*
X109071827Y-122852419D02*
X109071827Y-122185752D01*
X109071827Y-122376228D02*
X109024208Y-122280990D01*
X109024208Y-122280990D02*
X108976589Y-122233371D01*
X108976589Y-122233371D02*
X108881351Y-122185752D01*
X108881351Y-122185752D02*
X108786113Y-122185752D01*
X108071827Y-122804800D02*
X108167065Y-122852419D01*
X108167065Y-122852419D02*
X108357541Y-122852419D01*
X108357541Y-122852419D02*
X108452779Y-122804800D01*
X108452779Y-122804800D02*
X108500398Y-122709561D01*
X108500398Y-122709561D02*
X108500398Y-122328609D01*
X108500398Y-122328609D02*
X108452779Y-122233371D01*
X108452779Y-122233371D02*
X108357541Y-122185752D01*
X108357541Y-122185752D02*
X108167065Y-122185752D01*
X108167065Y-122185752D02*
X108071827Y-122233371D01*
X108071827Y-122233371D02*
X108024208Y-122328609D01*
X108024208Y-122328609D02*
X108024208Y-122423847D01*
X108024208Y-122423847D02*
X108500398Y-122519085D01*
X118833734Y-121066704D02*
X118357544Y-121066704D01*
X118928972Y-121352419D02*
X118595639Y-120352419D01*
X118595639Y-120352419D02*
X118262306Y-121352419D01*
X117500401Y-121352419D02*
X117500401Y-120352419D01*
X117500401Y-121304800D02*
X117595639Y-121352419D01*
X117595639Y-121352419D02*
X117786115Y-121352419D01*
X117786115Y-121352419D02*
X117881353Y-121304800D01*
X117881353Y-121304800D02*
X117928972Y-121257180D01*
X117928972Y-121257180D02*
X117976591Y-121161942D01*
X117976591Y-121161942D02*
X117976591Y-120876228D01*
X117976591Y-120876228D02*
X117928972Y-120780990D01*
X117928972Y-120780990D02*
X117881353Y-120733371D01*
X117881353Y-120733371D02*
X117786115Y-120685752D01*
X117786115Y-120685752D02*
X117595639Y-120685752D01*
X117595639Y-120685752D02*
X117500401Y-120733371D01*
X116595639Y-121352419D02*
X116595639Y-120352419D01*
X116595639Y-121304800D02*
X116690877Y-121352419D01*
X116690877Y-121352419D02*
X116881353Y-121352419D01*
X116881353Y-121352419D02*
X116976591Y-121304800D01*
X116976591Y-121304800D02*
X117024210Y-121257180D01*
X117024210Y-121257180D02*
X117071829Y-121161942D01*
X117071829Y-121161942D02*
X117071829Y-120876228D01*
X117071829Y-120876228D02*
X117024210Y-120780990D01*
X117024210Y-120780990D02*
X116976591Y-120733371D01*
X116976591Y-120733371D02*
X116881353Y-120685752D01*
X116881353Y-120685752D02*
X116690877Y-120685752D01*
X116690877Y-120685752D02*
X116595639Y-120733371D01*
X115452781Y-120352419D02*
X114833734Y-120352419D01*
X114833734Y-120352419D02*
X115167067Y-120733371D01*
X115167067Y-120733371D02*
X115024210Y-120733371D01*
X115024210Y-120733371D02*
X114928972Y-120780990D01*
X114928972Y-120780990D02*
X114881353Y-120828609D01*
X114881353Y-120828609D02*
X114833734Y-120923847D01*
X114833734Y-120923847D02*
X114833734Y-121161942D01*
X114833734Y-121161942D02*
X114881353Y-121257180D01*
X114881353Y-121257180D02*
X114928972Y-121304800D01*
X114928972Y-121304800D02*
X115024210Y-121352419D01*
X115024210Y-121352419D02*
X115309924Y-121352419D01*
X115309924Y-121352419D02*
X115405162Y-121304800D01*
X115405162Y-121304800D02*
X115452781Y-121257180D01*
X114405162Y-121352419D02*
X114405162Y-120685752D01*
X114405162Y-120780990D02*
X114357543Y-120733371D01*
X114357543Y-120733371D02*
X114262305Y-120685752D01*
X114262305Y-120685752D02*
X114119448Y-120685752D01*
X114119448Y-120685752D02*
X114024210Y-120733371D01*
X114024210Y-120733371D02*
X113976591Y-120828609D01*
X113976591Y-120828609D02*
X113976591Y-121352419D01*
X113976591Y-120828609D02*
X113928972Y-120733371D01*
X113928972Y-120733371D02*
X113833734Y-120685752D01*
X113833734Y-120685752D02*
X113690877Y-120685752D01*
X113690877Y-120685752D02*
X113595638Y-120733371D01*
X113595638Y-120733371D02*
X113548019Y-120828609D01*
X113548019Y-120828609D02*
X113548019Y-121352419D01*
X112357543Y-121066704D02*
X111881353Y-121066704D01*
X112452781Y-121352419D02*
X112119448Y-120352419D01*
X112119448Y-120352419D02*
X111786115Y-121352419D01*
X111024210Y-121352419D02*
X111024210Y-120352419D01*
X111024210Y-121304800D02*
X111119448Y-121352419D01*
X111119448Y-121352419D02*
X111309924Y-121352419D01*
X111309924Y-121352419D02*
X111405162Y-121304800D01*
X111405162Y-121304800D02*
X111452781Y-121257180D01*
X111452781Y-121257180D02*
X111500400Y-121161942D01*
X111500400Y-121161942D02*
X111500400Y-120876228D01*
X111500400Y-120876228D02*
X111452781Y-120780990D01*
X111452781Y-120780990D02*
X111405162Y-120733371D01*
X111405162Y-120733371D02*
X111309924Y-120685752D01*
X111309924Y-120685752D02*
X111119448Y-120685752D01*
X111119448Y-120685752D02*
X111024210Y-120733371D01*
X110548019Y-121352419D02*
X110548019Y-120352419D01*
X110119448Y-121352419D02*
X110119448Y-120828609D01*
X110119448Y-120828609D02*
X110167067Y-120733371D01*
X110167067Y-120733371D02*
X110262305Y-120685752D01*
X110262305Y-120685752D02*
X110405162Y-120685752D01*
X110405162Y-120685752D02*
X110500400Y-120733371D01*
X110500400Y-120733371D02*
X110548019Y-120780990D01*
X109262305Y-121304800D02*
X109357543Y-121352419D01*
X109357543Y-121352419D02*
X109548019Y-121352419D01*
X109548019Y-121352419D02*
X109643257Y-121304800D01*
X109643257Y-121304800D02*
X109690876Y-121209561D01*
X109690876Y-121209561D02*
X109690876Y-120828609D01*
X109690876Y-120828609D02*
X109643257Y-120733371D01*
X109643257Y-120733371D02*
X109548019Y-120685752D01*
X109548019Y-120685752D02*
X109357543Y-120685752D01*
X109357543Y-120685752D02*
X109262305Y-120733371D01*
X109262305Y-120733371D02*
X109214686Y-120828609D01*
X109214686Y-120828609D02*
X109214686Y-120923847D01*
X109214686Y-120923847D02*
X109690876Y-121019085D01*
X108833733Y-121304800D02*
X108738495Y-121352419D01*
X108738495Y-121352419D02*
X108548019Y-121352419D01*
X108548019Y-121352419D02*
X108452781Y-121304800D01*
X108452781Y-121304800D02*
X108405162Y-121209561D01*
X108405162Y-121209561D02*
X108405162Y-121161942D01*
X108405162Y-121161942D02*
X108452781Y-121066704D01*
X108452781Y-121066704D02*
X108548019Y-121019085D01*
X108548019Y-121019085D02*
X108690876Y-121019085D01*
X108690876Y-121019085D02*
X108786114Y-120971466D01*
X108786114Y-120971466D02*
X108833733Y-120876228D01*
X108833733Y-120876228D02*
X108833733Y-120828609D01*
X108833733Y-120828609D02*
X108786114Y-120733371D01*
X108786114Y-120733371D02*
X108690876Y-120685752D01*
X108690876Y-120685752D02*
X108548019Y-120685752D01*
X108548019Y-120685752D02*
X108452781Y-120733371D01*
X107976590Y-121352419D02*
X107976590Y-120685752D01*
X107976590Y-120352419D02*
X108024209Y-120400038D01*
X108024209Y-120400038D02*
X107976590Y-120447657D01*
X107976590Y-120447657D02*
X107928971Y-120400038D01*
X107928971Y-120400038D02*
X107976590Y-120352419D01*
X107976590Y-120352419D02*
X107976590Y-120447657D01*
X107595638Y-120685752D02*
X107357543Y-121352419D01*
X107357543Y-121352419D02*
X107119448Y-120685752D01*
X106357543Y-121304800D02*
X106452781Y-121352419D01*
X106452781Y-121352419D02*
X106643257Y-121352419D01*
X106643257Y-121352419D02*
X106738495Y-121304800D01*
X106738495Y-121304800D02*
X106786114Y-121209561D01*
X106786114Y-121209561D02*
X106786114Y-120828609D01*
X106786114Y-120828609D02*
X106738495Y-120733371D01*
X106738495Y-120733371D02*
X106643257Y-120685752D01*
X106643257Y-120685752D02*
X106452781Y-120685752D01*
X106452781Y-120685752D02*
X106357543Y-120733371D01*
X106357543Y-120733371D02*
X106309924Y-120828609D01*
X106309924Y-120828609D02*
X106309924Y-120923847D01*
X106309924Y-120923847D02*
X106786114Y-121019085D01*
X105119447Y-120685752D02*
X105119447Y-121685752D01*
X105119447Y-120733371D02*
X105024209Y-120685752D01*
X105024209Y-120685752D02*
X104833733Y-120685752D01*
X104833733Y-120685752D02*
X104738495Y-120733371D01*
X104738495Y-120733371D02*
X104690876Y-120780990D01*
X104690876Y-120780990D02*
X104643257Y-120876228D01*
X104643257Y-120876228D02*
X104643257Y-121161942D01*
X104643257Y-121161942D02*
X104690876Y-121257180D01*
X104690876Y-121257180D02*
X104738495Y-121304800D01*
X104738495Y-121304800D02*
X104833733Y-121352419D01*
X104833733Y-121352419D02*
X105024209Y-121352419D01*
X105024209Y-121352419D02*
X105119447Y-121304800D01*
X103786114Y-121352419D02*
X103786114Y-120828609D01*
X103786114Y-120828609D02*
X103833733Y-120733371D01*
X103833733Y-120733371D02*
X103928971Y-120685752D01*
X103928971Y-120685752D02*
X104119447Y-120685752D01*
X104119447Y-120685752D02*
X104214685Y-120733371D01*
X103786114Y-121304800D02*
X103881352Y-121352419D01*
X103881352Y-121352419D02*
X104119447Y-121352419D01*
X104119447Y-121352419D02*
X104214685Y-121304800D01*
X104214685Y-121304800D02*
X104262304Y-121209561D01*
X104262304Y-121209561D02*
X104262304Y-121114323D01*
X104262304Y-121114323D02*
X104214685Y-121019085D01*
X104214685Y-121019085D02*
X104119447Y-120971466D01*
X104119447Y-120971466D02*
X103881352Y-120971466D01*
X103881352Y-120971466D02*
X103786114Y-120923847D01*
X102881352Y-121352419D02*
X102881352Y-120352419D01*
X102881352Y-121304800D02*
X102976590Y-121352419D01*
X102976590Y-121352419D02*
X103167066Y-121352419D01*
X103167066Y-121352419D02*
X103262304Y-121304800D01*
X103262304Y-121304800D02*
X103309923Y-121257180D01*
X103309923Y-121257180D02*
X103357542Y-121161942D01*
X103357542Y-121161942D02*
X103357542Y-120876228D01*
X103357542Y-120876228D02*
X103309923Y-120780990D01*
X103309923Y-120780990D02*
X103262304Y-120733371D01*
X103262304Y-120733371D02*
X103167066Y-120685752D01*
X103167066Y-120685752D02*
X102976590Y-120685752D01*
X102976590Y-120685752D02*
X102881352Y-120733371D01*
D11*
X71339523Y-93504819D02*
X71339523Y-92504819D01*
X71339523Y-92504819D02*
X71006190Y-93219104D01*
X71006190Y-93219104D02*
X70672857Y-92504819D01*
X70672857Y-92504819D02*
X70672857Y-93504819D01*
X69672857Y-93504819D02*
X70244285Y-93504819D01*
X69958571Y-93504819D02*
X69958571Y-92504819D01*
X69958571Y-92504819D02*
X70053809Y-92647676D01*
X70053809Y-92647676D02*
X70149047Y-92742914D01*
X70149047Y-92742914D02*
X70244285Y-92790533D01*
D10*
X67012455Y-77136704D02*
X66536265Y-77136704D01*
X67107693Y-77422419D02*
X66774360Y-76422419D01*
X66774360Y-76422419D02*
X66441027Y-77422419D01*
X67774360Y-82148609D02*
X67631503Y-82196228D01*
X67631503Y-82196228D02*
X67583884Y-82243847D01*
X67583884Y-82243847D02*
X67536265Y-82339085D01*
X67536265Y-82339085D02*
X67536265Y-82481942D01*
X67536265Y-82481942D02*
X67583884Y-82577180D01*
X67583884Y-82577180D02*
X67631503Y-82624800D01*
X67631503Y-82624800D02*
X67726741Y-82672419D01*
X67726741Y-82672419D02*
X68107693Y-82672419D01*
X68107693Y-82672419D02*
X68107693Y-81672419D01*
X68107693Y-81672419D02*
X67774360Y-81672419D01*
X67774360Y-81672419D02*
X67679122Y-81720038D01*
X67679122Y-81720038D02*
X67631503Y-81767657D01*
X67631503Y-81767657D02*
X67583884Y-81862895D01*
X67583884Y-81862895D02*
X67583884Y-81958133D01*
X67583884Y-81958133D02*
X67631503Y-82053371D01*
X67631503Y-82053371D02*
X67679122Y-82100990D01*
X67679122Y-82100990D02*
X67774360Y-82148609D01*
X67774360Y-82148609D02*
X68107693Y-82148609D01*
X78900550Y-121584753D02*
X78519598Y-121584753D01*
X78757693Y-122251420D02*
X78757693Y-121394277D01*
X78757693Y-121394277D02*
X78710074Y-121299039D01*
X78710074Y-121299039D02*
X78614836Y-121251420D01*
X78614836Y-121251420D02*
X78519598Y-121251420D01*
X78043407Y-122251420D02*
X78138645Y-122203801D01*
X78138645Y-122203801D02*
X78186264Y-122156181D01*
X78186264Y-122156181D02*
X78233883Y-122060943D01*
X78233883Y-122060943D02*
X78233883Y-121775229D01*
X78233883Y-121775229D02*
X78186264Y-121679991D01*
X78186264Y-121679991D02*
X78138645Y-121632372D01*
X78138645Y-121632372D02*
X78043407Y-121584753D01*
X78043407Y-121584753D02*
X77900550Y-121584753D01*
X77900550Y-121584753D02*
X77805312Y-121632372D01*
X77805312Y-121632372D02*
X77757693Y-121679991D01*
X77757693Y-121679991D02*
X77710074Y-121775229D01*
X77710074Y-121775229D02*
X77710074Y-122060943D01*
X77710074Y-122060943D02*
X77757693Y-122156181D01*
X77757693Y-122156181D02*
X77805312Y-122203801D01*
X77805312Y-122203801D02*
X77900550Y-122251420D01*
X77900550Y-122251420D02*
X78043407Y-122251420D01*
X77281502Y-122251420D02*
X77281502Y-121584753D01*
X77281502Y-121775229D02*
X77233883Y-121679991D01*
X77233883Y-121679991D02*
X77186264Y-121632372D01*
X77186264Y-121632372D02*
X77091026Y-121584753D01*
X77091026Y-121584753D02*
X76995788Y-121584753D01*
X75900549Y-122251420D02*
X75900549Y-121584753D01*
X75900549Y-121679991D02*
X75852930Y-121632372D01*
X75852930Y-121632372D02*
X75757692Y-121584753D01*
X75757692Y-121584753D02*
X75614835Y-121584753D01*
X75614835Y-121584753D02*
X75519597Y-121632372D01*
X75519597Y-121632372D02*
X75471978Y-121727610D01*
X75471978Y-121727610D02*
X75471978Y-122251420D01*
X75471978Y-121727610D02*
X75424359Y-121632372D01*
X75424359Y-121632372D02*
X75329121Y-121584753D01*
X75329121Y-121584753D02*
X75186264Y-121584753D01*
X75186264Y-121584753D02*
X75091025Y-121632372D01*
X75091025Y-121632372D02*
X75043406Y-121727610D01*
X75043406Y-121727610D02*
X75043406Y-122251420D01*
X74424359Y-122251420D02*
X74519597Y-122203801D01*
X74519597Y-122203801D02*
X74567216Y-122156181D01*
X74567216Y-122156181D02*
X74614835Y-122060943D01*
X74614835Y-122060943D02*
X74614835Y-121775229D01*
X74614835Y-121775229D02*
X74567216Y-121679991D01*
X74567216Y-121679991D02*
X74519597Y-121632372D01*
X74519597Y-121632372D02*
X74424359Y-121584753D01*
X74424359Y-121584753D02*
X74281502Y-121584753D01*
X74281502Y-121584753D02*
X74186264Y-121632372D01*
X74186264Y-121632372D02*
X74138645Y-121679991D01*
X74138645Y-121679991D02*
X74091026Y-121775229D01*
X74091026Y-121775229D02*
X74091026Y-122060943D01*
X74091026Y-122060943D02*
X74138645Y-122156181D01*
X74138645Y-122156181D02*
X74186264Y-122203801D01*
X74186264Y-122203801D02*
X74281502Y-122251420D01*
X74281502Y-122251420D02*
X74424359Y-122251420D01*
X73805311Y-121584753D02*
X73424359Y-121584753D01*
X73662454Y-121251420D02*
X73662454Y-122108562D01*
X73662454Y-122108562D02*
X73614835Y-122203801D01*
X73614835Y-122203801D02*
X73519597Y-122251420D01*
X73519597Y-122251420D02*
X73424359Y-122251420D01*
X72948168Y-122251420D02*
X73043406Y-122203801D01*
X73043406Y-122203801D02*
X73091025Y-122156181D01*
X73091025Y-122156181D02*
X73138644Y-122060943D01*
X73138644Y-122060943D02*
X73138644Y-121775229D01*
X73138644Y-121775229D02*
X73091025Y-121679991D01*
X73091025Y-121679991D02*
X73043406Y-121632372D01*
X73043406Y-121632372D02*
X72948168Y-121584753D01*
X72948168Y-121584753D02*
X72805311Y-121584753D01*
X72805311Y-121584753D02*
X72710073Y-121632372D01*
X72710073Y-121632372D02*
X72662454Y-121679991D01*
X72662454Y-121679991D02*
X72614835Y-121775229D01*
X72614835Y-121775229D02*
X72614835Y-122060943D01*
X72614835Y-122060943D02*
X72662454Y-122156181D01*
X72662454Y-122156181D02*
X72710073Y-122203801D01*
X72710073Y-122203801D02*
X72805311Y-122251420D01*
X72805311Y-122251420D02*
X72948168Y-122251420D01*
X72186263Y-122251420D02*
X72186263Y-121584753D01*
X72186263Y-121775229D02*
X72138644Y-121679991D01*
X72138644Y-121679991D02*
X72091025Y-121632372D01*
X72091025Y-121632372D02*
X71995787Y-121584753D01*
X71995787Y-121584753D02*
X71900549Y-121584753D01*
X70805310Y-122251420D02*
X70805310Y-121251420D01*
X70376739Y-122251420D02*
X70376739Y-121727610D01*
X70376739Y-121727610D02*
X70424358Y-121632372D01*
X70424358Y-121632372D02*
X70519596Y-121584753D01*
X70519596Y-121584753D02*
X70662453Y-121584753D01*
X70662453Y-121584753D02*
X70757691Y-121632372D01*
X70757691Y-121632372D02*
X70805310Y-121679991D01*
X69519596Y-122203801D02*
X69614834Y-122251420D01*
X69614834Y-122251420D02*
X69805310Y-122251420D01*
X69805310Y-122251420D02*
X69900548Y-122203801D01*
X69900548Y-122203801D02*
X69948167Y-122108562D01*
X69948167Y-122108562D02*
X69948167Y-121727610D01*
X69948167Y-121727610D02*
X69900548Y-121632372D01*
X69900548Y-121632372D02*
X69805310Y-121584753D01*
X69805310Y-121584753D02*
X69614834Y-121584753D01*
X69614834Y-121584753D02*
X69519596Y-121632372D01*
X69519596Y-121632372D02*
X69471977Y-121727610D01*
X69471977Y-121727610D02*
X69471977Y-121822848D01*
X69471977Y-121822848D02*
X69948167Y-121918086D01*
X69043405Y-122251420D02*
X69043405Y-121584753D01*
X69043405Y-121775229D02*
X68995786Y-121679991D01*
X68995786Y-121679991D02*
X68948167Y-121632372D01*
X68948167Y-121632372D02*
X68852929Y-121584753D01*
X68852929Y-121584753D02*
X68757691Y-121584753D01*
X68043405Y-122203801D02*
X68138643Y-122251420D01*
X68138643Y-122251420D02*
X68329119Y-122251420D01*
X68329119Y-122251420D02*
X68424357Y-122203801D01*
X68424357Y-122203801D02*
X68471976Y-122108562D01*
X68471976Y-122108562D02*
X68471976Y-121727610D01*
X68471976Y-121727610D02*
X68424357Y-121632372D01*
X68424357Y-121632372D02*
X68329119Y-121584753D01*
X68329119Y-121584753D02*
X68138643Y-121584753D01*
X68138643Y-121584753D02*
X68043405Y-121632372D01*
X68043405Y-121632372D02*
X67995786Y-121727610D01*
X67995786Y-121727610D02*
X67995786Y-121822848D01*
X67995786Y-121822848D02*
X68471976Y-121918086D01*
X78745787Y-120215705D02*
X78269597Y-120215705D01*
X78841025Y-120501420D02*
X78507692Y-119501420D01*
X78507692Y-119501420D02*
X78174359Y-120501420D01*
X77412454Y-120501420D02*
X77412454Y-119501420D01*
X77412454Y-120453801D02*
X77507692Y-120501420D01*
X77507692Y-120501420D02*
X77698168Y-120501420D01*
X77698168Y-120501420D02*
X77793406Y-120453801D01*
X77793406Y-120453801D02*
X77841025Y-120406181D01*
X77841025Y-120406181D02*
X77888644Y-120310943D01*
X77888644Y-120310943D02*
X77888644Y-120025229D01*
X77888644Y-120025229D02*
X77841025Y-119929991D01*
X77841025Y-119929991D02*
X77793406Y-119882372D01*
X77793406Y-119882372D02*
X77698168Y-119834753D01*
X77698168Y-119834753D02*
X77507692Y-119834753D01*
X77507692Y-119834753D02*
X77412454Y-119882372D01*
X76507692Y-120501420D02*
X76507692Y-119501420D01*
X76507692Y-120453801D02*
X76602930Y-120501420D01*
X76602930Y-120501420D02*
X76793406Y-120501420D01*
X76793406Y-120501420D02*
X76888644Y-120453801D01*
X76888644Y-120453801D02*
X76936263Y-120406181D01*
X76936263Y-120406181D02*
X76983882Y-120310943D01*
X76983882Y-120310943D02*
X76983882Y-120025229D01*
X76983882Y-120025229D02*
X76936263Y-119929991D01*
X76936263Y-119929991D02*
X76888644Y-119882372D01*
X76888644Y-119882372D02*
X76793406Y-119834753D01*
X76793406Y-119834753D02*
X76602930Y-119834753D01*
X76602930Y-119834753D02*
X76507692Y-119882372D01*
X75364834Y-119501420D02*
X74745787Y-119501420D01*
X74745787Y-119501420D02*
X75079120Y-119882372D01*
X75079120Y-119882372D02*
X74936263Y-119882372D01*
X74936263Y-119882372D02*
X74841025Y-119929991D01*
X74841025Y-119929991D02*
X74793406Y-119977610D01*
X74793406Y-119977610D02*
X74745787Y-120072848D01*
X74745787Y-120072848D02*
X74745787Y-120310943D01*
X74745787Y-120310943D02*
X74793406Y-120406181D01*
X74793406Y-120406181D02*
X74841025Y-120453801D01*
X74841025Y-120453801D02*
X74936263Y-120501420D01*
X74936263Y-120501420D02*
X75221977Y-120501420D01*
X75221977Y-120501420D02*
X75317215Y-120453801D01*
X75317215Y-120453801D02*
X75364834Y-120406181D01*
X74317215Y-120501420D02*
X74317215Y-119834753D01*
X74317215Y-119929991D02*
X74269596Y-119882372D01*
X74269596Y-119882372D02*
X74174358Y-119834753D01*
X74174358Y-119834753D02*
X74031501Y-119834753D01*
X74031501Y-119834753D02*
X73936263Y-119882372D01*
X73936263Y-119882372D02*
X73888644Y-119977610D01*
X73888644Y-119977610D02*
X73888644Y-120501420D01*
X73888644Y-119977610D02*
X73841025Y-119882372D01*
X73841025Y-119882372D02*
X73745787Y-119834753D01*
X73745787Y-119834753D02*
X73602930Y-119834753D01*
X73602930Y-119834753D02*
X73507691Y-119882372D01*
X73507691Y-119882372D02*
X73460072Y-119977610D01*
X73460072Y-119977610D02*
X73460072Y-120501420D01*
X72269596Y-120215705D02*
X71793406Y-120215705D01*
X72364834Y-120501420D02*
X72031501Y-119501420D01*
X72031501Y-119501420D02*
X71698168Y-120501420D01*
X70936263Y-120501420D02*
X70936263Y-119501420D01*
X70936263Y-120453801D02*
X71031501Y-120501420D01*
X71031501Y-120501420D02*
X71221977Y-120501420D01*
X71221977Y-120501420D02*
X71317215Y-120453801D01*
X71317215Y-120453801D02*
X71364834Y-120406181D01*
X71364834Y-120406181D02*
X71412453Y-120310943D01*
X71412453Y-120310943D02*
X71412453Y-120025229D01*
X71412453Y-120025229D02*
X71364834Y-119929991D01*
X71364834Y-119929991D02*
X71317215Y-119882372D01*
X71317215Y-119882372D02*
X71221977Y-119834753D01*
X71221977Y-119834753D02*
X71031501Y-119834753D01*
X71031501Y-119834753D02*
X70936263Y-119882372D01*
X70460072Y-120501420D02*
X70460072Y-119501420D01*
X70031501Y-120501420D02*
X70031501Y-119977610D01*
X70031501Y-119977610D02*
X70079120Y-119882372D01*
X70079120Y-119882372D02*
X70174358Y-119834753D01*
X70174358Y-119834753D02*
X70317215Y-119834753D01*
X70317215Y-119834753D02*
X70412453Y-119882372D01*
X70412453Y-119882372D02*
X70460072Y-119929991D01*
X69174358Y-120453801D02*
X69269596Y-120501420D01*
X69269596Y-120501420D02*
X69460072Y-120501420D01*
X69460072Y-120501420D02*
X69555310Y-120453801D01*
X69555310Y-120453801D02*
X69602929Y-120358562D01*
X69602929Y-120358562D02*
X69602929Y-119977610D01*
X69602929Y-119977610D02*
X69555310Y-119882372D01*
X69555310Y-119882372D02*
X69460072Y-119834753D01*
X69460072Y-119834753D02*
X69269596Y-119834753D01*
X69269596Y-119834753D02*
X69174358Y-119882372D01*
X69174358Y-119882372D02*
X69126739Y-119977610D01*
X69126739Y-119977610D02*
X69126739Y-120072848D01*
X69126739Y-120072848D02*
X69602929Y-120168086D01*
X68745786Y-120453801D02*
X68650548Y-120501420D01*
X68650548Y-120501420D02*
X68460072Y-120501420D01*
X68460072Y-120501420D02*
X68364834Y-120453801D01*
X68364834Y-120453801D02*
X68317215Y-120358562D01*
X68317215Y-120358562D02*
X68317215Y-120310943D01*
X68317215Y-120310943D02*
X68364834Y-120215705D01*
X68364834Y-120215705D02*
X68460072Y-120168086D01*
X68460072Y-120168086D02*
X68602929Y-120168086D01*
X68602929Y-120168086D02*
X68698167Y-120120467D01*
X68698167Y-120120467D02*
X68745786Y-120025229D01*
X68745786Y-120025229D02*
X68745786Y-119977610D01*
X68745786Y-119977610D02*
X68698167Y-119882372D01*
X68698167Y-119882372D02*
X68602929Y-119834753D01*
X68602929Y-119834753D02*
X68460072Y-119834753D01*
X68460072Y-119834753D02*
X68364834Y-119882372D01*
X67888643Y-120501420D02*
X67888643Y-119834753D01*
X67888643Y-119501420D02*
X67936262Y-119549039D01*
X67936262Y-119549039D02*
X67888643Y-119596658D01*
X67888643Y-119596658D02*
X67841024Y-119549039D01*
X67841024Y-119549039D02*
X67888643Y-119501420D01*
X67888643Y-119501420D02*
X67888643Y-119596658D01*
X67507691Y-119834753D02*
X67269596Y-120501420D01*
X67269596Y-120501420D02*
X67031501Y-119834753D01*
X66269596Y-120453801D02*
X66364834Y-120501420D01*
X66364834Y-120501420D02*
X66555310Y-120501420D01*
X66555310Y-120501420D02*
X66650548Y-120453801D01*
X66650548Y-120453801D02*
X66698167Y-120358562D01*
X66698167Y-120358562D02*
X66698167Y-119977610D01*
X66698167Y-119977610D02*
X66650548Y-119882372D01*
X66650548Y-119882372D02*
X66555310Y-119834753D01*
X66555310Y-119834753D02*
X66364834Y-119834753D01*
X66364834Y-119834753D02*
X66269596Y-119882372D01*
X66269596Y-119882372D02*
X66221977Y-119977610D01*
X66221977Y-119977610D02*
X66221977Y-120072848D01*
X66221977Y-120072848D02*
X66698167Y-120168086D01*
X65031500Y-119834753D02*
X65031500Y-120834753D01*
X65031500Y-119882372D02*
X64936262Y-119834753D01*
X64936262Y-119834753D02*
X64745786Y-119834753D01*
X64745786Y-119834753D02*
X64650548Y-119882372D01*
X64650548Y-119882372D02*
X64602929Y-119929991D01*
X64602929Y-119929991D02*
X64555310Y-120025229D01*
X64555310Y-120025229D02*
X64555310Y-120310943D01*
X64555310Y-120310943D02*
X64602929Y-120406181D01*
X64602929Y-120406181D02*
X64650548Y-120453801D01*
X64650548Y-120453801D02*
X64745786Y-120501420D01*
X64745786Y-120501420D02*
X64936262Y-120501420D01*
X64936262Y-120501420D02*
X65031500Y-120453801D01*
X63698167Y-120501420D02*
X63698167Y-119977610D01*
X63698167Y-119977610D02*
X63745786Y-119882372D01*
X63745786Y-119882372D02*
X63841024Y-119834753D01*
X63841024Y-119834753D02*
X64031500Y-119834753D01*
X64031500Y-119834753D02*
X64126738Y-119882372D01*
X63698167Y-120453801D02*
X63793405Y-120501420D01*
X63793405Y-120501420D02*
X64031500Y-120501420D01*
X64031500Y-120501420D02*
X64126738Y-120453801D01*
X64126738Y-120453801D02*
X64174357Y-120358562D01*
X64174357Y-120358562D02*
X64174357Y-120263324D01*
X64174357Y-120263324D02*
X64126738Y-120168086D01*
X64126738Y-120168086D02*
X64031500Y-120120467D01*
X64031500Y-120120467D02*
X63793405Y-120120467D01*
X63793405Y-120120467D02*
X63698167Y-120072848D01*
X62793405Y-120501420D02*
X62793405Y-119501420D01*
X62793405Y-120453801D02*
X62888643Y-120501420D01*
X62888643Y-120501420D02*
X63079119Y-120501420D01*
X63079119Y-120501420D02*
X63174357Y-120453801D01*
X63174357Y-120453801D02*
X63221976Y-120406181D01*
X63221976Y-120406181D02*
X63269595Y-120310943D01*
X63269595Y-120310943D02*
X63269595Y-120025229D01*
X63269595Y-120025229D02*
X63221976Y-119929991D01*
X63221976Y-119929991D02*
X63174357Y-119882372D01*
X63174357Y-119882372D02*
X63079119Y-119834753D01*
X63079119Y-119834753D02*
X62888643Y-119834753D01*
X62888643Y-119834753D02*
X62793405Y-119882372D01*
D11*
X118690858Y-154047410D02*
X119833716Y-154047410D01*
D10*
X120875069Y-156281319D02*
X120732212Y-156328938D01*
X120732212Y-156328938D02*
X120684593Y-156376557D01*
X120684593Y-156376557D02*
X120636974Y-156471795D01*
X120636974Y-156471795D02*
X120636974Y-156614652D01*
X120636974Y-156614652D02*
X120684593Y-156709890D01*
X120684593Y-156709890D02*
X120732212Y-156757510D01*
X120732212Y-156757510D02*
X120827450Y-156805129D01*
X120827450Y-156805129D02*
X121208402Y-156805129D01*
X121208402Y-156805129D02*
X121208402Y-155805129D01*
X121208402Y-155805129D02*
X120875069Y-155805129D01*
X120875069Y-155805129D02*
X120779831Y-155852748D01*
X120779831Y-155852748D02*
X120732212Y-155900367D01*
X120732212Y-155900367D02*
X120684593Y-155995605D01*
X120684593Y-155995605D02*
X120684593Y-156090843D01*
X120684593Y-156090843D02*
X120732212Y-156186081D01*
X120732212Y-156186081D02*
X120779831Y-156233700D01*
X120779831Y-156233700D02*
X120875069Y-156281319D01*
X120875069Y-156281319D02*
X121208402Y-156281319D01*
X120351259Y-155805129D02*
X119779831Y-155805129D01*
X120065545Y-156805129D02*
X120065545Y-155805129D01*
X118922688Y-156805129D02*
X119494116Y-156805129D01*
X119208402Y-156805129D02*
X119208402Y-155805129D01*
X119208402Y-155805129D02*
X119303640Y-155947986D01*
X119303640Y-155947986D02*
X119398878Y-156043224D01*
X119398878Y-156043224D02*
X119494116Y-156090843D01*
X117827449Y-155805129D02*
X117208402Y-155805129D01*
X117208402Y-155805129D02*
X117541735Y-156186081D01*
X117541735Y-156186081D02*
X117398878Y-156186081D01*
X117398878Y-156186081D02*
X117303640Y-156233700D01*
X117303640Y-156233700D02*
X117256021Y-156281319D01*
X117256021Y-156281319D02*
X117208402Y-156376557D01*
X117208402Y-156376557D02*
X117208402Y-156614652D01*
X117208402Y-156614652D02*
X117256021Y-156709890D01*
X117256021Y-156709890D02*
X117303640Y-156757510D01*
X117303640Y-156757510D02*
X117398878Y-156805129D01*
X117398878Y-156805129D02*
X117684592Y-156805129D01*
X117684592Y-156805129D02*
X117779830Y-156757510D01*
X117779830Y-156757510D02*
X117827449Y-156709890D01*
X116922687Y-155805129D02*
X116589354Y-156805129D01*
X116589354Y-156805129D02*
X116256021Y-155805129D01*
D11*
X123940858Y-149047410D02*
X125083716Y-149047410D01*
X124512287Y-149618838D02*
X124512287Y-148475981D01*
X81405144Y-71340029D02*
X81738477Y-70863838D01*
X81976572Y-71340029D02*
X81976572Y-70340029D01*
X81976572Y-70340029D02*
X81595620Y-70340029D01*
X81595620Y-70340029D02*
X81500382Y-70387648D01*
X81500382Y-70387648D02*
X81452763Y-70435267D01*
X81452763Y-70435267D02*
X81405144Y-70530505D01*
X81405144Y-70530505D02*
X81405144Y-70673362D01*
X81405144Y-70673362D02*
X81452763Y-70768600D01*
X81452763Y-70768600D02*
X81500382Y-70816219D01*
X81500382Y-70816219D02*
X81595620Y-70863838D01*
X81595620Y-70863838D02*
X81976572Y-70863838D01*
X80452763Y-71340029D02*
X81024191Y-71340029D01*
X80738477Y-71340029D02*
X80738477Y-70340029D01*
X80738477Y-70340029D02*
X80833715Y-70482886D01*
X80833715Y-70482886D02*
X80928953Y-70578124D01*
X80928953Y-70578124D02*
X81024191Y-70625743D01*
X79595620Y-70673362D02*
X79595620Y-71340029D01*
X79833715Y-70292410D02*
X80071810Y-71006695D01*
X80071810Y-71006695D02*
X79452763Y-71006695D01*
X85370476Y-70034819D02*
X85846666Y-70034819D01*
X85846666Y-70034819D02*
X85846666Y-69034819D01*
X85037142Y-70034819D02*
X85037142Y-69034819D01*
X85037142Y-69034819D02*
X84799047Y-69034819D01*
X84799047Y-69034819D02*
X84656190Y-69082438D01*
X84656190Y-69082438D02*
X84560952Y-69177676D01*
X84560952Y-69177676D02*
X84513333Y-69272914D01*
X84513333Y-69272914D02*
X84465714Y-69463390D01*
X84465714Y-69463390D02*
X84465714Y-69606247D01*
X84465714Y-69606247D02*
X84513333Y-69796723D01*
X84513333Y-69796723D02*
X84560952Y-69891961D01*
X84560952Y-69891961D02*
X84656190Y-69987200D01*
X84656190Y-69987200D02*
X84799047Y-70034819D01*
X84799047Y-70034819D02*
X85037142Y-70034819D01*
X83465714Y-70034819D02*
X83799047Y-69558628D01*
X84037142Y-70034819D02*
X84037142Y-69034819D01*
X84037142Y-69034819D02*
X83656190Y-69034819D01*
X83656190Y-69034819D02*
X83560952Y-69082438D01*
X83560952Y-69082438D02*
X83513333Y-69130057D01*
X83513333Y-69130057D02*
X83465714Y-69225295D01*
X83465714Y-69225295D02*
X83465714Y-69368152D01*
X83465714Y-69368152D02*
X83513333Y-69463390D01*
X83513333Y-69463390D02*
X83560952Y-69511009D01*
X83560952Y-69511009D02*
X83656190Y-69558628D01*
X83656190Y-69558628D02*
X84037142Y-69558628D01*
X101572857Y-71284819D02*
X101906190Y-70808628D01*
X102144285Y-71284819D02*
X102144285Y-70284819D01*
X102144285Y-70284819D02*
X101763333Y-70284819D01*
X101763333Y-70284819D02*
X101668095Y-70332438D01*
X101668095Y-70332438D02*
X101620476Y-70380057D01*
X101620476Y-70380057D02*
X101572857Y-70475295D01*
X101572857Y-70475295D02*
X101572857Y-70618152D01*
X101572857Y-70618152D02*
X101620476Y-70713390D01*
X101620476Y-70713390D02*
X101668095Y-70761009D01*
X101668095Y-70761009D02*
X101763333Y-70808628D01*
X101763333Y-70808628D02*
X102144285Y-70808628D01*
X100620476Y-71284819D02*
X101191904Y-71284819D01*
X100906190Y-71284819D02*
X100906190Y-70284819D01*
X100906190Y-70284819D02*
X101001428Y-70427676D01*
X101001428Y-70427676D02*
X101096666Y-70522914D01*
X101096666Y-70522914D02*
X101191904Y-70570533D01*
X100287142Y-70284819D02*
X99668095Y-70284819D01*
X99668095Y-70284819D02*
X100001428Y-70665771D01*
X100001428Y-70665771D02*
X99858571Y-70665771D01*
X99858571Y-70665771D02*
X99763333Y-70713390D01*
X99763333Y-70713390D02*
X99715714Y-70761009D01*
X99715714Y-70761009D02*
X99668095Y-70856247D01*
X99668095Y-70856247D02*
X99668095Y-71094342D01*
X99668095Y-71094342D02*
X99715714Y-71189580D01*
X99715714Y-71189580D02*
X99763333Y-71237200D01*
X99763333Y-71237200D02*
X99858571Y-71284819D01*
X99858571Y-71284819D02*
X100144285Y-71284819D01*
X100144285Y-71284819D02*
X100239523Y-71237200D01*
X100239523Y-71237200D02*
X100287142Y-71189580D01*
X97620476Y-70284819D02*
X98096666Y-70284819D01*
X98096666Y-70284819D02*
X98096666Y-69284819D01*
X97287142Y-70284819D02*
X97287142Y-69284819D01*
X97287142Y-69284819D02*
X97049047Y-69284819D01*
X97049047Y-69284819D02*
X96906190Y-69332438D01*
X96906190Y-69332438D02*
X96810952Y-69427676D01*
X96810952Y-69427676D02*
X96763333Y-69522914D01*
X96763333Y-69522914D02*
X96715714Y-69713390D01*
X96715714Y-69713390D02*
X96715714Y-69856247D01*
X96715714Y-69856247D02*
X96763333Y-70046723D01*
X96763333Y-70046723D02*
X96810952Y-70141961D01*
X96810952Y-70141961D02*
X96906190Y-70237200D01*
X96906190Y-70237200D02*
X97049047Y-70284819D01*
X97049047Y-70284819D02*
X97287142Y-70284819D01*
X95715714Y-70284819D02*
X96049047Y-69808628D01*
X96287142Y-70284819D02*
X96287142Y-69284819D01*
X96287142Y-69284819D02*
X95906190Y-69284819D01*
X95906190Y-69284819D02*
X95810952Y-69332438D01*
X95810952Y-69332438D02*
X95763333Y-69380057D01*
X95763333Y-69380057D02*
X95715714Y-69475295D01*
X95715714Y-69475295D02*
X95715714Y-69618152D01*
X95715714Y-69618152D02*
X95763333Y-69713390D01*
X95763333Y-69713390D02*
X95810952Y-69761009D01*
X95810952Y-69761009D02*
X95906190Y-69808628D01*
X95906190Y-69808628D02*
X96287142Y-69808628D01*
X97600381Y-58440029D02*
X97600381Y-57440029D01*
X97600381Y-57440029D02*
X97362286Y-57440029D01*
X97362286Y-57440029D02*
X97219429Y-57487648D01*
X97219429Y-57487648D02*
X97124191Y-57582886D01*
X97124191Y-57582886D02*
X97076572Y-57678124D01*
X97076572Y-57678124D02*
X97028953Y-57868600D01*
X97028953Y-57868600D02*
X97028953Y-58011457D01*
X97028953Y-58011457D02*
X97076572Y-58201933D01*
X97076572Y-58201933D02*
X97124191Y-58297171D01*
X97124191Y-58297171D02*
X97219429Y-58392410D01*
X97219429Y-58392410D02*
X97362286Y-58440029D01*
X97362286Y-58440029D02*
X97600381Y-58440029D01*
X96171810Y-57773362D02*
X96171810Y-58440029D01*
X96409905Y-57392410D02*
X96648000Y-58106695D01*
X96648000Y-58106695D02*
X96028953Y-58106695D01*
X97231334Y-59940029D02*
X97707524Y-59940029D01*
X97707524Y-59940029D02*
X97707524Y-58940029D01*
X96898000Y-59416219D02*
X96564667Y-59416219D01*
X96421810Y-59940029D02*
X96898000Y-59940029D01*
X96898000Y-59940029D02*
X96898000Y-58940029D01*
X96898000Y-58940029D02*
X96421810Y-58940029D01*
X95993238Y-59940029D02*
X95993238Y-58940029D01*
X95993238Y-58940029D02*
X95755143Y-58940029D01*
X95755143Y-58940029D02*
X95612286Y-58987648D01*
X95612286Y-58987648D02*
X95517048Y-59082886D01*
X95517048Y-59082886D02*
X95469429Y-59178124D01*
X95469429Y-59178124D02*
X95421810Y-59368600D01*
X95421810Y-59368600D02*
X95421810Y-59511457D01*
X95421810Y-59511457D02*
X95469429Y-59701933D01*
X95469429Y-59701933D02*
X95517048Y-59797171D01*
X95517048Y-59797171D02*
X95612286Y-59892410D01*
X95612286Y-59892410D02*
X95755143Y-59940029D01*
X95755143Y-59940029D02*
X95993238Y-59940029D01*
X94469429Y-59940029D02*
X95040857Y-59940029D01*
X94755143Y-59940029D02*
X94755143Y-58940029D01*
X94755143Y-58940029D02*
X94850381Y-59082886D01*
X94850381Y-59082886D02*
X94945619Y-59178124D01*
X94945619Y-59178124D02*
X95040857Y-59225743D01*
X84800381Y-58190029D02*
X84800381Y-57190029D01*
X84800381Y-57190029D02*
X84562286Y-57190029D01*
X84562286Y-57190029D02*
X84419429Y-57237648D01*
X84419429Y-57237648D02*
X84324191Y-57332886D01*
X84324191Y-57332886D02*
X84276572Y-57428124D01*
X84276572Y-57428124D02*
X84228953Y-57618600D01*
X84228953Y-57618600D02*
X84228953Y-57761457D01*
X84228953Y-57761457D02*
X84276572Y-57951933D01*
X84276572Y-57951933D02*
X84324191Y-58047171D01*
X84324191Y-58047171D02*
X84419429Y-58142410D01*
X84419429Y-58142410D02*
X84562286Y-58190029D01*
X84562286Y-58190029D02*
X84800381Y-58190029D01*
X83324191Y-57190029D02*
X83800381Y-57190029D01*
X83800381Y-57190029D02*
X83848000Y-57666219D01*
X83848000Y-57666219D02*
X83800381Y-57618600D01*
X83800381Y-57618600D02*
X83705143Y-57570981D01*
X83705143Y-57570981D02*
X83467048Y-57570981D01*
X83467048Y-57570981D02*
X83371810Y-57618600D01*
X83371810Y-57618600D02*
X83324191Y-57666219D01*
X83324191Y-57666219D02*
X83276572Y-57761457D01*
X83276572Y-57761457D02*
X83276572Y-57999552D01*
X83276572Y-57999552D02*
X83324191Y-58094790D01*
X83324191Y-58094790D02*
X83371810Y-58142410D01*
X83371810Y-58142410D02*
X83467048Y-58190029D01*
X83467048Y-58190029D02*
X83705143Y-58190029D01*
X83705143Y-58190029D02*
X83800381Y-58142410D01*
X83800381Y-58142410D02*
X83848000Y-58094790D01*
X86681334Y-59690029D02*
X87157524Y-59690029D01*
X87157524Y-59690029D02*
X87157524Y-58690029D01*
X86348000Y-59166219D02*
X86014667Y-59166219D01*
X85871810Y-59690029D02*
X86348000Y-59690029D01*
X86348000Y-59690029D02*
X86348000Y-58690029D01*
X86348000Y-58690029D02*
X85871810Y-58690029D01*
X85443238Y-59690029D02*
X85443238Y-58690029D01*
X85443238Y-58690029D02*
X85205143Y-58690029D01*
X85205143Y-58690029D02*
X85062286Y-58737648D01*
X85062286Y-58737648D02*
X84967048Y-58832886D01*
X84967048Y-58832886D02*
X84919429Y-58928124D01*
X84919429Y-58928124D02*
X84871810Y-59118600D01*
X84871810Y-59118600D02*
X84871810Y-59261457D01*
X84871810Y-59261457D02*
X84919429Y-59451933D01*
X84919429Y-59451933D02*
X84967048Y-59547171D01*
X84967048Y-59547171D02*
X85062286Y-59642410D01*
X85062286Y-59642410D02*
X85205143Y-59690029D01*
X85205143Y-59690029D02*
X85443238Y-59690029D01*
X84490857Y-58785267D02*
X84443238Y-58737648D01*
X84443238Y-58737648D02*
X84348000Y-58690029D01*
X84348000Y-58690029D02*
X84109905Y-58690029D01*
X84109905Y-58690029D02*
X84014667Y-58737648D01*
X84014667Y-58737648D02*
X83967048Y-58785267D01*
X83967048Y-58785267D02*
X83919429Y-58880505D01*
X83919429Y-58880505D02*
X83919429Y-58975743D01*
X83919429Y-58975743D02*
X83967048Y-59118600D01*
X83967048Y-59118600D02*
X84538476Y-59690029D01*
X84538476Y-59690029D02*
X83919429Y-59690029D01*
D10*
%TO.C,M2*%
X116793712Y-84480000D02*
G75*
G02*
X114834798Y-82076694I5J2000004D01*
G01*
D12*
X120090000Y-125380000D02*
X120990000Y-125380000D01*
X120990000Y-125380000D02*
X120990000Y-132580000D01*
X120090000Y-103980000D02*
X120090000Y-75980000D01*
X120090000Y-140180000D02*
X120090000Y-103980000D01*
X120990000Y-132580000D02*
X120090000Y-132580000D01*
X101090000Y-140180000D02*
X120090000Y-140180000D01*
D10*
X119590000Y-136480000D02*
X119590000Y-135380000D01*
X119590000Y-134980000D02*
X119590000Y-133880000D01*
X119590000Y-133480000D02*
X119590000Y-132380000D01*
X119590000Y-131980000D02*
X119590000Y-130880000D01*
X119590000Y-130480000D02*
X119590000Y-129380000D01*
X119590000Y-128980000D02*
X119590000Y-127880000D01*
X119590000Y-127480000D02*
X119590000Y-126380000D01*
X119590000Y-125980000D02*
X119590000Y-124880000D01*
X119590000Y-124480000D02*
X119590000Y-123380000D01*
X119590000Y-122980000D02*
X119590000Y-121880000D01*
X119590000Y-121480000D02*
X119590000Y-120380000D01*
X119590000Y-119980000D02*
X119590000Y-118880000D01*
X119590000Y-118480000D02*
X119590000Y-117380000D01*
X119590000Y-116980000D02*
X119590000Y-115880000D01*
X119590000Y-115480000D02*
X119590000Y-114380000D01*
X119590000Y-113980000D02*
X119590000Y-112880000D01*
X119590000Y-112480000D02*
X119590000Y-111380000D01*
X119590000Y-110980000D02*
X119590000Y-109880000D01*
X119590000Y-109480000D02*
X119590000Y-108380000D01*
X119590000Y-107980000D02*
X119590000Y-106880000D01*
X119590000Y-106480000D02*
X119590000Y-105380000D01*
X119590000Y-104980000D02*
X119590000Y-104980000D01*
X101590000Y-136480000D02*
X102690000Y-136480000D01*
X103090000Y-136480000D02*
X104190000Y-136480000D01*
X104590000Y-136480000D02*
X105690000Y-136480000D01*
X106090000Y-136480000D02*
X107190000Y-136480000D01*
X107590000Y-136480000D02*
X108690000Y-136480000D01*
X109090000Y-136480000D02*
X110190000Y-136480000D01*
X110590000Y-136480000D02*
X111690000Y-136480000D01*
X112090000Y-136480000D02*
X113190000Y-136480000D01*
X113590000Y-136480000D02*
X114690000Y-136480000D01*
X115090000Y-136480000D02*
X116190000Y-136480000D01*
X116590000Y-136480000D02*
X117690000Y-136480000D01*
X118090000Y-136480000D02*
X119190000Y-136480000D01*
X119590000Y-136480000D02*
X119590000Y-136480000D01*
D12*
X120090000Y-75980000D02*
X117590000Y-75980000D01*
D10*
X113090000Y-75980000D02*
X117590000Y-75980000D01*
X120090000Y-84480000D02*
X116793712Y-84480000D01*
X114834798Y-82076694D02*
X116090000Y-75980000D01*
X119590000Y-104980000D02*
X118490000Y-104980000D01*
X118090000Y-104980000D02*
X116990000Y-104980000D01*
X116590000Y-104980000D02*
X115490000Y-104980000D01*
X115090000Y-104980000D02*
X113990000Y-104980000D01*
X113590000Y-104980000D02*
X112490000Y-104980000D01*
X112090000Y-104980000D02*
X110990000Y-104980000D01*
X110590000Y-104980000D02*
X109490000Y-104980000D01*
X109090000Y-104980000D02*
X107990000Y-104980000D01*
X107590000Y-104980000D02*
X106490000Y-104980000D01*
X106090000Y-104980000D02*
X104990000Y-104980000D01*
X104590000Y-104980000D02*
X103490000Y-104980000D01*
X103090000Y-104980000D02*
X101990000Y-104980000D01*
X101590000Y-104980000D02*
X101590000Y-104980000D01*
X101590000Y-104980000D02*
X101590000Y-106080000D01*
X101590000Y-106480000D02*
X101590000Y-107580000D01*
X101590000Y-107980000D02*
X101590000Y-109080000D01*
X101590000Y-109480000D02*
X101590000Y-110580000D01*
X101590000Y-110980000D02*
X101590000Y-112080000D01*
X101590000Y-112480000D02*
X101590000Y-113580000D01*
X101590000Y-113980000D02*
X101590000Y-115080000D01*
X101590000Y-115480000D02*
X101590000Y-116580000D01*
X101590000Y-116980000D02*
X101590000Y-118080000D01*
X101590000Y-118480000D02*
X101590000Y-119580000D01*
X101590000Y-119980000D02*
X101590000Y-121080000D01*
X101590000Y-121480000D02*
X101590000Y-122580000D01*
X101590000Y-122980000D02*
X101590000Y-124080000D01*
X101590000Y-124480000D02*
X101590000Y-125580000D01*
X101590000Y-125980000D02*
X101590000Y-127080000D01*
X101590000Y-127480000D02*
X101590000Y-128580000D01*
X101590000Y-128980000D02*
X101590000Y-130080000D01*
X101590000Y-130480000D02*
X101590000Y-131580000D01*
X101590000Y-131980000D02*
X101590000Y-133080000D01*
X101590000Y-133480000D02*
X101590000Y-134580000D01*
X101590000Y-134980000D02*
X101590000Y-136080000D01*
X101590000Y-136480000D02*
X101590000Y-136480000D01*
D12*
X99290000Y-103980000D02*
X101090000Y-103980000D01*
D10*
X120090000Y-104480000D02*
X101090000Y-104480000D01*
X120090000Y-136980000D02*
X101090000Y-136980000D01*
D12*
X101090000Y-103980000D02*
X101090000Y-140180000D01*
X113090000Y-75980000D02*
X99290000Y-75980000D01*
X99290000Y-75980000D02*
X99290000Y-103980000D01*
D10*
%TO.C,M1*%
X66785202Y-81646694D02*
G75*
G02*
X64826288Y-84050001I-1958895J-403322D01*
G01*
D12*
X68530000Y-75550000D02*
X82330000Y-75550000D01*
X82330000Y-75550000D02*
X82330000Y-103550000D01*
X82330000Y-103550000D02*
X80530000Y-103550000D01*
D10*
X61530000Y-104050000D02*
X80530000Y-104050000D01*
X61530000Y-136550000D02*
X80530000Y-136550000D01*
D12*
X80530000Y-103550000D02*
X80530000Y-139750000D01*
D10*
X62030000Y-104550000D02*
X63130000Y-104550000D01*
X63530000Y-104550000D02*
X64630000Y-104550000D01*
X65030000Y-104550000D02*
X66130000Y-104550000D01*
X66530000Y-104550000D02*
X67630000Y-104550000D01*
X68030000Y-104550000D02*
X69130000Y-104550000D01*
X69530000Y-104550000D02*
X70630000Y-104550000D01*
X71030000Y-104550000D02*
X72130000Y-104550000D01*
X72530000Y-104550000D02*
X73630000Y-104550000D01*
X74030000Y-104550000D02*
X75130000Y-104550000D01*
X75530000Y-104550000D02*
X76630000Y-104550000D01*
X77030000Y-104550000D02*
X78130000Y-104550000D01*
X78530000Y-104550000D02*
X79630000Y-104550000D01*
X80030000Y-104550000D02*
X80030000Y-104550000D01*
X80030000Y-104550000D02*
X80030000Y-105650000D01*
X80030000Y-106050000D02*
X80030000Y-107150000D01*
X80030000Y-107550000D02*
X80030000Y-108650000D01*
X80030000Y-109050000D02*
X80030000Y-110150000D01*
X80030000Y-110550000D02*
X80030000Y-111650000D01*
X80030000Y-112050000D02*
X80030000Y-113150000D01*
X80030000Y-113550000D02*
X80030000Y-114650000D01*
X80030000Y-115050000D02*
X80030000Y-116150000D01*
X80030000Y-116550000D02*
X80030000Y-117650000D01*
X80030000Y-118050000D02*
X80030000Y-119150000D01*
X80030000Y-119550000D02*
X80030000Y-120650000D01*
X80030000Y-121050000D02*
X80030000Y-122150000D01*
X80030000Y-122550000D02*
X80030000Y-123650000D01*
X80030000Y-124050000D02*
X80030000Y-125150000D01*
X80030000Y-125550000D02*
X80030000Y-126650000D01*
X80030000Y-127050000D02*
X80030000Y-128150000D01*
X80030000Y-128550000D02*
X80030000Y-129650000D01*
X80030000Y-130050000D02*
X80030000Y-131150000D01*
X80030000Y-131550000D02*
X80030000Y-132650000D01*
X80030000Y-133050000D02*
X80030000Y-134150000D01*
X80030000Y-134550000D02*
X80030000Y-135650000D01*
X80030000Y-136050000D02*
X80030000Y-136050000D01*
X66785202Y-81646694D02*
X65530000Y-75550000D01*
X61530000Y-84050000D02*
X64826288Y-84050000D01*
X68530000Y-75550000D02*
X64030000Y-75550000D01*
D12*
X61530000Y-75550000D02*
X64030000Y-75550000D01*
D10*
X62030000Y-136050000D02*
X62030000Y-134950000D01*
X62030000Y-134550000D02*
X62030000Y-133450000D01*
X62030000Y-133050000D02*
X62030000Y-131950000D01*
X62030000Y-131550000D02*
X62030000Y-130450000D01*
X62030000Y-130050000D02*
X62030000Y-128950000D01*
X62030000Y-128550000D02*
X62030000Y-127450000D01*
X62030000Y-127050000D02*
X62030000Y-125950000D01*
X62030000Y-125550000D02*
X62030000Y-124450000D01*
X62030000Y-124050000D02*
X62030000Y-122950000D01*
X62030000Y-122550000D02*
X62030000Y-121450000D01*
X62030000Y-121050000D02*
X62030000Y-119950000D01*
X62030000Y-119550000D02*
X62030000Y-118450000D01*
X62030000Y-118050000D02*
X62030000Y-116950000D01*
X62030000Y-116550000D02*
X62030000Y-115450000D01*
X62030000Y-115050000D02*
X62030000Y-113950000D01*
X62030000Y-113550000D02*
X62030000Y-112450000D01*
X62030000Y-112050000D02*
X62030000Y-110950000D01*
X62030000Y-110550000D02*
X62030000Y-109450000D01*
X62030000Y-109050000D02*
X62030000Y-107950000D01*
X62030000Y-107550000D02*
X62030000Y-106450000D01*
X62030000Y-106050000D02*
X62030000Y-104950000D01*
X62030000Y-104550000D02*
X62030000Y-104550000D01*
X80030000Y-136050000D02*
X78930000Y-136050000D01*
X78530000Y-136050000D02*
X77430000Y-136050000D01*
X77030000Y-136050000D02*
X75930000Y-136050000D01*
X75530000Y-136050000D02*
X74430000Y-136050000D01*
X74030000Y-136050000D02*
X72930000Y-136050000D01*
X72530000Y-136050000D02*
X71430000Y-136050000D01*
X71030000Y-136050000D02*
X69930000Y-136050000D01*
X69530000Y-136050000D02*
X68430000Y-136050000D01*
X68030000Y-136050000D02*
X66930000Y-136050000D01*
X66530000Y-136050000D02*
X65430000Y-136050000D01*
X65030000Y-136050000D02*
X63930000Y-136050000D01*
X63530000Y-136050000D02*
X62430000Y-136050000D01*
X62030000Y-136050000D02*
X62030000Y-136050000D01*
D12*
X61530000Y-103550000D02*
X61530000Y-75550000D01*
X61530000Y-139750000D02*
X61530000Y-103550000D01*
X60630000Y-132150000D02*
X61530000Y-132150000D01*
X80530000Y-139750000D02*
X61530000Y-139750000D01*
X61530000Y-124950000D02*
X60630000Y-124950000D01*
X60630000Y-124950000D02*
X60630000Y-132150000D01*
D10*
%TO.C,BT1*%
X125012287Y-150682710D02*
X121012287Y-154682710D01*
X123012287Y-148682710D02*
X125012287Y-150682710D01*
X121012287Y-154682710D02*
X119012287Y-152682710D01*
X119012287Y-152682710D02*
X123012287Y-148682710D01*
D12*
%TO.C,R14*%
X82312287Y-69885210D02*
X79262287Y-69885210D01*
X82312287Y-65585210D02*
X79262287Y-65585210D01*
X79284053Y-69900735D02*
G75*
G02*
X79262287Y-65585210I1528234J2165525D01*
G01*
X82356800Y-65616961D02*
G75*
G02*
X82312287Y-69885210I-1544513J-2118249D01*
G01*
%TO.C,R13*%
X99362287Y-65585210D02*
X102412287Y-65585210D01*
X99362287Y-69885210D02*
X102412287Y-69885210D01*
X102390521Y-65569685D02*
G75*
G02*
X102412287Y-69885210I-1528234J-2165525D01*
G01*
X99317774Y-69853459D02*
G75*
G02*
X99362287Y-65585210I1544513J2118249D01*
G01*
%TO.C,D4*%
X103362287Y-60965210D02*
G75*
G02*
X98362287Y-60965210I-2500000J0D01*
G01*
X98362287Y-60965210D02*
G75*
G02*
X103362287Y-60965210I2500000J0D01*
G01*
X102407117Y-58405210D02*
G75*
G02*
X100861825Y-63955210I-1544830J-2560000D01*
G01*
X100862749Y-63955210D02*
G75*
G02*
X99317457Y-58405210I-462J2990000D01*
G01*
X102407287Y-58405210D02*
X99317287Y-58405210D01*
%TO.C,D5*%
X83312287Y-60965210D02*
G75*
G02*
X78312287Y-60965210I-2500000J0D01*
G01*
X78312287Y-60965210D02*
G75*
G02*
X83312287Y-60965210I2500000J0D01*
G01*
X82357117Y-58405210D02*
G75*
G02*
X80811825Y-63955210I-1544830J-2560000D01*
G01*
X80812749Y-63955210D02*
G75*
G02*
X79267457Y-58405210I-462J2990000D01*
G01*
X82357287Y-58405210D02*
X79267287Y-58405210D01*
%TD*%
%LPC*%
D13*
%TO.C,M2*%
X116793717Y-82480000D03*
X118090000Y-77730000D03*
%TD*%
%TO.C,M1*%
X64826307Y-82050000D03*
X63530000Y-77300000D03*
%TD*%
D14*
%TO.C,H1*%
X90820000Y-64140000D03*
D15*
X90820000Y-64140000D03*
%TD*%
D16*
%TO.C,H2*%
X119330000Y-146730000D03*
%TD*%
D17*
%TO.C,BT1*%
X121012287Y-152682710D03*
D18*
X123012287Y-150682710D03*
D19*
X90427287Y-125182710D03*
D20*
X90427287Y-111182710D03*
%TD*%
D21*
%TO.C,R14*%
X79112287Y-67735210D03*
X82512287Y-67735210D03*
%TD*%
%TO.C,R13*%
X102562287Y-67735210D03*
X99162287Y-67735210D03*
%TD*%
D22*
%TO.C,U1*%
X86312287Y-137985210D03*
D23*
X86312287Y-140525210D03*
X86312287Y-143065210D03*
X86312287Y-145605210D03*
X93932287Y-145605210D03*
X93932287Y-143065210D03*
X93932287Y-140525210D03*
X93932287Y-137985210D03*
%TD*%
D24*
%TO.C,R12*%
X73812287Y-73235210D03*
X66192287Y-73235210D03*
%TD*%
D25*
%TO.C,Q1*%
X96420000Y-83640000D03*
D26*
X98490000Y-85910000D03*
D27*
X96420000Y-88140000D03*
%TD*%
D28*
%TO.C,D2*%
X57487287Y-71385210D03*
D29*
X60027287Y-71385210D03*
%TD*%
D30*
%TO.C,SW1*%
X87812287Y-152185210D03*
D31*
X90312287Y-152185210D03*
X92812287Y-152185210D03*
X92812287Y-158385210D03*
X90312287Y-158385210D03*
X87812287Y-158385210D03*
%TD*%
D24*
%TO.C,R10*%
X94562287Y-96485210D03*
X86942287Y-96485210D03*
%TD*%
%TO.C,R11*%
X107252287Y-73235210D03*
X114872287Y-73235210D03*
%TD*%
%TO.C,R3*%
X94252287Y-77735210D03*
X101872287Y-77735210D03*
%TD*%
D32*
%TO.C,R1*%
X109774787Y-154135210D03*
D33*
X115174787Y-151235210D03*
D34*
X109774787Y-148335210D03*
%TD*%
D27*
%TO.C,Q2*%
X84400000Y-87985210D03*
D26*
X86470000Y-85755210D03*
D25*
X84400000Y-83485210D03*
%TD*%
D24*
%TO.C,R9*%
X94562287Y-91735210D03*
X86942287Y-91735210D03*
%TD*%
%TO.C,R4*%
X79002287Y-77735210D03*
X86622287Y-77735210D03*
%TD*%
D32*
%TO.C,R2*%
X71562287Y-148335210D03*
D33*
X66162287Y-151235210D03*
D34*
X71562287Y-154135210D03*
%TD*%
D35*
%TO.C,C2*%
X74080000Y-64230000D03*
D36*
X74080000Y-61730000D03*
%TD*%
D24*
%TO.C,R8*%
X86622287Y-73235210D03*
X79002287Y-73235210D03*
%TD*%
%TO.C,R5*%
X107252287Y-69485210D03*
X114872287Y-69485210D03*
%TD*%
D35*
%TO.C,C1*%
X107550000Y-64110000D03*
D36*
X107550000Y-61610000D03*
%TD*%
D28*
%TO.C,D1*%
X124262287Y-71385210D03*
D29*
X121722287Y-71385210D03*
%TD*%
D24*
%TO.C,R6*%
X66192287Y-69485210D03*
X73812287Y-69485210D03*
%TD*%
%TO.C,R7*%
X94252287Y-73235210D03*
X101872287Y-73235210D03*
%TD*%
D29*
%TO.C,D4*%
X100862287Y-62235210D03*
D28*
X100862287Y-59695210D03*
%TD*%
D29*
%TO.C,D5*%
X80812287Y-62235210D03*
D28*
X80812287Y-59695210D03*
%TD*%
%LPD*%
M02*
