M48
; DRILL file {KiCad 8.0.2} date 2024-05-30T02:20:03-0400
; FORMAT={-:-/ absolute / metric / decimal}
; #@! TF.CreationDate,2024-05-30T02:20:03-04:00
; #@! TF.GenerationSoftware,Kicad,Pcbnew,8.0.2
; #@! TF.FileFunction,Plated,1,2,PTH
FMAT,2
METRIC
; #@! TA.AperFunction,Plated,PTH,ComponentDrill
T1C0.750
; #@! TA.AperFunction,Plated,PTH,ComponentDrill
T2C0.800
; #@! TA.AperFunction,Plated,PTH,ComponentDrill
T3C0.900
; #@! TA.AperFunction,Plated,PTH,ComponentDrill
T4C1.000
; #@! TA.AperFunction,Plated,PTH,ComponentDrill
T5C5.000
%
G90
G05
T1
X84.8Y-83.485
X84.8Y-87.985
X86.07Y-85.755
X96.82Y-83.64
X96.82Y-88.14
X98.09Y-85.91
T2
X66.192Y-69.485
X66.192Y-73.235
X73.812Y-69.485
X73.812Y-73.235
X74.08Y-61.73
X74.08Y-64.23
X79.002Y-73.235
X79.002Y-77.735
X79.112Y-67.735
X82.512Y-67.735
X86.312Y-137.985
X86.312Y-140.525
X86.312Y-143.065
X86.312Y-145.605
X86.622Y-73.235
X86.622Y-77.735
X86.942Y-91.735
X86.942Y-96.485
X87.812Y-152.585
X87.812Y-157.985
X90.312Y-152.585
X90.312Y-157.985
X92.812Y-152.585
X92.812Y-157.985
X93.932Y-137.985
X93.932Y-140.525
X93.932Y-143.065
X93.932Y-145.605
X94.252Y-73.235
X94.252Y-77.735
X94.562Y-91.735
X94.562Y-96.485
X99.162Y-67.735
X101.872Y-73.235
X101.872Y-77.735
X102.562Y-67.735
X107.252Y-69.485
X107.252Y-73.235
X107.55Y-61.61
X107.55Y-64.11
X114.872Y-69.485
X114.872Y-73.235
T3
X57.487Y-71.385
X60.027Y-71.385
X80.812Y-59.695
X80.812Y-62.235
X100.862Y-59.695
X100.862Y-62.235
X121.722Y-71.385
X124.262Y-71.385
T4
X66.562Y-151.235
X71.562Y-148.735
X71.562Y-153.735
X109.775Y-148.735
X109.775Y-153.735
X114.775Y-151.235
T5
X90.82Y-64.14
M30
