%TF.GenerationSoftware,KiCad,Pcbnew,8.0.2*%
%TF.CreationDate,2024-05-30T02:19:43-04:00*%
%TF.ProjectId,Line-following-learn-to-solder-kit,4c696e65-2d66-46f6-9c6c-6f77696e672d,0*%
%TF.SameCoordinates,Original*%
%TF.FileFunction,Copper,L1,Top*%
%TF.FilePolarity,Positive*%
%FSLAX46Y46*%
G04 Gerber Fmt 4.6, Leading zero omitted, Abs format (unit mm)*
G04 Created by KiCad (PCBNEW 8.0.2) date 2024-05-30 02:19:43*
%MOMM*%
%LPD*%
G01*
G04 APERTURE LIST*
G04 Aperture macros list*
%AMRoundRect*
0 Rectangle with rounded corners*
0 $1 Rounding radius*
0 $2 $3 $4 $5 $6 $7 $8 $9 X,Y pos of 4 corners*
0 Add a 4 corners polygon primitive as box body*
4,1,4,$2,$3,$4,$5,$6,$7,$8,$9,$2,$3,0*
0 Add four circle primitives for the rounded corners*
1,1,$1+$1,$2,$3*
1,1,$1+$1,$4,$5*
1,1,$1+$1,$6,$7*
1,1,$1+$1,$8,$9*
0 Add four rect primitives between the rounded corners*
20,1,$1+$1,$2,$3,$4,$5,0*
20,1,$1+$1,$4,$5,$6,$7,0*
20,1,$1+$1,$6,$7,$8,$9,0*
20,1,$1+$1,$8,$9,$2,$3,0*%
G04 Aperture macros list end*
%TA.AperFunction,ConnectorPad*%
%ADD10C,10.000000*%
%TD*%
%TA.AperFunction,ComponentPad*%
%ADD11C,5.400000*%
%TD*%
%TA.AperFunction,ComponentPad*%
%ADD12O,1.800000X2.200000*%
%TD*%
%TA.AperFunction,ComponentPad*%
%ADD13R,2.400000X1.600000*%
%TD*%
%TA.AperFunction,ComponentPad*%
%ADD14O,2.400000X1.600000*%
%TD*%
%TA.AperFunction,ComponentPad*%
%ADD15C,2.200000*%
%TD*%
%TA.AperFunction,ComponentPad*%
%ADD16R,2.200000X1.800000*%
%TD*%
%TA.AperFunction,ComponentPad*%
%ADD17RoundRect,0.450000X-0.550000X0.450000X-0.550000X-0.450000X0.550000X-0.450000X0.550000X0.450000X0*%
%TD*%
%TA.AperFunction,ComponentPad*%
%ADD18RoundRect,0.450000X-0.650000X0.450000X-0.650000X-0.450000X0.650000X-0.450000X0.650000X0.450000X0*%
%TD*%
%TA.AperFunction,ComponentPad*%
%ADD19R,1.800000X1.800000*%
%TD*%
%TA.AperFunction,ComponentPad*%
%ADD20C,1.800000*%
%TD*%
%TA.AperFunction,ComponentPad*%
%ADD21RoundRect,0.225000X-0.675000X-0.775000X0.675000X-0.775000X0.675000X0.775000X-0.675000X0.775000X0*%
%TD*%
%TA.AperFunction,ComponentPad*%
%ADD22O,1.800000X2.000000*%
%TD*%
%TA.AperFunction,ComponentPad*%
%ADD23R,2.200000X2.500000*%
%TD*%
%TA.AperFunction,ComponentPad*%
%ADD24O,2.500000X2.200000*%
%TD*%
%TA.AperFunction,ComponentPad*%
%ADD25O,2.200000X2.500000*%
%TD*%
%TA.AperFunction,ComponentPad*%
%ADD26R,1.600000X1.600000*%
%TD*%
%TA.AperFunction,ComponentPad*%
%ADD27C,1.600000*%
%TD*%
G04 APERTURE END LIST*
D10*
%TO.P,H1,1*%
%TO.N,N/C*%
X90820000Y-64140000D03*
D11*
X90820000Y-64140000D03*
%TD*%
D12*
%TO.P,R14,1*%
%TO.N,Net-(R14-Pad1)*%
X79112287Y-67735210D03*
%TO.P,R14,2*%
%TO.N,Net-(D1-K)*%
X82512287Y-67735210D03*
%TD*%
%TO.P,R13,1*%
%TO.N,Net-(R13-Pad1)*%
X102562287Y-67735210D03*
%TO.P,R13,2*%
%TO.N,Net-(D1-K)*%
X99162287Y-67735210D03*
%TD*%
D13*
%TO.P,U1,1*%
%TO.N,Net-(R9-Pad2)*%
X86312287Y-137985210D03*
D14*
%TO.P,U1,2,-*%
%TO.N,Net-(U1A--)*%
X86312287Y-140525210D03*
%TO.P,U1,3,+*%
%TO.N,Net-(U1A-+)*%
X86312287Y-143065210D03*
%TO.P,U1,4,V-*%
%TO.N,Net-(D1-K)*%
X86312287Y-145605210D03*
%TO.P,U1,5,+*%
%TO.N,Net-(U1A--)*%
X93932287Y-145605210D03*
%TO.P,U1,6,-*%
%TO.N,Net-(U1A-+)*%
X93932287Y-143065210D03*
%TO.P,U1,7*%
%TO.N,Net-(R10-Pad1)*%
X93932287Y-140525210D03*
%TO.P,U1,8,V+*%
%TO.N,Net-(BT1-+)*%
X93932287Y-137985210D03*
%TD*%
D15*
%TO.P,R12,1*%
%TO.N,Net-(M1--)*%
X73812287Y-73235210D03*
%TO.P,R12,2*%
%TO.N,Net-(D2-A)*%
X66192287Y-73235210D03*
%TD*%
D16*
%TO.P,Q1,1,E*%
%TO.N,Net-(BT1-+)*%
X96420000Y-83640000D03*
D17*
%TO.P,Q1,2,B*%
%TO.N,Net-(Q1-B)*%
X98490000Y-85910000D03*
D18*
%TO.P,Q1,3,C*%
%TO.N,Net-(M2--)*%
X96420000Y-88140000D03*
%TD*%
D19*
%TO.P,D2,1,K*%
%TO.N,Net-(D1-K)*%
X57487287Y-71385210D03*
D20*
%TO.P,D2,2,A*%
%TO.N,Net-(D2-A)*%
X60027287Y-71385210D03*
%TD*%
D21*
%TO.P,SW1,1,A*%
%TO.N,unconnected-(SW1-A-Pad1)*%
X87812287Y-152185210D03*
D22*
%TO.P,SW1,2,B*%
%TO.N,Net-(D1-K)*%
X90312287Y-152185210D03*
%TO.P,SW1,3,C*%
%TO.N,Net-(BT1--)*%
X92812287Y-152185210D03*
%TO.P,SW1,4,A*%
%TO.N,unconnected-(SW1-A-Pad4)*%
X92812287Y-158385210D03*
%TO.P,SW1,5,B*%
%TO.N,unconnected-(SW1-B-Pad5)*%
X90312287Y-158385210D03*
%TO.P,SW1,6,C*%
%TO.N,unconnected-(SW1-C-Pad6)*%
X87812287Y-158385210D03*
%TD*%
D15*
%TO.P,R10,1*%
%TO.N,Net-(R10-Pad1)*%
X94562287Y-96485210D03*
%TO.P,R10,2*%
%TO.N,Net-(Q2-B)*%
X86942287Y-96485210D03*
%TD*%
%TO.P,R11,1*%
%TO.N,Net-(M2--)*%
X107252287Y-73235210D03*
%TO.P,R11,2*%
%TO.N,Net-(D1-A)*%
X114872287Y-73235210D03*
%TD*%
%TO.P,R3,1*%
%TO.N,Net-(Q1-B)*%
X94252287Y-77735210D03*
%TO.P,R3,2*%
%TO.N,Net-(BT1-+)*%
X101872287Y-77735210D03*
%TD*%
D23*
%TO.P,R1,1,1*%
%TO.N,Net-(BT1-+)*%
X109774787Y-154135210D03*
D24*
%TO.P,R1,2,2*%
X115174787Y-151235210D03*
D25*
%TO.P,R1,3,3*%
%TO.N,Net-(U1A-+)*%
X109774787Y-148335210D03*
%TD*%
D18*
%TO.P,Q2,3,C*%
%TO.N,Net-(M1--)*%
X84400000Y-87985210D03*
D17*
%TO.P,Q2,2,B*%
%TO.N,Net-(Q2-B)*%
X86470000Y-85755210D03*
D16*
%TO.P,Q2,1,E*%
%TO.N,Net-(BT1-+)*%
X84400000Y-83485210D03*
%TD*%
D15*
%TO.P,R9,1*%
%TO.N,Net-(Q1-B)*%
X94562287Y-91735210D03*
%TO.P,R9,2*%
%TO.N,Net-(R9-Pad2)*%
X86942287Y-91735210D03*
%TD*%
%TO.P,R4,1*%
%TO.N,Net-(BT1-+)*%
X79002287Y-77735210D03*
%TO.P,R4,2*%
%TO.N,Net-(Q2-B)*%
X86622287Y-77735210D03*
%TD*%
D23*
%TO.P,R2,1,1*%
%TO.N,Net-(U1A--)*%
X71562287Y-148335210D03*
D24*
%TO.P,R2,2,2*%
%TO.N,Net-(BT1-+)*%
X66162287Y-151235210D03*
D25*
%TO.P,R2,3,3*%
X71562287Y-154135210D03*
%TD*%
D26*
%TO.P,C2,1*%
%TO.N,Net-(D5-A)*%
X74080000Y-64230000D03*
D27*
%TO.P,C2,2*%
%TO.N,Net-(D1-K)*%
X74080000Y-61730000D03*
%TD*%
D15*
%TO.P,R8,1*%
%TO.N,Net-(U1A--)*%
X86622287Y-73235210D03*
%TO.P,R8,2*%
%TO.N,Net-(R14-Pad1)*%
X79002287Y-73235210D03*
%TD*%
%TO.P,R5,1*%
%TO.N,Net-(D4-A)*%
X107252287Y-69485210D03*
%TO.P,R5,2*%
%TO.N,Net-(BT1-+)*%
X114872287Y-69485210D03*
%TD*%
D26*
%TO.P,C1,1*%
%TO.N,Net-(D4-A)*%
X107550000Y-64110000D03*
D27*
%TO.P,C1,2*%
%TO.N,Net-(D1-K)*%
X107550000Y-61610000D03*
%TD*%
D19*
%TO.P,D1,1,K*%
%TO.N,Net-(D1-K)*%
X124262287Y-71385210D03*
D20*
%TO.P,D1,2,A*%
%TO.N,Net-(D1-A)*%
X121722287Y-71385210D03*
%TD*%
D15*
%TO.P,R6,1*%
%TO.N,Net-(D5-A)*%
X66192287Y-69485210D03*
%TO.P,R6,2*%
%TO.N,Net-(BT1-+)*%
X73812287Y-69485210D03*
%TD*%
%TO.P,R7,1*%
%TO.N,Net-(U1A-+)*%
X94252287Y-73235210D03*
%TO.P,R7,2*%
%TO.N,Net-(R13-Pad1)*%
X101872287Y-73235210D03*
%TD*%
D20*
%TO.P,D4,2,A*%
%TO.N,Net-(D4-A)*%
X100862287Y-62235210D03*
D19*
%TO.P,D4,1,K*%
%TO.N,Net-(D1-K)*%
X100862287Y-59695210D03*
%TD*%
D20*
%TO.P,D5,2,A*%
%TO.N,Net-(D5-A)*%
X80812287Y-62235210D03*
D19*
%TO.P,D5,1,K*%
%TO.N,Net-(D1-K)*%
X80812287Y-59695210D03*
%TD*%
M02*
