%TF.GenerationSoftware,KiCad,Pcbnew,8.0.2*%
%TF.CreationDate,2024-05-30T02:20:04-04:00*%
%TF.ProjectId,Line-following-learn-to-solder-kit,4c696e65-2d66-46f6-9c6c-6f77696e672d,0*%
%TF.SameCoordinates,Original*%
%TF.FileFunction,Drillmap*%
%TF.FilePolarity,Positive*%
%FSLAX45Y45*%
G04 Gerber Fmt 4.5, Leading zero omitted, Abs format (unit mm)*
G04 Created by KiCad (PCBNEW 8.0.2) date 2024-05-30 02:20:04*
%MOMM*%
%LPD*%
G01*
G04 APERTURE LIST*
%ADD10C,0.010123*%
%ADD11C,0.200000*%
%ADD12C,0.100000*%
%ADD13C,0.500000*%
G04 APERTURE END LIST*
D10*
X9199335Y-5585457D02*
X9313416Y-5589573D01*
X9423342Y-5596090D01*
X9528982Y-5604726D01*
X9630207Y-5615200D01*
X9726887Y-5627230D01*
X9818892Y-5640536D01*
X9906093Y-5654835D01*
X10065562Y-5685290D01*
X10204257Y-5716345D01*
X10321138Y-5745749D01*
X10415167Y-5771250D01*
X10491872Y-5793867D01*
X10597782Y-5827753D01*
X10728209Y-5872309D01*
X10878461Y-5926934D01*
X11043850Y-5991025D01*
X11219684Y-6063984D01*
X11401275Y-6145207D01*
X11583932Y-6234095D01*
X11668254Y-6277697D01*
X11749435Y-6320965D01*
X11827484Y-6363857D01*
X11902414Y-6406333D01*
X11974236Y-6448351D01*
X12042960Y-6489871D01*
X12108599Y-6530852D01*
X12171162Y-6571253D01*
X12230661Y-6611033D01*
X12287108Y-6650150D01*
X12340514Y-6688564D01*
X12390889Y-6726233D01*
X12438246Y-6763118D01*
X12482594Y-6799176D01*
X12523946Y-6834367D01*
X12562312Y-6868650D01*
X12573141Y-6879038D01*
X12583289Y-6889686D01*
X12592778Y-6900567D01*
X12601630Y-6911657D01*
X12609868Y-6922931D01*
X12617512Y-6934363D01*
X12624586Y-6945929D01*
X12631111Y-6957603D01*
X12637110Y-6969360D01*
X12642605Y-6981176D01*
X12652171Y-7004881D01*
X12659986Y-7028518D01*
X12666226Y-7051885D01*
X12671069Y-7074782D01*
X12674692Y-7097009D01*
X12677272Y-7118364D01*
X12678986Y-7138647D01*
X12680524Y-7175192D01*
X12680722Y-7205040D01*
X12679912Y-7224483D01*
X12677372Y-7245677D01*
X12672937Y-7268308D01*
X12666442Y-7292064D01*
X12657721Y-7316631D01*
X12646608Y-7341696D01*
X12632940Y-7366945D01*
X12616549Y-7392067D01*
X12607282Y-7404482D01*
X12597272Y-7416748D01*
X12586499Y-7428825D01*
X12574942Y-7440674D01*
X12562581Y-7452256D01*
X12549394Y-7463533D01*
X12535362Y-7474464D01*
X12520464Y-7485011D01*
X12504678Y-7495135D01*
X12487985Y-7504796D01*
X12470363Y-7513955D01*
X12451792Y-7522574D01*
X12432252Y-7530613D01*
X12411721Y-7538032D01*
X12390179Y-7544794D01*
X12367605Y-7550858D01*
X12324505Y-7562228D01*
X12301467Y-7569365D01*
X12277777Y-7577864D01*
X12253690Y-7588023D01*
X12229461Y-7600135D01*
X12205345Y-7614499D01*
X12181597Y-7631409D01*
X12169941Y-7640911D01*
X12158472Y-7651161D01*
X12147223Y-7662195D01*
X12136225Y-7674051D01*
X12125511Y-7686766D01*
X12115111Y-7700376D01*
X12105058Y-7714919D01*
X12095385Y-7730431D01*
X12086122Y-7746950D01*
X12077302Y-7764512D01*
X12068956Y-7783155D01*
X12061116Y-7802915D01*
X12053815Y-7823830D01*
X12047084Y-7845936D01*
X12040955Y-7869271D01*
X12035460Y-7893871D01*
X12035460Y-7893872D01*
X12031591Y-7915061D01*
X12028296Y-7937742D01*
X12025531Y-7961707D01*
X12023250Y-7986745D01*
X12019963Y-8039207D01*
X12018077Y-8093453D01*
X12017233Y-8147811D01*
X12017074Y-8200606D01*
X12017376Y-8294812D01*
X12017376Y-14224623D01*
X12017642Y-14234967D01*
X12018429Y-14245177D01*
X12019726Y-14255237D01*
X12021519Y-14265137D01*
X12023795Y-14274863D01*
X12026543Y-14284402D01*
X12029748Y-14293743D01*
X12033399Y-14302872D01*
X12037482Y-14311777D01*
X12041985Y-14320445D01*
X12046895Y-14328863D01*
X12052198Y-14337020D01*
X12057883Y-14344902D01*
X12063935Y-14352496D01*
X12070344Y-14359790D01*
X12077095Y-14366772D01*
X12084176Y-14373428D01*
X12091574Y-14379747D01*
X12099277Y-14385715D01*
X12107271Y-14391319D01*
X12115543Y-14396549D01*
X12124082Y-14401389D01*
X12132873Y-14405829D01*
X12141905Y-14409854D01*
X12151164Y-14413454D01*
X12160637Y-14416615D01*
X12170313Y-14419324D01*
X12180177Y-14421568D01*
X12190218Y-14423336D01*
X12200422Y-14424615D01*
X12210777Y-14425391D01*
X12221269Y-14425653D01*
X12476829Y-14425654D01*
X12487321Y-14425916D01*
X12497676Y-14426692D01*
X12507880Y-14427971D01*
X12517921Y-14429738D01*
X12527785Y-14431983D01*
X12537460Y-14434692D01*
X12546934Y-14437853D01*
X12556193Y-14441452D01*
X12565225Y-14445478D01*
X12574016Y-14449918D01*
X12582554Y-14454759D01*
X12590827Y-14459988D01*
X12598821Y-14465593D01*
X12606523Y-14471561D01*
X12613921Y-14477879D01*
X12621002Y-14484536D01*
X12627753Y-14491517D01*
X12634162Y-14498812D01*
X12640214Y-14506406D01*
X12645899Y-14514288D01*
X12651202Y-14522444D01*
X12656112Y-14530863D01*
X12660614Y-14539531D01*
X12664697Y-14548436D01*
X12668348Y-14557565D01*
X12671554Y-14566906D01*
X12674301Y-14576445D01*
X12676578Y-14586171D01*
X12678371Y-14596071D01*
X12679667Y-14606132D01*
X12680455Y-14616341D01*
X12680720Y-14626686D01*
X12680720Y-15812054D01*
X12680455Y-15822398D01*
X12679667Y-15832606D01*
X12678371Y-15842666D01*
X12676577Y-15852564D01*
X12674301Y-15862289D01*
X12671553Y-15871827D01*
X12668347Y-15881167D01*
X12664696Y-15890294D01*
X12660613Y-15899198D01*
X12656110Y-15907864D01*
X12651200Y-15916281D01*
X12645896Y-15924436D01*
X12640211Y-15932316D01*
X12634158Y-15939909D01*
X12627750Y-15947201D01*
X12620998Y-15954181D01*
X12613917Y-15960835D01*
X12606519Y-15967152D01*
X12598816Y-15973117D01*
X12590822Y-15978720D01*
X12582550Y-15983947D01*
X12574011Y-15988785D01*
X12565220Y-15993222D01*
X12556189Y-15997245D01*
X12546930Y-16000842D01*
X12537456Y-16004000D01*
X12527781Y-16006706D01*
X12517917Y-16008948D01*
X12507877Y-16010713D01*
X12497674Y-16011988D01*
X12487320Y-16012762D01*
X12476829Y-16013020D01*
X9081228Y-16011965D01*
X5685627Y-16013020D01*
X5675136Y-16012762D01*
X5664782Y-16011988D01*
X5654579Y-16010713D01*
X5644539Y-16008948D01*
X5634675Y-16006706D01*
X5625000Y-16004000D01*
X5615527Y-16000842D01*
X5606268Y-15997245D01*
X5597236Y-15993222D01*
X5588445Y-15988785D01*
X5579907Y-15983947D01*
X5571634Y-15978720D01*
X5563640Y-15973117D01*
X5555938Y-15967152D01*
X5548539Y-15960835D01*
X5541458Y-15954181D01*
X5534707Y-15947201D01*
X5528298Y-15939909D01*
X5522245Y-15932316D01*
X5516560Y-15924436D01*
X5511256Y-15916281D01*
X5506346Y-15907864D01*
X5501843Y-15899198D01*
X5497760Y-15890294D01*
X5494109Y-15881167D01*
X5490903Y-15871827D01*
X5488155Y-15862289D01*
X5485878Y-15852564D01*
X5484085Y-15842666D01*
X5482788Y-15832606D01*
X5482001Y-15822398D01*
X5481736Y-15812054D01*
X5481736Y-14626686D01*
X5482001Y-14616341D01*
X5482788Y-14606132D01*
X5484085Y-14596071D01*
X5485878Y-14586171D01*
X5488155Y-14576445D01*
X5490902Y-14566906D01*
X5494108Y-14557565D01*
X5497759Y-14548436D01*
X5501842Y-14539531D01*
X5506344Y-14530863D01*
X5511254Y-14522444D01*
X5516557Y-14514288D01*
X5522242Y-14506406D01*
X5528295Y-14498812D01*
X5534703Y-14491517D01*
X5541454Y-14484536D01*
X5548535Y-14477879D01*
X5555933Y-14471561D01*
X5563636Y-14465593D01*
X5571630Y-14459988D01*
X5579902Y-14454759D01*
X5588441Y-14449918D01*
X5597232Y-14445478D01*
X5606264Y-14441452D01*
X5615523Y-14437853D01*
X5624996Y-14434692D01*
X5634672Y-14431983D01*
X5644536Y-14429738D01*
X5654577Y-14427971D01*
X5664781Y-14426692D01*
X5675135Y-14425916D01*
X5685627Y-14425654D01*
X5941187Y-14425653D01*
X5951679Y-14425391D01*
X5962034Y-14424615D01*
X5972238Y-14423336D01*
X5982278Y-14421568D01*
X5992143Y-14419324D01*
X6001818Y-14416615D01*
X6011292Y-14413454D01*
X6020551Y-14409854D01*
X6029583Y-14405829D01*
X6038374Y-14401389D01*
X6046913Y-14396549D01*
X6055185Y-14391319D01*
X6063179Y-14385715D01*
X6070882Y-14379747D01*
X6078280Y-14373428D01*
X6085361Y-14366772D01*
X6092112Y-14359790D01*
X6098520Y-14352496D01*
X6104573Y-14344902D01*
X6110258Y-14337020D01*
X6115561Y-14328863D01*
X6120471Y-14320445D01*
X6124973Y-14311777D01*
X6129057Y-14302872D01*
X6132707Y-14293743D01*
X6135913Y-14284402D01*
X6138660Y-14274863D01*
X6140937Y-14265137D01*
X6142730Y-14255237D01*
X6144027Y-14245177D01*
X6144814Y-14234967D01*
X6145079Y-14224623D01*
X6145079Y-8294812D01*
X6145382Y-8200606D01*
X6145222Y-8147811D01*
X6144378Y-8093453D01*
X6142492Y-8039207D01*
X6139204Y-7986745D01*
X6136924Y-7961707D01*
X6134158Y-7937742D01*
X6130864Y-7915061D01*
X6126995Y-7893872D01*
X6126995Y-7893871D01*
X6121500Y-7869271D01*
X6115371Y-7845936D01*
X6108640Y-7823830D01*
X6101339Y-7802915D01*
X6093499Y-7783155D01*
X6085153Y-7764512D01*
X6076333Y-7746950D01*
X6067070Y-7730431D01*
X6057397Y-7714919D01*
X6047344Y-7700376D01*
X6036945Y-7686766D01*
X6026230Y-7674051D01*
X6015232Y-7662195D01*
X6003983Y-7651161D01*
X5992514Y-7640911D01*
X5980858Y-7631409D01*
X5957110Y-7614499D01*
X5932994Y-7600135D01*
X5908765Y-7588023D01*
X5884678Y-7577864D01*
X5860988Y-7569365D01*
X5837951Y-7562228D01*
X5794851Y-7550858D01*
X5772278Y-7544794D01*
X5750736Y-7538032D01*
X5730205Y-7530613D01*
X5710664Y-7522574D01*
X5692094Y-7513955D01*
X5674472Y-7504796D01*
X5657779Y-7495135D01*
X5641993Y-7485011D01*
X5627095Y-7474464D01*
X5613063Y-7463533D01*
X5599876Y-7452256D01*
X5587515Y-7440674D01*
X5575958Y-7428825D01*
X5565185Y-7416748D01*
X5555175Y-7404482D01*
X5545908Y-7392067D01*
X5529518Y-7366945D01*
X5515849Y-7341696D01*
X5504737Y-7316631D01*
X5496015Y-7292064D01*
X5489520Y-7268308D01*
X5485085Y-7245677D01*
X5482546Y-7224483D01*
X5481736Y-7205040D01*
X5481933Y-7175192D01*
X5483468Y-7138647D01*
X5485181Y-7118364D01*
X5487759Y-7097009D01*
X5491381Y-7074782D01*
X5496223Y-7051885D01*
X5502463Y-7028518D01*
X5510277Y-7004881D01*
X5519842Y-6981176D01*
X5525337Y-6969360D01*
X5531337Y-6957603D01*
X5537863Y-6945929D01*
X5544937Y-6934363D01*
X5552582Y-6922931D01*
X5560820Y-6911657D01*
X5569674Y-6900567D01*
X5579164Y-6889686D01*
X5589314Y-6879038D01*
X5600145Y-6868650D01*
X5638511Y-6834367D01*
X5679863Y-6799176D01*
X5724211Y-6763118D01*
X5771567Y-6726233D01*
X5821943Y-6688564D01*
X5875349Y-6650150D01*
X5931796Y-6611033D01*
X5991295Y-6571253D01*
X6053859Y-6530852D01*
X6119497Y-6489871D01*
X6188221Y-6448351D01*
X6260043Y-6406333D01*
X6334973Y-6363857D01*
X6413022Y-6320965D01*
X6494202Y-6277697D01*
X6578524Y-6234095D01*
X6761181Y-6145207D01*
X6942772Y-6063984D01*
X7118606Y-5991025D01*
X7283995Y-5926934D01*
X7434247Y-5872309D01*
X7564674Y-5827753D01*
X7670584Y-5793867D01*
X7747289Y-5771250D01*
X7841318Y-5745749D01*
X7958199Y-5716345D01*
X8096894Y-5685290D01*
X8256363Y-5654835D01*
X8343564Y-5640536D01*
X8435570Y-5627230D01*
X8532250Y-5615200D01*
X8633475Y-5604726D01*
X8739115Y-5596090D01*
X8849040Y-5589573D01*
X8963121Y-5585457D01*
X9081228Y-5584022D01*
X9199335Y-5585457D01*
D11*
D12*
X8442500Y-8311021D02*
X8517500Y-8386021D01*
X8517500Y-8311021D02*
X8442500Y-8386021D01*
X8442500Y-8761021D02*
X8517500Y-8836021D01*
X8517500Y-8761021D02*
X8442500Y-8836021D01*
X8569500Y-8538021D02*
X8644500Y-8613021D01*
X8644500Y-8538021D02*
X8569500Y-8613021D01*
X9644500Y-8326500D02*
X9719500Y-8401500D01*
X9719500Y-8326500D02*
X9644500Y-8401500D01*
X9644500Y-8776500D02*
X9719500Y-8851500D01*
X9719500Y-8776500D02*
X9644500Y-8851500D01*
X9771500Y-8553500D02*
X9846500Y-8628500D01*
X9846500Y-8553500D02*
X9771500Y-8628500D01*
X6659229Y-6948521D02*
G75*
G02*
X6579229Y-6948521I-40000J0D01*
G01*
X6579229Y-6948521D02*
G75*
G02*
X6659229Y-6948521I40000J0D01*
G01*
X6659229Y-7323521D02*
G75*
G02*
X6579229Y-7323521I-40000J0D01*
G01*
X6579229Y-7323521D02*
G75*
G02*
X6659229Y-7323521I40000J0D01*
G01*
X7421229Y-6948521D02*
G75*
G02*
X7341229Y-6948521I-40000J0D01*
G01*
X7341229Y-6948521D02*
G75*
G02*
X7421229Y-6948521I40000J0D01*
G01*
X7421229Y-7323521D02*
G75*
G02*
X7341229Y-7323521I-40000J0D01*
G01*
X7341229Y-7323521D02*
G75*
G02*
X7421229Y-7323521I40000J0D01*
G01*
X7448000Y-6173000D02*
G75*
G02*
X7368000Y-6173000I-40000J0D01*
G01*
X7368000Y-6173000D02*
G75*
G02*
X7448000Y-6173000I40000J0D01*
G01*
X7448000Y-6423000D02*
G75*
G02*
X7368000Y-6423000I-40000J0D01*
G01*
X7368000Y-6423000D02*
G75*
G02*
X7448000Y-6423000I40000J0D01*
G01*
X7940229Y-7323521D02*
G75*
G02*
X7860229Y-7323521I-40000J0D01*
G01*
X7860229Y-7323521D02*
G75*
G02*
X7940229Y-7323521I40000J0D01*
G01*
X7940229Y-7773521D02*
G75*
G02*
X7860229Y-7773521I-40000J0D01*
G01*
X7860229Y-7773521D02*
G75*
G02*
X7940229Y-7773521I40000J0D01*
G01*
X7951229Y-6773521D02*
G75*
G02*
X7871229Y-6773521I-40000J0D01*
G01*
X7871229Y-6773521D02*
G75*
G02*
X7951229Y-6773521I40000J0D01*
G01*
X8291229Y-6773521D02*
G75*
G02*
X8211229Y-6773521I-40000J0D01*
G01*
X8211229Y-6773521D02*
G75*
G02*
X8291229Y-6773521I40000J0D01*
G01*
X8671229Y-13798521D02*
G75*
G02*
X8591229Y-13798521I-40000J0D01*
G01*
X8591229Y-13798521D02*
G75*
G02*
X8671229Y-13798521I40000J0D01*
G01*
X8671229Y-14052521D02*
G75*
G02*
X8591229Y-14052521I-40000J0D01*
G01*
X8591229Y-14052521D02*
G75*
G02*
X8671229Y-14052521I40000J0D01*
G01*
X8671229Y-14306521D02*
G75*
G02*
X8591229Y-14306521I-40000J0D01*
G01*
X8591229Y-14306521D02*
G75*
G02*
X8671229Y-14306521I40000J0D01*
G01*
X8671229Y-14560521D02*
G75*
G02*
X8591229Y-14560521I-40000J0D01*
G01*
X8591229Y-14560521D02*
G75*
G02*
X8671229Y-14560521I40000J0D01*
G01*
X8702229Y-7323521D02*
G75*
G02*
X8622229Y-7323521I-40000J0D01*
G01*
X8622229Y-7323521D02*
G75*
G02*
X8702229Y-7323521I40000J0D01*
G01*
X8702229Y-7773521D02*
G75*
G02*
X8622229Y-7773521I-40000J0D01*
G01*
X8622229Y-7773521D02*
G75*
G02*
X8702229Y-7773521I40000J0D01*
G01*
X8734229Y-9173521D02*
G75*
G02*
X8654229Y-9173521I-40000J0D01*
G01*
X8654229Y-9173521D02*
G75*
G02*
X8734229Y-9173521I40000J0D01*
G01*
X8734229Y-9648521D02*
G75*
G02*
X8654229Y-9648521I-40000J0D01*
G01*
X8654229Y-9648521D02*
G75*
G02*
X8734229Y-9648521I40000J0D01*
G01*
X8821229Y-15258521D02*
G75*
G02*
X8741229Y-15258521I-40000J0D01*
G01*
X8741229Y-15258521D02*
G75*
G02*
X8821229Y-15258521I40000J0D01*
G01*
X8821229Y-15798521D02*
G75*
G02*
X8741229Y-15798521I-40000J0D01*
G01*
X8741229Y-15798521D02*
G75*
G02*
X8821229Y-15798521I40000J0D01*
G01*
X9071229Y-15258521D02*
G75*
G02*
X8991229Y-15258521I-40000J0D01*
G01*
X8991229Y-15258521D02*
G75*
G02*
X9071229Y-15258521I40000J0D01*
G01*
X9071229Y-15798521D02*
G75*
G02*
X8991229Y-15798521I-40000J0D01*
G01*
X8991229Y-15798521D02*
G75*
G02*
X9071229Y-15798521I40000J0D01*
G01*
X9321229Y-15258521D02*
G75*
G02*
X9241229Y-15258521I-40000J0D01*
G01*
X9241229Y-15258521D02*
G75*
G02*
X9321229Y-15258521I40000J0D01*
G01*
X9321229Y-15798521D02*
G75*
G02*
X9241229Y-15798521I-40000J0D01*
G01*
X9241229Y-15798521D02*
G75*
G02*
X9321229Y-15798521I40000J0D01*
G01*
X9433229Y-13798521D02*
G75*
G02*
X9353229Y-13798521I-40000J0D01*
G01*
X9353229Y-13798521D02*
G75*
G02*
X9433229Y-13798521I40000J0D01*
G01*
X9433229Y-14052521D02*
G75*
G02*
X9353229Y-14052521I-40000J0D01*
G01*
X9353229Y-14052521D02*
G75*
G02*
X9433229Y-14052521I40000J0D01*
G01*
X9433229Y-14306521D02*
G75*
G02*
X9353229Y-14306521I-40000J0D01*
G01*
X9353229Y-14306521D02*
G75*
G02*
X9433229Y-14306521I40000J0D01*
G01*
X9433229Y-14560521D02*
G75*
G02*
X9353229Y-14560521I-40000J0D01*
G01*
X9353229Y-14560521D02*
G75*
G02*
X9433229Y-14560521I40000J0D01*
G01*
X9465229Y-7323521D02*
G75*
G02*
X9385229Y-7323521I-40000J0D01*
G01*
X9385229Y-7323521D02*
G75*
G02*
X9465229Y-7323521I40000J0D01*
G01*
X9465229Y-7773521D02*
G75*
G02*
X9385229Y-7773521I-40000J0D01*
G01*
X9385229Y-7773521D02*
G75*
G02*
X9465229Y-7773521I40000J0D01*
G01*
X9496229Y-9173521D02*
G75*
G02*
X9416229Y-9173521I-40000J0D01*
G01*
X9416229Y-9173521D02*
G75*
G02*
X9496229Y-9173521I40000J0D01*
G01*
X9496229Y-9648521D02*
G75*
G02*
X9416229Y-9648521I-40000J0D01*
G01*
X9416229Y-9648521D02*
G75*
G02*
X9496229Y-9648521I40000J0D01*
G01*
X9956229Y-6773521D02*
G75*
G02*
X9876229Y-6773521I-40000J0D01*
G01*
X9876229Y-6773521D02*
G75*
G02*
X9956229Y-6773521I40000J0D01*
G01*
X10227229Y-7323521D02*
G75*
G02*
X10147229Y-7323521I-40000J0D01*
G01*
X10147229Y-7323521D02*
G75*
G02*
X10227229Y-7323521I40000J0D01*
G01*
X10227229Y-7773521D02*
G75*
G02*
X10147229Y-7773521I-40000J0D01*
G01*
X10147229Y-7773521D02*
G75*
G02*
X10227229Y-7773521I40000J0D01*
G01*
X10296229Y-6773521D02*
G75*
G02*
X10216229Y-6773521I-40000J0D01*
G01*
X10216229Y-6773521D02*
G75*
G02*
X10296229Y-6773521I40000J0D01*
G01*
X10765229Y-6948521D02*
G75*
G02*
X10685229Y-6948521I-40000J0D01*
G01*
X10685229Y-6948521D02*
G75*
G02*
X10765229Y-6948521I40000J0D01*
G01*
X10765229Y-7323521D02*
G75*
G02*
X10685229Y-7323521I-40000J0D01*
G01*
X10685229Y-7323521D02*
G75*
G02*
X10765229Y-7323521I40000J0D01*
G01*
X10795000Y-6161000D02*
G75*
G02*
X10715000Y-6161000I-40000J0D01*
G01*
X10715000Y-6161000D02*
G75*
G02*
X10795000Y-6161000I40000J0D01*
G01*
X10795000Y-6411000D02*
G75*
G02*
X10715000Y-6411000I-40000J0D01*
G01*
X10715000Y-6411000D02*
G75*
G02*
X10795000Y-6411000I40000J0D01*
G01*
X11527229Y-6948521D02*
G75*
G02*
X11447229Y-6948521I-40000J0D01*
G01*
X11447229Y-6948521D02*
G75*
G02*
X11527229Y-6948521I40000J0D01*
G01*
X11527229Y-7323521D02*
G75*
G02*
X11447229Y-7323521I-40000J0D01*
G01*
X11447229Y-7323521D02*
G75*
G02*
X11527229Y-7323521I40000J0D01*
G01*
X5748729Y-7093521D02*
X5748729Y-7183521D01*
X5703729Y-7138521D02*
X5793729Y-7138521D01*
X6002729Y-7093521D02*
X6002729Y-7183521D01*
X5957729Y-7138521D02*
X6047729Y-7138521D01*
X8081229Y-5924521D02*
X8081229Y-6014521D01*
X8036229Y-5969521D02*
X8126229Y-5969521D01*
X8081229Y-6178521D02*
X8081229Y-6268521D01*
X8036229Y-6223521D02*
X8126229Y-6223521D01*
X10086229Y-5924521D02*
X10086229Y-6014521D01*
X10041229Y-5969521D02*
X10131229Y-5969521D01*
X10086229Y-6178521D02*
X10086229Y-6268521D01*
X10041229Y-6223521D02*
X10131229Y-6223521D01*
X12172229Y-7093521D02*
X12172229Y-7183521D01*
X12127229Y-7138521D02*
X12217229Y-7138521D01*
X12426229Y-7093521D02*
X12426229Y-7183521D01*
X12381229Y-7138521D02*
X12471229Y-7138521D01*
X6691584Y-15158877D02*
X6691584Y-15088165D01*
X6620873Y-15088165D01*
X6620873Y-15158877D01*
X6691584Y-15158877D01*
X7191584Y-14908877D02*
X7191584Y-14838165D01*
X7120873Y-14838165D01*
X7120873Y-14908877D01*
X7191584Y-14908877D01*
X7191584Y-15408877D02*
X7191584Y-15338165D01*
X7120873Y-15338165D01*
X7120873Y-15408877D01*
X7191584Y-15408877D01*
X11012834Y-14908877D02*
X11012834Y-14838165D01*
X10942123Y-14838165D01*
X10942123Y-14908877D01*
X11012834Y-14908877D01*
X11012834Y-15408877D02*
X11012834Y-15338165D01*
X10942123Y-15338165D01*
X10942123Y-15408877D01*
X11012834Y-15408877D01*
X11512834Y-15158877D02*
X11512834Y-15088165D01*
X11442123Y-15088165D01*
X11442123Y-15158877D01*
X11512834Y-15158877D01*
D13*
X9082000Y-6664000D02*
X9332000Y-6414000D01*
X9082000Y-6164000D01*
X8832000Y-6414000D01*
X9082000Y-6664000D01*
D11*
X5742006Y-16325010D02*
X5742006Y-16125010D01*
X5742006Y-16125010D02*
X5789625Y-16125010D01*
X5789625Y-16125010D02*
X5818197Y-16134534D01*
X5818197Y-16134534D02*
X5837244Y-16153581D01*
X5837244Y-16153581D02*
X5846768Y-16172629D01*
X5846768Y-16172629D02*
X5856292Y-16210724D01*
X5856292Y-16210724D02*
X5856292Y-16239295D01*
X5856292Y-16239295D02*
X5846768Y-16277391D01*
X5846768Y-16277391D02*
X5837244Y-16296438D01*
X5837244Y-16296438D02*
X5818197Y-16315486D01*
X5818197Y-16315486D02*
X5789625Y-16325010D01*
X5789625Y-16325010D02*
X5742006Y-16325010D01*
X5942006Y-16325010D02*
X5942006Y-16191676D01*
X5942006Y-16229772D02*
X5951530Y-16210724D01*
X5951530Y-16210724D02*
X5961054Y-16201200D01*
X5961054Y-16201200D02*
X5980102Y-16191676D01*
X5980102Y-16191676D02*
X5999149Y-16191676D01*
X6065816Y-16325010D02*
X6065816Y-16191676D01*
X6065816Y-16125010D02*
X6056292Y-16134534D01*
X6056292Y-16134534D02*
X6065816Y-16144057D01*
X6065816Y-16144057D02*
X6075340Y-16134534D01*
X6075340Y-16134534D02*
X6065816Y-16125010D01*
X6065816Y-16125010D02*
X6065816Y-16144057D01*
X6189625Y-16325010D02*
X6170578Y-16315486D01*
X6170578Y-16315486D02*
X6161054Y-16296438D01*
X6161054Y-16296438D02*
X6161054Y-16125010D01*
X6294387Y-16325010D02*
X6275340Y-16315486D01*
X6275340Y-16315486D02*
X6265816Y-16296438D01*
X6265816Y-16296438D02*
X6265816Y-16125010D01*
X6522959Y-16325010D02*
X6522959Y-16125010D01*
X6522959Y-16125010D02*
X6589625Y-16267867D01*
X6589625Y-16267867D02*
X6656292Y-16125010D01*
X6656292Y-16125010D02*
X6656292Y-16325010D01*
X6837244Y-16325010D02*
X6837244Y-16220248D01*
X6837244Y-16220248D02*
X6827721Y-16201200D01*
X6827721Y-16201200D02*
X6808673Y-16191676D01*
X6808673Y-16191676D02*
X6770578Y-16191676D01*
X6770578Y-16191676D02*
X6751530Y-16201200D01*
X6837244Y-16315486D02*
X6818197Y-16325010D01*
X6818197Y-16325010D02*
X6770578Y-16325010D01*
X6770578Y-16325010D02*
X6751530Y-16315486D01*
X6751530Y-16315486D02*
X6742006Y-16296438D01*
X6742006Y-16296438D02*
X6742006Y-16277391D01*
X6742006Y-16277391D02*
X6751530Y-16258343D01*
X6751530Y-16258343D02*
X6770578Y-16248819D01*
X6770578Y-16248819D02*
X6818197Y-16248819D01*
X6818197Y-16248819D02*
X6837244Y-16239295D01*
X6932483Y-16191676D02*
X6932483Y-16391676D01*
X6932483Y-16201200D02*
X6951530Y-16191676D01*
X6951530Y-16191676D02*
X6989625Y-16191676D01*
X6989625Y-16191676D02*
X7008673Y-16201200D01*
X7008673Y-16201200D02*
X7018197Y-16210724D01*
X7018197Y-16210724D02*
X7027721Y-16229772D01*
X7027721Y-16229772D02*
X7027721Y-16286914D01*
X7027721Y-16286914D02*
X7018197Y-16305962D01*
X7018197Y-16305962D02*
X7008673Y-16315486D01*
X7008673Y-16315486D02*
X6989625Y-16325010D01*
X6989625Y-16325010D02*
X6951530Y-16325010D01*
X6951530Y-16325010D02*
X6932483Y-16315486D01*
X7113435Y-16305962D02*
X7122959Y-16315486D01*
X7122959Y-16315486D02*
X7113435Y-16325010D01*
X7113435Y-16325010D02*
X7103911Y-16315486D01*
X7103911Y-16315486D02*
X7113435Y-16305962D01*
X7113435Y-16305962D02*
X7113435Y-16325010D01*
X7113435Y-16201200D02*
X7122959Y-16210724D01*
X7122959Y-16210724D02*
X7113435Y-16220248D01*
X7113435Y-16220248D02*
X7103911Y-16210724D01*
X7103911Y-16210724D02*
X7113435Y-16201200D01*
X7113435Y-16201200D02*
X7113435Y-16220248D01*
D12*
X5406230Y-16616026D02*
X5481230Y-16691026D01*
X5481230Y-16616026D02*
X5406230Y-16691026D01*
D11*
X5780102Y-16545010D02*
X5799149Y-16545010D01*
X5799149Y-16545010D02*
X5818197Y-16554534D01*
X5818197Y-16554534D02*
X5827721Y-16564057D01*
X5827721Y-16564057D02*
X5837244Y-16583105D01*
X5837244Y-16583105D02*
X5846768Y-16621200D01*
X5846768Y-16621200D02*
X5846768Y-16668819D01*
X5846768Y-16668819D02*
X5837244Y-16706914D01*
X5837244Y-16706914D02*
X5827721Y-16725962D01*
X5827721Y-16725962D02*
X5818197Y-16735486D01*
X5818197Y-16735486D02*
X5799149Y-16745010D01*
X5799149Y-16745010D02*
X5780102Y-16745010D01*
X5780102Y-16745010D02*
X5761054Y-16735486D01*
X5761054Y-16735486D02*
X5751530Y-16725962D01*
X5751530Y-16725962D02*
X5742006Y-16706914D01*
X5742006Y-16706914D02*
X5732483Y-16668819D01*
X5732483Y-16668819D02*
X5732483Y-16621200D01*
X5732483Y-16621200D02*
X5742006Y-16583105D01*
X5742006Y-16583105D02*
X5751530Y-16564057D01*
X5751530Y-16564057D02*
X5761054Y-16554534D01*
X5761054Y-16554534D02*
X5780102Y-16545010D01*
X5932483Y-16725962D02*
X5942006Y-16735486D01*
X5942006Y-16735486D02*
X5932483Y-16745010D01*
X5932483Y-16745010D02*
X5922959Y-16735486D01*
X5922959Y-16735486D02*
X5932483Y-16725962D01*
X5932483Y-16725962D02*
X5932483Y-16745010D01*
X6008673Y-16545010D02*
X6142006Y-16545010D01*
X6142006Y-16545010D02*
X6056292Y-16745010D01*
X6313435Y-16545010D02*
X6218197Y-16545010D01*
X6218197Y-16545010D02*
X6208673Y-16640248D01*
X6208673Y-16640248D02*
X6218197Y-16630724D01*
X6218197Y-16630724D02*
X6237244Y-16621200D01*
X6237244Y-16621200D02*
X6284864Y-16621200D01*
X6284864Y-16621200D02*
X6303911Y-16630724D01*
X6303911Y-16630724D02*
X6313435Y-16640248D01*
X6313435Y-16640248D02*
X6322959Y-16659295D01*
X6322959Y-16659295D02*
X6322959Y-16706914D01*
X6322959Y-16706914D02*
X6313435Y-16725962D01*
X6313435Y-16725962D02*
X6303911Y-16735486D01*
X6303911Y-16735486D02*
X6284864Y-16745010D01*
X6284864Y-16745010D02*
X6237244Y-16745010D01*
X6237244Y-16745010D02*
X6218197Y-16735486D01*
X6218197Y-16735486D02*
X6208673Y-16725962D01*
X6446768Y-16545010D02*
X6465816Y-16545010D01*
X6465816Y-16545010D02*
X6484864Y-16554534D01*
X6484864Y-16554534D02*
X6494387Y-16564057D01*
X6494387Y-16564057D02*
X6503911Y-16583105D01*
X6503911Y-16583105D02*
X6513435Y-16621200D01*
X6513435Y-16621200D02*
X6513435Y-16668819D01*
X6513435Y-16668819D02*
X6503911Y-16706914D01*
X6503911Y-16706914D02*
X6494387Y-16725962D01*
X6494387Y-16725962D02*
X6484864Y-16735486D01*
X6484864Y-16735486D02*
X6465816Y-16745010D01*
X6465816Y-16745010D02*
X6446768Y-16745010D01*
X6446768Y-16745010D02*
X6427721Y-16735486D01*
X6427721Y-16735486D02*
X6418197Y-16725962D01*
X6418197Y-16725962D02*
X6408673Y-16706914D01*
X6408673Y-16706914D02*
X6399149Y-16668819D01*
X6399149Y-16668819D02*
X6399149Y-16621200D01*
X6399149Y-16621200D02*
X6408673Y-16583105D01*
X6408673Y-16583105D02*
X6418197Y-16564057D01*
X6418197Y-16564057D02*
X6427721Y-16554534D01*
X6427721Y-16554534D02*
X6446768Y-16545010D01*
X6599149Y-16745010D02*
X6599149Y-16611676D01*
X6599149Y-16630724D02*
X6608673Y-16621200D01*
X6608673Y-16621200D02*
X6627721Y-16611676D01*
X6627721Y-16611676D02*
X6656292Y-16611676D01*
X6656292Y-16611676D02*
X6675340Y-16621200D01*
X6675340Y-16621200D02*
X6684864Y-16640248D01*
X6684864Y-16640248D02*
X6684864Y-16745010D01*
X6684864Y-16640248D02*
X6694387Y-16621200D01*
X6694387Y-16621200D02*
X6713435Y-16611676D01*
X6713435Y-16611676D02*
X6742006Y-16611676D01*
X6742006Y-16611676D02*
X6761054Y-16621200D01*
X6761054Y-16621200D02*
X6770578Y-16640248D01*
X6770578Y-16640248D02*
X6770578Y-16745010D01*
X6865816Y-16745010D02*
X6865816Y-16611676D01*
X6865816Y-16630724D02*
X6875340Y-16621200D01*
X6875340Y-16621200D02*
X6894387Y-16611676D01*
X6894387Y-16611676D02*
X6922959Y-16611676D01*
X6922959Y-16611676D02*
X6942006Y-16621200D01*
X6942006Y-16621200D02*
X6951530Y-16640248D01*
X6951530Y-16640248D02*
X6951530Y-16745010D01*
X6951530Y-16640248D02*
X6961054Y-16621200D01*
X6961054Y-16621200D02*
X6980102Y-16611676D01*
X6980102Y-16611676D02*
X7008673Y-16611676D01*
X7008673Y-16611676D02*
X7027721Y-16621200D01*
X7027721Y-16621200D02*
X7037245Y-16640248D01*
X7037245Y-16640248D02*
X7037245Y-16745010D01*
X7427721Y-16535486D02*
X7256292Y-16792629D01*
X7684864Y-16545010D02*
X7703911Y-16545010D01*
X7703911Y-16545010D02*
X7722959Y-16554534D01*
X7722959Y-16554534D02*
X7732483Y-16564057D01*
X7732483Y-16564057D02*
X7742007Y-16583105D01*
X7742007Y-16583105D02*
X7751530Y-16621200D01*
X7751530Y-16621200D02*
X7751530Y-16668819D01*
X7751530Y-16668819D02*
X7742007Y-16706914D01*
X7742007Y-16706914D02*
X7732483Y-16725962D01*
X7732483Y-16725962D02*
X7722959Y-16735486D01*
X7722959Y-16735486D02*
X7703911Y-16745010D01*
X7703911Y-16745010D02*
X7684864Y-16745010D01*
X7684864Y-16745010D02*
X7665816Y-16735486D01*
X7665816Y-16735486D02*
X7656292Y-16725962D01*
X7656292Y-16725962D02*
X7646768Y-16706914D01*
X7646768Y-16706914D02*
X7637245Y-16668819D01*
X7637245Y-16668819D02*
X7637245Y-16621200D01*
X7637245Y-16621200D02*
X7646768Y-16583105D01*
X7646768Y-16583105D02*
X7656292Y-16564057D01*
X7656292Y-16564057D02*
X7665816Y-16554534D01*
X7665816Y-16554534D02*
X7684864Y-16545010D01*
X7837245Y-16725962D02*
X7846768Y-16735486D01*
X7846768Y-16735486D02*
X7837245Y-16745010D01*
X7837245Y-16745010D02*
X7827721Y-16735486D01*
X7827721Y-16735486D02*
X7837245Y-16725962D01*
X7837245Y-16725962D02*
X7837245Y-16745010D01*
X7970578Y-16545010D02*
X7989626Y-16545010D01*
X7989626Y-16545010D02*
X8008673Y-16554534D01*
X8008673Y-16554534D02*
X8018197Y-16564057D01*
X8018197Y-16564057D02*
X8027721Y-16583105D01*
X8027721Y-16583105D02*
X8037245Y-16621200D01*
X8037245Y-16621200D02*
X8037245Y-16668819D01*
X8037245Y-16668819D02*
X8027721Y-16706914D01*
X8027721Y-16706914D02*
X8018197Y-16725962D01*
X8018197Y-16725962D02*
X8008673Y-16735486D01*
X8008673Y-16735486D02*
X7989626Y-16745010D01*
X7989626Y-16745010D02*
X7970578Y-16745010D01*
X7970578Y-16745010D02*
X7951530Y-16735486D01*
X7951530Y-16735486D02*
X7942007Y-16725962D01*
X7942007Y-16725962D02*
X7932483Y-16706914D01*
X7932483Y-16706914D02*
X7922959Y-16668819D01*
X7922959Y-16668819D02*
X7922959Y-16621200D01*
X7922959Y-16621200D02*
X7932483Y-16583105D01*
X7932483Y-16583105D02*
X7942007Y-16564057D01*
X7942007Y-16564057D02*
X7951530Y-16554534D01*
X7951530Y-16554534D02*
X7970578Y-16545010D01*
X8113435Y-16564057D02*
X8122959Y-16554534D01*
X8122959Y-16554534D02*
X8142007Y-16545010D01*
X8142007Y-16545010D02*
X8189626Y-16545010D01*
X8189626Y-16545010D02*
X8208673Y-16554534D01*
X8208673Y-16554534D02*
X8218197Y-16564057D01*
X8218197Y-16564057D02*
X8227721Y-16583105D01*
X8227721Y-16583105D02*
X8227721Y-16602153D01*
X8227721Y-16602153D02*
X8218197Y-16630724D01*
X8218197Y-16630724D02*
X8103911Y-16745010D01*
X8103911Y-16745010D02*
X8227721Y-16745010D01*
X8322959Y-16745010D02*
X8361054Y-16745010D01*
X8361054Y-16745010D02*
X8380102Y-16735486D01*
X8380102Y-16735486D02*
X8389626Y-16725962D01*
X8389626Y-16725962D02*
X8408673Y-16697391D01*
X8408673Y-16697391D02*
X8418197Y-16659295D01*
X8418197Y-16659295D02*
X8418197Y-16583105D01*
X8418197Y-16583105D02*
X8408673Y-16564057D01*
X8408673Y-16564057D02*
X8399150Y-16554534D01*
X8399150Y-16554534D02*
X8380102Y-16545010D01*
X8380102Y-16545010D02*
X8342007Y-16545010D01*
X8342007Y-16545010D02*
X8322959Y-16554534D01*
X8322959Y-16554534D02*
X8313435Y-16564057D01*
X8313435Y-16564057D02*
X8303911Y-16583105D01*
X8303911Y-16583105D02*
X8303911Y-16630724D01*
X8303911Y-16630724D02*
X8313435Y-16649772D01*
X8313435Y-16649772D02*
X8322959Y-16659295D01*
X8322959Y-16659295D02*
X8342007Y-16668819D01*
X8342007Y-16668819D02*
X8380102Y-16668819D01*
X8380102Y-16668819D02*
X8399150Y-16659295D01*
X8399150Y-16659295D02*
X8408673Y-16649772D01*
X8408673Y-16649772D02*
X8418197Y-16630724D01*
X8599150Y-16545010D02*
X8503911Y-16545010D01*
X8503911Y-16545010D02*
X8494388Y-16640248D01*
X8494388Y-16640248D02*
X8503911Y-16630724D01*
X8503911Y-16630724D02*
X8522959Y-16621200D01*
X8522959Y-16621200D02*
X8570578Y-16621200D01*
X8570578Y-16621200D02*
X8589626Y-16630724D01*
X8589626Y-16630724D02*
X8599150Y-16640248D01*
X8599150Y-16640248D02*
X8608673Y-16659295D01*
X8608673Y-16659295D02*
X8608673Y-16706914D01*
X8608673Y-16706914D02*
X8599150Y-16725962D01*
X8599150Y-16725962D02*
X8589626Y-16735486D01*
X8589626Y-16735486D02*
X8570578Y-16745010D01*
X8570578Y-16745010D02*
X8522959Y-16745010D01*
X8522959Y-16745010D02*
X8503911Y-16735486D01*
X8503911Y-16735486D02*
X8494388Y-16725962D01*
X8684864Y-16545010D02*
X8684864Y-16583105D01*
X8761054Y-16545010D02*
X8761054Y-16583105D01*
X9056293Y-16821200D02*
X9046769Y-16811676D01*
X9046769Y-16811676D02*
X9027721Y-16783105D01*
X9027721Y-16783105D02*
X9018197Y-16764057D01*
X9018197Y-16764057D02*
X9008673Y-16735486D01*
X9008673Y-16735486D02*
X8999150Y-16687867D01*
X8999150Y-16687867D02*
X8999150Y-16649772D01*
X8999150Y-16649772D02*
X9008673Y-16602153D01*
X9008673Y-16602153D02*
X9018197Y-16573581D01*
X9018197Y-16573581D02*
X9027721Y-16554534D01*
X9027721Y-16554534D02*
X9046769Y-16525962D01*
X9046769Y-16525962D02*
X9056293Y-16516438D01*
X9218197Y-16545010D02*
X9180102Y-16545010D01*
X9180102Y-16545010D02*
X9161054Y-16554534D01*
X9161054Y-16554534D02*
X9151531Y-16564057D01*
X9151531Y-16564057D02*
X9132483Y-16592629D01*
X9132483Y-16592629D02*
X9122959Y-16630724D01*
X9122959Y-16630724D02*
X9122959Y-16706914D01*
X9122959Y-16706914D02*
X9132483Y-16725962D01*
X9132483Y-16725962D02*
X9142007Y-16735486D01*
X9142007Y-16735486D02*
X9161054Y-16745010D01*
X9161054Y-16745010D02*
X9199150Y-16745010D01*
X9199150Y-16745010D02*
X9218197Y-16735486D01*
X9218197Y-16735486D02*
X9227721Y-16725962D01*
X9227721Y-16725962D02*
X9237245Y-16706914D01*
X9237245Y-16706914D02*
X9237245Y-16659295D01*
X9237245Y-16659295D02*
X9227721Y-16640248D01*
X9227721Y-16640248D02*
X9218197Y-16630724D01*
X9218197Y-16630724D02*
X9199150Y-16621200D01*
X9199150Y-16621200D02*
X9161054Y-16621200D01*
X9161054Y-16621200D02*
X9142007Y-16630724D01*
X9142007Y-16630724D02*
X9132483Y-16640248D01*
X9132483Y-16640248D02*
X9122959Y-16659295D01*
X9475340Y-16745010D02*
X9475340Y-16545010D01*
X9561054Y-16745010D02*
X9561054Y-16640248D01*
X9561054Y-16640248D02*
X9551531Y-16621200D01*
X9551531Y-16621200D02*
X9532483Y-16611676D01*
X9532483Y-16611676D02*
X9503912Y-16611676D01*
X9503912Y-16611676D02*
X9484864Y-16621200D01*
X9484864Y-16621200D02*
X9475340Y-16630724D01*
X9684864Y-16745010D02*
X9665816Y-16735486D01*
X9665816Y-16735486D02*
X9656293Y-16725962D01*
X9656293Y-16725962D02*
X9646769Y-16706914D01*
X9646769Y-16706914D02*
X9646769Y-16649772D01*
X9646769Y-16649772D02*
X9656293Y-16630724D01*
X9656293Y-16630724D02*
X9665816Y-16621200D01*
X9665816Y-16621200D02*
X9684864Y-16611676D01*
X9684864Y-16611676D02*
X9713435Y-16611676D01*
X9713435Y-16611676D02*
X9732483Y-16621200D01*
X9732483Y-16621200D02*
X9742007Y-16630724D01*
X9742007Y-16630724D02*
X9751531Y-16649772D01*
X9751531Y-16649772D02*
X9751531Y-16706914D01*
X9751531Y-16706914D02*
X9742007Y-16725962D01*
X9742007Y-16725962D02*
X9732483Y-16735486D01*
X9732483Y-16735486D02*
X9713435Y-16745010D01*
X9713435Y-16745010D02*
X9684864Y-16745010D01*
X9865816Y-16745010D02*
X9846769Y-16735486D01*
X9846769Y-16735486D02*
X9837245Y-16716438D01*
X9837245Y-16716438D02*
X9837245Y-16545010D01*
X10018197Y-16735486D02*
X9999150Y-16745010D01*
X9999150Y-16745010D02*
X9961054Y-16745010D01*
X9961054Y-16745010D02*
X9942007Y-16735486D01*
X9942007Y-16735486D02*
X9932483Y-16716438D01*
X9932483Y-16716438D02*
X9932483Y-16640248D01*
X9932483Y-16640248D02*
X9942007Y-16621200D01*
X9942007Y-16621200D02*
X9961054Y-16611676D01*
X9961054Y-16611676D02*
X9999150Y-16611676D01*
X9999150Y-16611676D02*
X10018197Y-16621200D01*
X10018197Y-16621200D02*
X10027721Y-16640248D01*
X10027721Y-16640248D02*
X10027721Y-16659295D01*
X10027721Y-16659295D02*
X9932483Y-16678343D01*
X10103912Y-16735486D02*
X10122959Y-16745010D01*
X10122959Y-16745010D02*
X10161054Y-16745010D01*
X10161054Y-16745010D02*
X10180102Y-16735486D01*
X10180102Y-16735486D02*
X10189626Y-16716438D01*
X10189626Y-16716438D02*
X10189626Y-16706914D01*
X10189626Y-16706914D02*
X10180102Y-16687867D01*
X10180102Y-16687867D02*
X10161054Y-16678343D01*
X10161054Y-16678343D02*
X10132483Y-16678343D01*
X10132483Y-16678343D02*
X10113435Y-16668819D01*
X10113435Y-16668819D02*
X10103912Y-16649772D01*
X10103912Y-16649772D02*
X10103912Y-16640248D01*
X10103912Y-16640248D02*
X10113435Y-16621200D01*
X10113435Y-16621200D02*
X10132483Y-16611676D01*
X10132483Y-16611676D02*
X10161054Y-16611676D01*
X10161054Y-16611676D02*
X10180102Y-16621200D01*
X10256293Y-16821200D02*
X10265816Y-16811676D01*
X10265816Y-16811676D02*
X10284864Y-16783105D01*
X10284864Y-16783105D02*
X10294388Y-16764057D01*
X10294388Y-16764057D02*
X10303912Y-16735486D01*
X10303912Y-16735486D02*
X10313435Y-16687867D01*
X10313435Y-16687867D02*
X10313435Y-16649772D01*
X10313435Y-16649772D02*
X10303912Y-16602153D01*
X10303912Y-16602153D02*
X10294388Y-16573581D01*
X10294388Y-16573581D02*
X10284864Y-16554534D01*
X10284864Y-16554534D02*
X10265816Y-16525962D01*
X10265816Y-16525962D02*
X10256293Y-16516438D01*
D12*
X5481230Y-16917526D02*
G75*
G02*
X5401230Y-16917526I-40000J0D01*
G01*
X5401230Y-16917526D02*
G75*
G02*
X5481230Y-16917526I40000J0D01*
G01*
D11*
X5780102Y-16809010D02*
X5799149Y-16809010D01*
X5799149Y-16809010D02*
X5818197Y-16818534D01*
X5818197Y-16818534D02*
X5827721Y-16828057D01*
X5827721Y-16828057D02*
X5837244Y-16847105D01*
X5837244Y-16847105D02*
X5846768Y-16885200D01*
X5846768Y-16885200D02*
X5846768Y-16932819D01*
X5846768Y-16932819D02*
X5837244Y-16970915D01*
X5837244Y-16970915D02*
X5827721Y-16989962D01*
X5827721Y-16989962D02*
X5818197Y-16999486D01*
X5818197Y-16999486D02*
X5799149Y-17009010D01*
X5799149Y-17009010D02*
X5780102Y-17009010D01*
X5780102Y-17009010D02*
X5761054Y-16999486D01*
X5761054Y-16999486D02*
X5751530Y-16989962D01*
X5751530Y-16989962D02*
X5742006Y-16970915D01*
X5742006Y-16970915D02*
X5732483Y-16932819D01*
X5732483Y-16932819D02*
X5732483Y-16885200D01*
X5732483Y-16885200D02*
X5742006Y-16847105D01*
X5742006Y-16847105D02*
X5751530Y-16828057D01*
X5751530Y-16828057D02*
X5761054Y-16818534D01*
X5761054Y-16818534D02*
X5780102Y-16809010D01*
X5932483Y-16989962D02*
X5942006Y-16999486D01*
X5942006Y-16999486D02*
X5932483Y-17009010D01*
X5932483Y-17009010D02*
X5922959Y-16999486D01*
X5922959Y-16999486D02*
X5932483Y-16989962D01*
X5932483Y-16989962D02*
X5932483Y-17009010D01*
X6056292Y-16894724D02*
X6037244Y-16885200D01*
X6037244Y-16885200D02*
X6027721Y-16875676D01*
X6027721Y-16875676D02*
X6018197Y-16856629D01*
X6018197Y-16856629D02*
X6018197Y-16847105D01*
X6018197Y-16847105D02*
X6027721Y-16828057D01*
X6027721Y-16828057D02*
X6037244Y-16818534D01*
X6037244Y-16818534D02*
X6056292Y-16809010D01*
X6056292Y-16809010D02*
X6094387Y-16809010D01*
X6094387Y-16809010D02*
X6113435Y-16818534D01*
X6113435Y-16818534D02*
X6122959Y-16828057D01*
X6122959Y-16828057D02*
X6132483Y-16847105D01*
X6132483Y-16847105D02*
X6132483Y-16856629D01*
X6132483Y-16856629D02*
X6122959Y-16875676D01*
X6122959Y-16875676D02*
X6113435Y-16885200D01*
X6113435Y-16885200D02*
X6094387Y-16894724D01*
X6094387Y-16894724D02*
X6056292Y-16894724D01*
X6056292Y-16894724D02*
X6037244Y-16904248D01*
X6037244Y-16904248D02*
X6027721Y-16913772D01*
X6027721Y-16913772D02*
X6018197Y-16932819D01*
X6018197Y-16932819D02*
X6018197Y-16970915D01*
X6018197Y-16970915D02*
X6027721Y-16989962D01*
X6027721Y-16989962D02*
X6037244Y-16999486D01*
X6037244Y-16999486D02*
X6056292Y-17009010D01*
X6056292Y-17009010D02*
X6094387Y-17009010D01*
X6094387Y-17009010D02*
X6113435Y-16999486D01*
X6113435Y-16999486D02*
X6122959Y-16989962D01*
X6122959Y-16989962D02*
X6132483Y-16970915D01*
X6132483Y-16970915D02*
X6132483Y-16932819D01*
X6132483Y-16932819D02*
X6122959Y-16913772D01*
X6122959Y-16913772D02*
X6113435Y-16904248D01*
X6113435Y-16904248D02*
X6094387Y-16894724D01*
X6256292Y-16809010D02*
X6275340Y-16809010D01*
X6275340Y-16809010D02*
X6294387Y-16818534D01*
X6294387Y-16818534D02*
X6303911Y-16828057D01*
X6303911Y-16828057D02*
X6313435Y-16847105D01*
X6313435Y-16847105D02*
X6322959Y-16885200D01*
X6322959Y-16885200D02*
X6322959Y-16932819D01*
X6322959Y-16932819D02*
X6313435Y-16970915D01*
X6313435Y-16970915D02*
X6303911Y-16989962D01*
X6303911Y-16989962D02*
X6294387Y-16999486D01*
X6294387Y-16999486D02*
X6275340Y-17009010D01*
X6275340Y-17009010D02*
X6256292Y-17009010D01*
X6256292Y-17009010D02*
X6237244Y-16999486D01*
X6237244Y-16999486D02*
X6227721Y-16989962D01*
X6227721Y-16989962D02*
X6218197Y-16970915D01*
X6218197Y-16970915D02*
X6208673Y-16932819D01*
X6208673Y-16932819D02*
X6208673Y-16885200D01*
X6208673Y-16885200D02*
X6218197Y-16847105D01*
X6218197Y-16847105D02*
X6227721Y-16828057D01*
X6227721Y-16828057D02*
X6237244Y-16818534D01*
X6237244Y-16818534D02*
X6256292Y-16809010D01*
X6446768Y-16809010D02*
X6465816Y-16809010D01*
X6465816Y-16809010D02*
X6484864Y-16818534D01*
X6484864Y-16818534D02*
X6494387Y-16828057D01*
X6494387Y-16828057D02*
X6503911Y-16847105D01*
X6503911Y-16847105D02*
X6513435Y-16885200D01*
X6513435Y-16885200D02*
X6513435Y-16932819D01*
X6513435Y-16932819D02*
X6503911Y-16970915D01*
X6503911Y-16970915D02*
X6494387Y-16989962D01*
X6494387Y-16989962D02*
X6484864Y-16999486D01*
X6484864Y-16999486D02*
X6465816Y-17009010D01*
X6465816Y-17009010D02*
X6446768Y-17009010D01*
X6446768Y-17009010D02*
X6427721Y-16999486D01*
X6427721Y-16999486D02*
X6418197Y-16989962D01*
X6418197Y-16989962D02*
X6408673Y-16970915D01*
X6408673Y-16970915D02*
X6399149Y-16932819D01*
X6399149Y-16932819D02*
X6399149Y-16885200D01*
X6399149Y-16885200D02*
X6408673Y-16847105D01*
X6408673Y-16847105D02*
X6418197Y-16828057D01*
X6418197Y-16828057D02*
X6427721Y-16818534D01*
X6427721Y-16818534D02*
X6446768Y-16809010D01*
X6599149Y-17009010D02*
X6599149Y-16875676D01*
X6599149Y-16894724D02*
X6608673Y-16885200D01*
X6608673Y-16885200D02*
X6627721Y-16875676D01*
X6627721Y-16875676D02*
X6656292Y-16875676D01*
X6656292Y-16875676D02*
X6675340Y-16885200D01*
X6675340Y-16885200D02*
X6684864Y-16904248D01*
X6684864Y-16904248D02*
X6684864Y-17009010D01*
X6684864Y-16904248D02*
X6694387Y-16885200D01*
X6694387Y-16885200D02*
X6713435Y-16875676D01*
X6713435Y-16875676D02*
X6742006Y-16875676D01*
X6742006Y-16875676D02*
X6761054Y-16885200D01*
X6761054Y-16885200D02*
X6770578Y-16904248D01*
X6770578Y-16904248D02*
X6770578Y-17009010D01*
X6865816Y-17009010D02*
X6865816Y-16875676D01*
X6865816Y-16894724D02*
X6875340Y-16885200D01*
X6875340Y-16885200D02*
X6894387Y-16875676D01*
X6894387Y-16875676D02*
X6922959Y-16875676D01*
X6922959Y-16875676D02*
X6942006Y-16885200D01*
X6942006Y-16885200D02*
X6951530Y-16904248D01*
X6951530Y-16904248D02*
X6951530Y-17009010D01*
X6951530Y-16904248D02*
X6961054Y-16885200D01*
X6961054Y-16885200D02*
X6980102Y-16875676D01*
X6980102Y-16875676D02*
X7008673Y-16875676D01*
X7008673Y-16875676D02*
X7027721Y-16885200D01*
X7027721Y-16885200D02*
X7037245Y-16904248D01*
X7037245Y-16904248D02*
X7037245Y-17009010D01*
X7427721Y-16799486D02*
X7256292Y-17056629D01*
X7684864Y-16809010D02*
X7703911Y-16809010D01*
X7703911Y-16809010D02*
X7722959Y-16818534D01*
X7722959Y-16818534D02*
X7732483Y-16828057D01*
X7732483Y-16828057D02*
X7742007Y-16847105D01*
X7742007Y-16847105D02*
X7751530Y-16885200D01*
X7751530Y-16885200D02*
X7751530Y-16932819D01*
X7751530Y-16932819D02*
X7742007Y-16970915D01*
X7742007Y-16970915D02*
X7732483Y-16989962D01*
X7732483Y-16989962D02*
X7722959Y-16999486D01*
X7722959Y-16999486D02*
X7703911Y-17009010D01*
X7703911Y-17009010D02*
X7684864Y-17009010D01*
X7684864Y-17009010D02*
X7665816Y-16999486D01*
X7665816Y-16999486D02*
X7656292Y-16989962D01*
X7656292Y-16989962D02*
X7646768Y-16970915D01*
X7646768Y-16970915D02*
X7637245Y-16932819D01*
X7637245Y-16932819D02*
X7637245Y-16885200D01*
X7637245Y-16885200D02*
X7646768Y-16847105D01*
X7646768Y-16847105D02*
X7656292Y-16828057D01*
X7656292Y-16828057D02*
X7665816Y-16818534D01*
X7665816Y-16818534D02*
X7684864Y-16809010D01*
X7837245Y-16989962D02*
X7846768Y-16999486D01*
X7846768Y-16999486D02*
X7837245Y-17009010D01*
X7837245Y-17009010D02*
X7827721Y-16999486D01*
X7827721Y-16999486D02*
X7837245Y-16989962D01*
X7837245Y-16989962D02*
X7837245Y-17009010D01*
X7970578Y-16809010D02*
X7989626Y-16809010D01*
X7989626Y-16809010D02*
X8008673Y-16818534D01*
X8008673Y-16818534D02*
X8018197Y-16828057D01*
X8018197Y-16828057D02*
X8027721Y-16847105D01*
X8027721Y-16847105D02*
X8037245Y-16885200D01*
X8037245Y-16885200D02*
X8037245Y-16932819D01*
X8037245Y-16932819D02*
X8027721Y-16970915D01*
X8027721Y-16970915D02*
X8018197Y-16989962D01*
X8018197Y-16989962D02*
X8008673Y-16999486D01*
X8008673Y-16999486D02*
X7989626Y-17009010D01*
X7989626Y-17009010D02*
X7970578Y-17009010D01*
X7970578Y-17009010D02*
X7951530Y-16999486D01*
X7951530Y-16999486D02*
X7942007Y-16989962D01*
X7942007Y-16989962D02*
X7932483Y-16970915D01*
X7932483Y-16970915D02*
X7922959Y-16932819D01*
X7922959Y-16932819D02*
X7922959Y-16885200D01*
X7922959Y-16885200D02*
X7932483Y-16847105D01*
X7932483Y-16847105D02*
X7942007Y-16828057D01*
X7942007Y-16828057D02*
X7951530Y-16818534D01*
X7951530Y-16818534D02*
X7970578Y-16809010D01*
X8103911Y-16809010D02*
X8227721Y-16809010D01*
X8227721Y-16809010D02*
X8161054Y-16885200D01*
X8161054Y-16885200D02*
X8189626Y-16885200D01*
X8189626Y-16885200D02*
X8208673Y-16894724D01*
X8208673Y-16894724D02*
X8218197Y-16904248D01*
X8218197Y-16904248D02*
X8227721Y-16923296D01*
X8227721Y-16923296D02*
X8227721Y-16970915D01*
X8227721Y-16970915D02*
X8218197Y-16989962D01*
X8218197Y-16989962D02*
X8208673Y-16999486D01*
X8208673Y-16999486D02*
X8189626Y-17009010D01*
X8189626Y-17009010D02*
X8132483Y-17009010D01*
X8132483Y-17009010D02*
X8113435Y-16999486D01*
X8113435Y-16999486D02*
X8103911Y-16989962D01*
X8418197Y-17009010D02*
X8303911Y-17009010D01*
X8361054Y-17009010D02*
X8361054Y-16809010D01*
X8361054Y-16809010D02*
X8342007Y-16837581D01*
X8342007Y-16837581D02*
X8322959Y-16856629D01*
X8322959Y-16856629D02*
X8303911Y-16866153D01*
X8599150Y-16809010D02*
X8503911Y-16809010D01*
X8503911Y-16809010D02*
X8494388Y-16904248D01*
X8494388Y-16904248D02*
X8503911Y-16894724D01*
X8503911Y-16894724D02*
X8522959Y-16885200D01*
X8522959Y-16885200D02*
X8570578Y-16885200D01*
X8570578Y-16885200D02*
X8589626Y-16894724D01*
X8589626Y-16894724D02*
X8599150Y-16904248D01*
X8599150Y-16904248D02*
X8608673Y-16923296D01*
X8608673Y-16923296D02*
X8608673Y-16970915D01*
X8608673Y-16970915D02*
X8599150Y-16989962D01*
X8599150Y-16989962D02*
X8589626Y-16999486D01*
X8589626Y-16999486D02*
X8570578Y-17009010D01*
X8570578Y-17009010D02*
X8522959Y-17009010D01*
X8522959Y-17009010D02*
X8503911Y-16999486D01*
X8503911Y-16999486D02*
X8494388Y-16989962D01*
X8684864Y-16809010D02*
X8684864Y-16847105D01*
X8761054Y-16809010D02*
X8761054Y-16847105D01*
X9056293Y-17085200D02*
X9046769Y-17075676D01*
X9046769Y-17075676D02*
X9027721Y-17047105D01*
X9027721Y-17047105D02*
X9018197Y-17028057D01*
X9018197Y-17028057D02*
X9008673Y-16999486D01*
X9008673Y-16999486D02*
X8999150Y-16951867D01*
X8999150Y-16951867D02*
X8999150Y-16913772D01*
X8999150Y-16913772D02*
X9008673Y-16866153D01*
X9008673Y-16866153D02*
X9018197Y-16837581D01*
X9018197Y-16837581D02*
X9027721Y-16818534D01*
X9027721Y-16818534D02*
X9046769Y-16789962D01*
X9046769Y-16789962D02*
X9056293Y-16780438D01*
X9218197Y-16875676D02*
X9218197Y-17009010D01*
X9170578Y-16799486D02*
X9122959Y-16942343D01*
X9122959Y-16942343D02*
X9246769Y-16942343D01*
X9313435Y-16828057D02*
X9322959Y-16818534D01*
X9322959Y-16818534D02*
X9342007Y-16809010D01*
X9342007Y-16809010D02*
X9389626Y-16809010D01*
X9389626Y-16809010D02*
X9408673Y-16818534D01*
X9408673Y-16818534D02*
X9418197Y-16828057D01*
X9418197Y-16828057D02*
X9427721Y-16847105D01*
X9427721Y-16847105D02*
X9427721Y-16866153D01*
X9427721Y-16866153D02*
X9418197Y-16894724D01*
X9418197Y-16894724D02*
X9303912Y-17009010D01*
X9303912Y-17009010D02*
X9427721Y-17009010D01*
X9665816Y-17009010D02*
X9665816Y-16809010D01*
X9751531Y-17009010D02*
X9751531Y-16904248D01*
X9751531Y-16904248D02*
X9742007Y-16885200D01*
X9742007Y-16885200D02*
X9722959Y-16875676D01*
X9722959Y-16875676D02*
X9694388Y-16875676D01*
X9694388Y-16875676D02*
X9675340Y-16885200D01*
X9675340Y-16885200D02*
X9665816Y-16894724D01*
X9875340Y-17009010D02*
X9856293Y-16999486D01*
X9856293Y-16999486D02*
X9846769Y-16989962D01*
X9846769Y-16989962D02*
X9837245Y-16970915D01*
X9837245Y-16970915D02*
X9837245Y-16913772D01*
X9837245Y-16913772D02*
X9846769Y-16894724D01*
X9846769Y-16894724D02*
X9856293Y-16885200D01*
X9856293Y-16885200D02*
X9875340Y-16875676D01*
X9875340Y-16875676D02*
X9903912Y-16875676D01*
X9903912Y-16875676D02*
X9922959Y-16885200D01*
X9922959Y-16885200D02*
X9932483Y-16894724D01*
X9932483Y-16894724D02*
X9942007Y-16913772D01*
X9942007Y-16913772D02*
X9942007Y-16970915D01*
X9942007Y-16970915D02*
X9932483Y-16989962D01*
X9932483Y-16989962D02*
X9922959Y-16999486D01*
X9922959Y-16999486D02*
X9903912Y-17009010D01*
X9903912Y-17009010D02*
X9875340Y-17009010D01*
X10056293Y-17009010D02*
X10037245Y-16999486D01*
X10037245Y-16999486D02*
X10027721Y-16980438D01*
X10027721Y-16980438D02*
X10027721Y-16809010D01*
X10208674Y-16999486D02*
X10189626Y-17009010D01*
X10189626Y-17009010D02*
X10151531Y-17009010D01*
X10151531Y-17009010D02*
X10132483Y-16999486D01*
X10132483Y-16999486D02*
X10122959Y-16980438D01*
X10122959Y-16980438D02*
X10122959Y-16904248D01*
X10122959Y-16904248D02*
X10132483Y-16885200D01*
X10132483Y-16885200D02*
X10151531Y-16875676D01*
X10151531Y-16875676D02*
X10189626Y-16875676D01*
X10189626Y-16875676D02*
X10208674Y-16885200D01*
X10208674Y-16885200D02*
X10218197Y-16904248D01*
X10218197Y-16904248D02*
X10218197Y-16923296D01*
X10218197Y-16923296D02*
X10122959Y-16942343D01*
X10294388Y-16999486D02*
X10313435Y-17009010D01*
X10313435Y-17009010D02*
X10351531Y-17009010D01*
X10351531Y-17009010D02*
X10370578Y-16999486D01*
X10370578Y-16999486D02*
X10380102Y-16980438D01*
X10380102Y-16980438D02*
X10380102Y-16970915D01*
X10380102Y-16970915D02*
X10370578Y-16951867D01*
X10370578Y-16951867D02*
X10351531Y-16942343D01*
X10351531Y-16942343D02*
X10322959Y-16942343D01*
X10322959Y-16942343D02*
X10303912Y-16932819D01*
X10303912Y-16932819D02*
X10294388Y-16913772D01*
X10294388Y-16913772D02*
X10294388Y-16904248D01*
X10294388Y-16904248D02*
X10303912Y-16885200D01*
X10303912Y-16885200D02*
X10322959Y-16875676D01*
X10322959Y-16875676D02*
X10351531Y-16875676D01*
X10351531Y-16875676D02*
X10370578Y-16885200D01*
X10446769Y-17085200D02*
X10456293Y-17075676D01*
X10456293Y-17075676D02*
X10475340Y-17047105D01*
X10475340Y-17047105D02*
X10484864Y-17028057D01*
X10484864Y-17028057D02*
X10494388Y-16999486D01*
X10494388Y-16999486D02*
X10503912Y-16951867D01*
X10503912Y-16951867D02*
X10503912Y-16913772D01*
X10503912Y-16913772D02*
X10494388Y-16866153D01*
X10494388Y-16866153D02*
X10484864Y-16837581D01*
X10484864Y-16837581D02*
X10475340Y-16818534D01*
X10475340Y-16818534D02*
X10456293Y-16789962D01*
X10456293Y-16789962D02*
X10446769Y-16780438D01*
D12*
X5436230Y-17136526D02*
X5436230Y-17226526D01*
X5391230Y-17181526D02*
X5481230Y-17181526D01*
D11*
X5780102Y-17073010D02*
X5799149Y-17073010D01*
X5799149Y-17073010D02*
X5818197Y-17082534D01*
X5818197Y-17082534D02*
X5827721Y-17092057D01*
X5827721Y-17092057D02*
X5837244Y-17111105D01*
X5837244Y-17111105D02*
X5846768Y-17149200D01*
X5846768Y-17149200D02*
X5846768Y-17196819D01*
X5846768Y-17196819D02*
X5837244Y-17234915D01*
X5837244Y-17234915D02*
X5827721Y-17253962D01*
X5827721Y-17253962D02*
X5818197Y-17263486D01*
X5818197Y-17263486D02*
X5799149Y-17273010D01*
X5799149Y-17273010D02*
X5780102Y-17273010D01*
X5780102Y-17273010D02*
X5761054Y-17263486D01*
X5761054Y-17263486D02*
X5751530Y-17253962D01*
X5751530Y-17253962D02*
X5742006Y-17234915D01*
X5742006Y-17234915D02*
X5732483Y-17196819D01*
X5732483Y-17196819D02*
X5732483Y-17149200D01*
X5732483Y-17149200D02*
X5742006Y-17111105D01*
X5742006Y-17111105D02*
X5751530Y-17092057D01*
X5751530Y-17092057D02*
X5761054Y-17082534D01*
X5761054Y-17082534D02*
X5780102Y-17073010D01*
X5932483Y-17253962D02*
X5942006Y-17263486D01*
X5942006Y-17263486D02*
X5932483Y-17273010D01*
X5932483Y-17273010D02*
X5922959Y-17263486D01*
X5922959Y-17263486D02*
X5932483Y-17253962D01*
X5932483Y-17253962D02*
X5932483Y-17273010D01*
X6037244Y-17273010D02*
X6075340Y-17273010D01*
X6075340Y-17273010D02*
X6094387Y-17263486D01*
X6094387Y-17263486D02*
X6103911Y-17253962D01*
X6103911Y-17253962D02*
X6122959Y-17225391D01*
X6122959Y-17225391D02*
X6132483Y-17187296D01*
X6132483Y-17187296D02*
X6132483Y-17111105D01*
X6132483Y-17111105D02*
X6122959Y-17092057D01*
X6122959Y-17092057D02*
X6113435Y-17082534D01*
X6113435Y-17082534D02*
X6094387Y-17073010D01*
X6094387Y-17073010D02*
X6056292Y-17073010D01*
X6056292Y-17073010D02*
X6037244Y-17082534D01*
X6037244Y-17082534D02*
X6027721Y-17092057D01*
X6027721Y-17092057D02*
X6018197Y-17111105D01*
X6018197Y-17111105D02*
X6018197Y-17158724D01*
X6018197Y-17158724D02*
X6027721Y-17177772D01*
X6027721Y-17177772D02*
X6037244Y-17187296D01*
X6037244Y-17187296D02*
X6056292Y-17196819D01*
X6056292Y-17196819D02*
X6094387Y-17196819D01*
X6094387Y-17196819D02*
X6113435Y-17187296D01*
X6113435Y-17187296D02*
X6122959Y-17177772D01*
X6122959Y-17177772D02*
X6132483Y-17158724D01*
X6256292Y-17073010D02*
X6275340Y-17073010D01*
X6275340Y-17073010D02*
X6294387Y-17082534D01*
X6294387Y-17082534D02*
X6303911Y-17092057D01*
X6303911Y-17092057D02*
X6313435Y-17111105D01*
X6313435Y-17111105D02*
X6322959Y-17149200D01*
X6322959Y-17149200D02*
X6322959Y-17196819D01*
X6322959Y-17196819D02*
X6313435Y-17234915D01*
X6313435Y-17234915D02*
X6303911Y-17253962D01*
X6303911Y-17253962D02*
X6294387Y-17263486D01*
X6294387Y-17263486D02*
X6275340Y-17273010D01*
X6275340Y-17273010D02*
X6256292Y-17273010D01*
X6256292Y-17273010D02*
X6237244Y-17263486D01*
X6237244Y-17263486D02*
X6227721Y-17253962D01*
X6227721Y-17253962D02*
X6218197Y-17234915D01*
X6218197Y-17234915D02*
X6208673Y-17196819D01*
X6208673Y-17196819D02*
X6208673Y-17149200D01*
X6208673Y-17149200D02*
X6218197Y-17111105D01*
X6218197Y-17111105D02*
X6227721Y-17092057D01*
X6227721Y-17092057D02*
X6237244Y-17082534D01*
X6237244Y-17082534D02*
X6256292Y-17073010D01*
X6446768Y-17073010D02*
X6465816Y-17073010D01*
X6465816Y-17073010D02*
X6484864Y-17082534D01*
X6484864Y-17082534D02*
X6494387Y-17092057D01*
X6494387Y-17092057D02*
X6503911Y-17111105D01*
X6503911Y-17111105D02*
X6513435Y-17149200D01*
X6513435Y-17149200D02*
X6513435Y-17196819D01*
X6513435Y-17196819D02*
X6503911Y-17234915D01*
X6503911Y-17234915D02*
X6494387Y-17253962D01*
X6494387Y-17253962D02*
X6484864Y-17263486D01*
X6484864Y-17263486D02*
X6465816Y-17273010D01*
X6465816Y-17273010D02*
X6446768Y-17273010D01*
X6446768Y-17273010D02*
X6427721Y-17263486D01*
X6427721Y-17263486D02*
X6418197Y-17253962D01*
X6418197Y-17253962D02*
X6408673Y-17234915D01*
X6408673Y-17234915D02*
X6399149Y-17196819D01*
X6399149Y-17196819D02*
X6399149Y-17149200D01*
X6399149Y-17149200D02*
X6408673Y-17111105D01*
X6408673Y-17111105D02*
X6418197Y-17092057D01*
X6418197Y-17092057D02*
X6427721Y-17082534D01*
X6427721Y-17082534D02*
X6446768Y-17073010D01*
X6599149Y-17273010D02*
X6599149Y-17139676D01*
X6599149Y-17158724D02*
X6608673Y-17149200D01*
X6608673Y-17149200D02*
X6627721Y-17139676D01*
X6627721Y-17139676D02*
X6656292Y-17139676D01*
X6656292Y-17139676D02*
X6675340Y-17149200D01*
X6675340Y-17149200D02*
X6684864Y-17168248D01*
X6684864Y-17168248D02*
X6684864Y-17273010D01*
X6684864Y-17168248D02*
X6694387Y-17149200D01*
X6694387Y-17149200D02*
X6713435Y-17139676D01*
X6713435Y-17139676D02*
X6742006Y-17139676D01*
X6742006Y-17139676D02*
X6761054Y-17149200D01*
X6761054Y-17149200D02*
X6770578Y-17168248D01*
X6770578Y-17168248D02*
X6770578Y-17273010D01*
X6865816Y-17273010D02*
X6865816Y-17139676D01*
X6865816Y-17158724D02*
X6875340Y-17149200D01*
X6875340Y-17149200D02*
X6894387Y-17139676D01*
X6894387Y-17139676D02*
X6922959Y-17139676D01*
X6922959Y-17139676D02*
X6942006Y-17149200D01*
X6942006Y-17149200D02*
X6951530Y-17168248D01*
X6951530Y-17168248D02*
X6951530Y-17273010D01*
X6951530Y-17168248D02*
X6961054Y-17149200D01*
X6961054Y-17149200D02*
X6980102Y-17139676D01*
X6980102Y-17139676D02*
X7008673Y-17139676D01*
X7008673Y-17139676D02*
X7027721Y-17149200D01*
X7027721Y-17149200D02*
X7037245Y-17168248D01*
X7037245Y-17168248D02*
X7037245Y-17273010D01*
X7427721Y-17063486D02*
X7256292Y-17320629D01*
X7684864Y-17073010D02*
X7703911Y-17073010D01*
X7703911Y-17073010D02*
X7722959Y-17082534D01*
X7722959Y-17082534D02*
X7732483Y-17092057D01*
X7732483Y-17092057D02*
X7742007Y-17111105D01*
X7742007Y-17111105D02*
X7751530Y-17149200D01*
X7751530Y-17149200D02*
X7751530Y-17196819D01*
X7751530Y-17196819D02*
X7742007Y-17234915D01*
X7742007Y-17234915D02*
X7732483Y-17253962D01*
X7732483Y-17253962D02*
X7722959Y-17263486D01*
X7722959Y-17263486D02*
X7703911Y-17273010D01*
X7703911Y-17273010D02*
X7684864Y-17273010D01*
X7684864Y-17273010D02*
X7665816Y-17263486D01*
X7665816Y-17263486D02*
X7656292Y-17253962D01*
X7656292Y-17253962D02*
X7646768Y-17234915D01*
X7646768Y-17234915D02*
X7637245Y-17196819D01*
X7637245Y-17196819D02*
X7637245Y-17149200D01*
X7637245Y-17149200D02*
X7646768Y-17111105D01*
X7646768Y-17111105D02*
X7656292Y-17092057D01*
X7656292Y-17092057D02*
X7665816Y-17082534D01*
X7665816Y-17082534D02*
X7684864Y-17073010D01*
X7837245Y-17253962D02*
X7846768Y-17263486D01*
X7846768Y-17263486D02*
X7837245Y-17273010D01*
X7837245Y-17273010D02*
X7827721Y-17263486D01*
X7827721Y-17263486D02*
X7837245Y-17253962D01*
X7837245Y-17253962D02*
X7837245Y-17273010D01*
X7970578Y-17073010D02*
X7989626Y-17073010D01*
X7989626Y-17073010D02*
X8008673Y-17082534D01*
X8008673Y-17082534D02*
X8018197Y-17092057D01*
X8018197Y-17092057D02*
X8027721Y-17111105D01*
X8027721Y-17111105D02*
X8037245Y-17149200D01*
X8037245Y-17149200D02*
X8037245Y-17196819D01*
X8037245Y-17196819D02*
X8027721Y-17234915D01*
X8027721Y-17234915D02*
X8018197Y-17253962D01*
X8018197Y-17253962D02*
X8008673Y-17263486D01*
X8008673Y-17263486D02*
X7989626Y-17273010D01*
X7989626Y-17273010D02*
X7970578Y-17273010D01*
X7970578Y-17273010D02*
X7951530Y-17263486D01*
X7951530Y-17263486D02*
X7942007Y-17253962D01*
X7942007Y-17253962D02*
X7932483Y-17234915D01*
X7932483Y-17234915D02*
X7922959Y-17196819D01*
X7922959Y-17196819D02*
X7922959Y-17149200D01*
X7922959Y-17149200D02*
X7932483Y-17111105D01*
X7932483Y-17111105D02*
X7942007Y-17092057D01*
X7942007Y-17092057D02*
X7951530Y-17082534D01*
X7951530Y-17082534D02*
X7970578Y-17073010D01*
X8103911Y-17073010D02*
X8227721Y-17073010D01*
X8227721Y-17073010D02*
X8161054Y-17149200D01*
X8161054Y-17149200D02*
X8189626Y-17149200D01*
X8189626Y-17149200D02*
X8208673Y-17158724D01*
X8208673Y-17158724D02*
X8218197Y-17168248D01*
X8218197Y-17168248D02*
X8227721Y-17187296D01*
X8227721Y-17187296D02*
X8227721Y-17234915D01*
X8227721Y-17234915D02*
X8218197Y-17253962D01*
X8218197Y-17253962D02*
X8208673Y-17263486D01*
X8208673Y-17263486D02*
X8189626Y-17273010D01*
X8189626Y-17273010D02*
X8132483Y-17273010D01*
X8132483Y-17273010D02*
X8113435Y-17263486D01*
X8113435Y-17263486D02*
X8103911Y-17253962D01*
X8408673Y-17073010D02*
X8313435Y-17073010D01*
X8313435Y-17073010D02*
X8303911Y-17168248D01*
X8303911Y-17168248D02*
X8313435Y-17158724D01*
X8313435Y-17158724D02*
X8332483Y-17149200D01*
X8332483Y-17149200D02*
X8380102Y-17149200D01*
X8380102Y-17149200D02*
X8399150Y-17158724D01*
X8399150Y-17158724D02*
X8408673Y-17168248D01*
X8408673Y-17168248D02*
X8418197Y-17187296D01*
X8418197Y-17187296D02*
X8418197Y-17234915D01*
X8418197Y-17234915D02*
X8408673Y-17253962D01*
X8408673Y-17253962D02*
X8399150Y-17263486D01*
X8399150Y-17263486D02*
X8380102Y-17273010D01*
X8380102Y-17273010D02*
X8332483Y-17273010D01*
X8332483Y-17273010D02*
X8313435Y-17263486D01*
X8313435Y-17263486D02*
X8303911Y-17253962D01*
X8589626Y-17139676D02*
X8589626Y-17273010D01*
X8542007Y-17063486D02*
X8494388Y-17206343D01*
X8494388Y-17206343D02*
X8618197Y-17206343D01*
X8684864Y-17073010D02*
X8684864Y-17111105D01*
X8761054Y-17073010D02*
X8761054Y-17111105D01*
X9056293Y-17349200D02*
X9046769Y-17339676D01*
X9046769Y-17339676D02*
X9027721Y-17311105D01*
X9027721Y-17311105D02*
X9018197Y-17292057D01*
X9018197Y-17292057D02*
X9008673Y-17263486D01*
X9008673Y-17263486D02*
X8999150Y-17215867D01*
X8999150Y-17215867D02*
X8999150Y-17177772D01*
X8999150Y-17177772D02*
X9008673Y-17130153D01*
X9008673Y-17130153D02*
X9018197Y-17101581D01*
X9018197Y-17101581D02*
X9027721Y-17082534D01*
X9027721Y-17082534D02*
X9046769Y-17053962D01*
X9046769Y-17053962D02*
X9056293Y-17044438D01*
X9161054Y-17158724D02*
X9142007Y-17149200D01*
X9142007Y-17149200D02*
X9132483Y-17139676D01*
X9132483Y-17139676D02*
X9122959Y-17120629D01*
X9122959Y-17120629D02*
X9122959Y-17111105D01*
X9122959Y-17111105D02*
X9132483Y-17092057D01*
X9132483Y-17092057D02*
X9142007Y-17082534D01*
X9142007Y-17082534D02*
X9161054Y-17073010D01*
X9161054Y-17073010D02*
X9199150Y-17073010D01*
X9199150Y-17073010D02*
X9218197Y-17082534D01*
X9218197Y-17082534D02*
X9227721Y-17092057D01*
X9227721Y-17092057D02*
X9237245Y-17111105D01*
X9237245Y-17111105D02*
X9237245Y-17120629D01*
X9237245Y-17120629D02*
X9227721Y-17139676D01*
X9227721Y-17139676D02*
X9218197Y-17149200D01*
X9218197Y-17149200D02*
X9199150Y-17158724D01*
X9199150Y-17158724D02*
X9161054Y-17158724D01*
X9161054Y-17158724D02*
X9142007Y-17168248D01*
X9142007Y-17168248D02*
X9132483Y-17177772D01*
X9132483Y-17177772D02*
X9122959Y-17196819D01*
X9122959Y-17196819D02*
X9122959Y-17234915D01*
X9122959Y-17234915D02*
X9132483Y-17253962D01*
X9132483Y-17253962D02*
X9142007Y-17263486D01*
X9142007Y-17263486D02*
X9161054Y-17273010D01*
X9161054Y-17273010D02*
X9199150Y-17273010D01*
X9199150Y-17273010D02*
X9218197Y-17263486D01*
X9218197Y-17263486D02*
X9227721Y-17253962D01*
X9227721Y-17253962D02*
X9237245Y-17234915D01*
X9237245Y-17234915D02*
X9237245Y-17196819D01*
X9237245Y-17196819D02*
X9227721Y-17177772D01*
X9227721Y-17177772D02*
X9218197Y-17168248D01*
X9218197Y-17168248D02*
X9199150Y-17158724D01*
X9475340Y-17273010D02*
X9475340Y-17073010D01*
X9561054Y-17273010D02*
X9561054Y-17168248D01*
X9561054Y-17168248D02*
X9551531Y-17149200D01*
X9551531Y-17149200D02*
X9532483Y-17139676D01*
X9532483Y-17139676D02*
X9503912Y-17139676D01*
X9503912Y-17139676D02*
X9484864Y-17149200D01*
X9484864Y-17149200D02*
X9475340Y-17158724D01*
X9684864Y-17273010D02*
X9665816Y-17263486D01*
X9665816Y-17263486D02*
X9656293Y-17253962D01*
X9656293Y-17253962D02*
X9646769Y-17234915D01*
X9646769Y-17234915D02*
X9646769Y-17177772D01*
X9646769Y-17177772D02*
X9656293Y-17158724D01*
X9656293Y-17158724D02*
X9665816Y-17149200D01*
X9665816Y-17149200D02*
X9684864Y-17139676D01*
X9684864Y-17139676D02*
X9713435Y-17139676D01*
X9713435Y-17139676D02*
X9732483Y-17149200D01*
X9732483Y-17149200D02*
X9742007Y-17158724D01*
X9742007Y-17158724D02*
X9751531Y-17177772D01*
X9751531Y-17177772D02*
X9751531Y-17234915D01*
X9751531Y-17234915D02*
X9742007Y-17253962D01*
X9742007Y-17253962D02*
X9732483Y-17263486D01*
X9732483Y-17263486D02*
X9713435Y-17273010D01*
X9713435Y-17273010D02*
X9684864Y-17273010D01*
X9865816Y-17273010D02*
X9846769Y-17263486D01*
X9846769Y-17263486D02*
X9837245Y-17244438D01*
X9837245Y-17244438D02*
X9837245Y-17073010D01*
X10018197Y-17263486D02*
X9999150Y-17273010D01*
X9999150Y-17273010D02*
X9961054Y-17273010D01*
X9961054Y-17273010D02*
X9942007Y-17263486D01*
X9942007Y-17263486D02*
X9932483Y-17244438D01*
X9932483Y-17244438D02*
X9932483Y-17168248D01*
X9932483Y-17168248D02*
X9942007Y-17149200D01*
X9942007Y-17149200D02*
X9961054Y-17139676D01*
X9961054Y-17139676D02*
X9999150Y-17139676D01*
X9999150Y-17139676D02*
X10018197Y-17149200D01*
X10018197Y-17149200D02*
X10027721Y-17168248D01*
X10027721Y-17168248D02*
X10027721Y-17187296D01*
X10027721Y-17187296D02*
X9932483Y-17206343D01*
X10103912Y-17263486D02*
X10122959Y-17273010D01*
X10122959Y-17273010D02*
X10161054Y-17273010D01*
X10161054Y-17273010D02*
X10180102Y-17263486D01*
X10180102Y-17263486D02*
X10189626Y-17244438D01*
X10189626Y-17244438D02*
X10189626Y-17234915D01*
X10189626Y-17234915D02*
X10180102Y-17215867D01*
X10180102Y-17215867D02*
X10161054Y-17206343D01*
X10161054Y-17206343D02*
X10132483Y-17206343D01*
X10132483Y-17206343D02*
X10113435Y-17196819D01*
X10113435Y-17196819D02*
X10103912Y-17177772D01*
X10103912Y-17177772D02*
X10103912Y-17168248D01*
X10103912Y-17168248D02*
X10113435Y-17149200D01*
X10113435Y-17149200D02*
X10132483Y-17139676D01*
X10132483Y-17139676D02*
X10161054Y-17139676D01*
X10161054Y-17139676D02*
X10180102Y-17149200D01*
X10256293Y-17349200D02*
X10265816Y-17339676D01*
X10265816Y-17339676D02*
X10284864Y-17311105D01*
X10284864Y-17311105D02*
X10294388Y-17292057D01*
X10294388Y-17292057D02*
X10303912Y-17263486D01*
X10303912Y-17263486D02*
X10313435Y-17215867D01*
X10313435Y-17215867D02*
X10313435Y-17177772D01*
X10313435Y-17177772D02*
X10303912Y-17130153D01*
X10303912Y-17130153D02*
X10294388Y-17101581D01*
X10294388Y-17101581D02*
X10284864Y-17082534D01*
X10284864Y-17082534D02*
X10265816Y-17053962D01*
X10265816Y-17053962D02*
X10256293Y-17044438D01*
D12*
X5466585Y-17480882D02*
X5466585Y-17410170D01*
X5395874Y-17410170D01*
X5395874Y-17480882D01*
X5466585Y-17480882D01*
D11*
X5846768Y-17537010D02*
X5732483Y-17537010D01*
X5789625Y-17537010D02*
X5789625Y-17337010D01*
X5789625Y-17337010D02*
X5770578Y-17365581D01*
X5770578Y-17365581D02*
X5751530Y-17384629D01*
X5751530Y-17384629D02*
X5732483Y-17394153D01*
X5932483Y-17517962D02*
X5942006Y-17527486D01*
X5942006Y-17527486D02*
X5932483Y-17537010D01*
X5932483Y-17537010D02*
X5922959Y-17527486D01*
X5922959Y-17527486D02*
X5932483Y-17517962D01*
X5932483Y-17517962D02*
X5932483Y-17537010D01*
X6065816Y-17337010D02*
X6084864Y-17337010D01*
X6084864Y-17337010D02*
X6103911Y-17346534D01*
X6103911Y-17346534D02*
X6113435Y-17356057D01*
X6113435Y-17356057D02*
X6122959Y-17375105D01*
X6122959Y-17375105D02*
X6132483Y-17413200D01*
X6132483Y-17413200D02*
X6132483Y-17460819D01*
X6132483Y-17460819D02*
X6122959Y-17498915D01*
X6122959Y-17498915D02*
X6113435Y-17517962D01*
X6113435Y-17517962D02*
X6103911Y-17527486D01*
X6103911Y-17527486D02*
X6084864Y-17537010D01*
X6084864Y-17537010D02*
X6065816Y-17537010D01*
X6065816Y-17537010D02*
X6046768Y-17527486D01*
X6046768Y-17527486D02*
X6037244Y-17517962D01*
X6037244Y-17517962D02*
X6027721Y-17498915D01*
X6027721Y-17498915D02*
X6018197Y-17460819D01*
X6018197Y-17460819D02*
X6018197Y-17413200D01*
X6018197Y-17413200D02*
X6027721Y-17375105D01*
X6027721Y-17375105D02*
X6037244Y-17356057D01*
X6037244Y-17356057D02*
X6046768Y-17346534D01*
X6046768Y-17346534D02*
X6065816Y-17337010D01*
X6256292Y-17337010D02*
X6275340Y-17337010D01*
X6275340Y-17337010D02*
X6294387Y-17346534D01*
X6294387Y-17346534D02*
X6303911Y-17356057D01*
X6303911Y-17356057D02*
X6313435Y-17375105D01*
X6313435Y-17375105D02*
X6322959Y-17413200D01*
X6322959Y-17413200D02*
X6322959Y-17460819D01*
X6322959Y-17460819D02*
X6313435Y-17498915D01*
X6313435Y-17498915D02*
X6303911Y-17517962D01*
X6303911Y-17517962D02*
X6294387Y-17527486D01*
X6294387Y-17527486D02*
X6275340Y-17537010D01*
X6275340Y-17537010D02*
X6256292Y-17537010D01*
X6256292Y-17537010D02*
X6237244Y-17527486D01*
X6237244Y-17527486D02*
X6227721Y-17517962D01*
X6227721Y-17517962D02*
X6218197Y-17498915D01*
X6218197Y-17498915D02*
X6208673Y-17460819D01*
X6208673Y-17460819D02*
X6208673Y-17413200D01*
X6208673Y-17413200D02*
X6218197Y-17375105D01*
X6218197Y-17375105D02*
X6227721Y-17356057D01*
X6227721Y-17356057D02*
X6237244Y-17346534D01*
X6237244Y-17346534D02*
X6256292Y-17337010D01*
X6446768Y-17337010D02*
X6465816Y-17337010D01*
X6465816Y-17337010D02*
X6484864Y-17346534D01*
X6484864Y-17346534D02*
X6494387Y-17356057D01*
X6494387Y-17356057D02*
X6503911Y-17375105D01*
X6503911Y-17375105D02*
X6513435Y-17413200D01*
X6513435Y-17413200D02*
X6513435Y-17460819D01*
X6513435Y-17460819D02*
X6503911Y-17498915D01*
X6503911Y-17498915D02*
X6494387Y-17517962D01*
X6494387Y-17517962D02*
X6484864Y-17527486D01*
X6484864Y-17527486D02*
X6465816Y-17537010D01*
X6465816Y-17537010D02*
X6446768Y-17537010D01*
X6446768Y-17537010D02*
X6427721Y-17527486D01*
X6427721Y-17527486D02*
X6418197Y-17517962D01*
X6418197Y-17517962D02*
X6408673Y-17498915D01*
X6408673Y-17498915D02*
X6399149Y-17460819D01*
X6399149Y-17460819D02*
X6399149Y-17413200D01*
X6399149Y-17413200D02*
X6408673Y-17375105D01*
X6408673Y-17375105D02*
X6418197Y-17356057D01*
X6418197Y-17356057D02*
X6427721Y-17346534D01*
X6427721Y-17346534D02*
X6446768Y-17337010D01*
X6599149Y-17537010D02*
X6599149Y-17403676D01*
X6599149Y-17422724D02*
X6608673Y-17413200D01*
X6608673Y-17413200D02*
X6627721Y-17403676D01*
X6627721Y-17403676D02*
X6656292Y-17403676D01*
X6656292Y-17403676D02*
X6675340Y-17413200D01*
X6675340Y-17413200D02*
X6684864Y-17432248D01*
X6684864Y-17432248D02*
X6684864Y-17537010D01*
X6684864Y-17432248D02*
X6694387Y-17413200D01*
X6694387Y-17413200D02*
X6713435Y-17403676D01*
X6713435Y-17403676D02*
X6742006Y-17403676D01*
X6742006Y-17403676D02*
X6761054Y-17413200D01*
X6761054Y-17413200D02*
X6770578Y-17432248D01*
X6770578Y-17432248D02*
X6770578Y-17537010D01*
X6865816Y-17537010D02*
X6865816Y-17403676D01*
X6865816Y-17422724D02*
X6875340Y-17413200D01*
X6875340Y-17413200D02*
X6894387Y-17403676D01*
X6894387Y-17403676D02*
X6922959Y-17403676D01*
X6922959Y-17403676D02*
X6942006Y-17413200D01*
X6942006Y-17413200D02*
X6951530Y-17432248D01*
X6951530Y-17432248D02*
X6951530Y-17537010D01*
X6951530Y-17432248D02*
X6961054Y-17413200D01*
X6961054Y-17413200D02*
X6980102Y-17403676D01*
X6980102Y-17403676D02*
X7008673Y-17403676D01*
X7008673Y-17403676D02*
X7027721Y-17413200D01*
X7027721Y-17413200D02*
X7037245Y-17432248D01*
X7037245Y-17432248D02*
X7037245Y-17537010D01*
X7427721Y-17327486D02*
X7256292Y-17584629D01*
X7684864Y-17337010D02*
X7703911Y-17337010D01*
X7703911Y-17337010D02*
X7722959Y-17346534D01*
X7722959Y-17346534D02*
X7732483Y-17356057D01*
X7732483Y-17356057D02*
X7742007Y-17375105D01*
X7742007Y-17375105D02*
X7751530Y-17413200D01*
X7751530Y-17413200D02*
X7751530Y-17460819D01*
X7751530Y-17460819D02*
X7742007Y-17498915D01*
X7742007Y-17498915D02*
X7732483Y-17517962D01*
X7732483Y-17517962D02*
X7722959Y-17527486D01*
X7722959Y-17527486D02*
X7703911Y-17537010D01*
X7703911Y-17537010D02*
X7684864Y-17537010D01*
X7684864Y-17537010D02*
X7665816Y-17527486D01*
X7665816Y-17527486D02*
X7656292Y-17517962D01*
X7656292Y-17517962D02*
X7646768Y-17498915D01*
X7646768Y-17498915D02*
X7637245Y-17460819D01*
X7637245Y-17460819D02*
X7637245Y-17413200D01*
X7637245Y-17413200D02*
X7646768Y-17375105D01*
X7646768Y-17375105D02*
X7656292Y-17356057D01*
X7656292Y-17356057D02*
X7665816Y-17346534D01*
X7665816Y-17346534D02*
X7684864Y-17337010D01*
X7837245Y-17517962D02*
X7846768Y-17527486D01*
X7846768Y-17527486D02*
X7837245Y-17537010D01*
X7837245Y-17537010D02*
X7827721Y-17527486D01*
X7827721Y-17527486D02*
X7837245Y-17517962D01*
X7837245Y-17517962D02*
X7837245Y-17537010D01*
X7970578Y-17337010D02*
X7989626Y-17337010D01*
X7989626Y-17337010D02*
X8008673Y-17346534D01*
X8008673Y-17346534D02*
X8018197Y-17356057D01*
X8018197Y-17356057D02*
X8027721Y-17375105D01*
X8027721Y-17375105D02*
X8037245Y-17413200D01*
X8037245Y-17413200D02*
X8037245Y-17460819D01*
X8037245Y-17460819D02*
X8027721Y-17498915D01*
X8027721Y-17498915D02*
X8018197Y-17517962D01*
X8018197Y-17517962D02*
X8008673Y-17527486D01*
X8008673Y-17527486D02*
X7989626Y-17537010D01*
X7989626Y-17537010D02*
X7970578Y-17537010D01*
X7970578Y-17537010D02*
X7951530Y-17527486D01*
X7951530Y-17527486D02*
X7942007Y-17517962D01*
X7942007Y-17517962D02*
X7932483Y-17498915D01*
X7932483Y-17498915D02*
X7922959Y-17460819D01*
X7922959Y-17460819D02*
X7922959Y-17413200D01*
X7922959Y-17413200D02*
X7932483Y-17375105D01*
X7932483Y-17375105D02*
X7942007Y-17356057D01*
X7942007Y-17356057D02*
X7951530Y-17346534D01*
X7951530Y-17346534D02*
X7970578Y-17337010D01*
X8103911Y-17337010D02*
X8227721Y-17337010D01*
X8227721Y-17337010D02*
X8161054Y-17413200D01*
X8161054Y-17413200D02*
X8189626Y-17413200D01*
X8189626Y-17413200D02*
X8208673Y-17422724D01*
X8208673Y-17422724D02*
X8218197Y-17432248D01*
X8218197Y-17432248D02*
X8227721Y-17451296D01*
X8227721Y-17451296D02*
X8227721Y-17498915D01*
X8227721Y-17498915D02*
X8218197Y-17517962D01*
X8218197Y-17517962D02*
X8208673Y-17527486D01*
X8208673Y-17527486D02*
X8189626Y-17537010D01*
X8189626Y-17537010D02*
X8132483Y-17537010D01*
X8132483Y-17537010D02*
X8113435Y-17527486D01*
X8113435Y-17527486D02*
X8103911Y-17517962D01*
X8322959Y-17537010D02*
X8361054Y-17537010D01*
X8361054Y-17537010D02*
X8380102Y-17527486D01*
X8380102Y-17527486D02*
X8389626Y-17517962D01*
X8389626Y-17517962D02*
X8408673Y-17489391D01*
X8408673Y-17489391D02*
X8418197Y-17451296D01*
X8418197Y-17451296D02*
X8418197Y-17375105D01*
X8418197Y-17375105D02*
X8408673Y-17356057D01*
X8408673Y-17356057D02*
X8399150Y-17346534D01*
X8399150Y-17346534D02*
X8380102Y-17337010D01*
X8380102Y-17337010D02*
X8342007Y-17337010D01*
X8342007Y-17337010D02*
X8322959Y-17346534D01*
X8322959Y-17346534D02*
X8313435Y-17356057D01*
X8313435Y-17356057D02*
X8303911Y-17375105D01*
X8303911Y-17375105D02*
X8303911Y-17422724D01*
X8303911Y-17422724D02*
X8313435Y-17441772D01*
X8313435Y-17441772D02*
X8322959Y-17451296D01*
X8322959Y-17451296D02*
X8342007Y-17460819D01*
X8342007Y-17460819D02*
X8380102Y-17460819D01*
X8380102Y-17460819D02*
X8399150Y-17451296D01*
X8399150Y-17451296D02*
X8408673Y-17441772D01*
X8408673Y-17441772D02*
X8418197Y-17422724D01*
X8589626Y-17403676D02*
X8589626Y-17537010D01*
X8542007Y-17327486D02*
X8494388Y-17470343D01*
X8494388Y-17470343D02*
X8618197Y-17470343D01*
X8684864Y-17337010D02*
X8684864Y-17375105D01*
X8761054Y-17337010D02*
X8761054Y-17375105D01*
X9056293Y-17613200D02*
X9046769Y-17603676D01*
X9046769Y-17603676D02*
X9027721Y-17575105D01*
X9027721Y-17575105D02*
X9018197Y-17556057D01*
X9018197Y-17556057D02*
X9008673Y-17527486D01*
X9008673Y-17527486D02*
X8999150Y-17479867D01*
X8999150Y-17479867D02*
X8999150Y-17441772D01*
X8999150Y-17441772D02*
X9008673Y-17394153D01*
X9008673Y-17394153D02*
X9018197Y-17365581D01*
X9018197Y-17365581D02*
X9027721Y-17346534D01*
X9027721Y-17346534D02*
X9046769Y-17317962D01*
X9046769Y-17317962D02*
X9056293Y-17308438D01*
X9218197Y-17337010D02*
X9180102Y-17337010D01*
X9180102Y-17337010D02*
X9161054Y-17346534D01*
X9161054Y-17346534D02*
X9151531Y-17356057D01*
X9151531Y-17356057D02*
X9132483Y-17384629D01*
X9132483Y-17384629D02*
X9122959Y-17422724D01*
X9122959Y-17422724D02*
X9122959Y-17498915D01*
X9122959Y-17498915D02*
X9132483Y-17517962D01*
X9132483Y-17517962D02*
X9142007Y-17527486D01*
X9142007Y-17527486D02*
X9161054Y-17537010D01*
X9161054Y-17537010D02*
X9199150Y-17537010D01*
X9199150Y-17537010D02*
X9218197Y-17527486D01*
X9218197Y-17527486D02*
X9227721Y-17517962D01*
X9227721Y-17517962D02*
X9237245Y-17498915D01*
X9237245Y-17498915D02*
X9237245Y-17451296D01*
X9237245Y-17451296D02*
X9227721Y-17432248D01*
X9227721Y-17432248D02*
X9218197Y-17422724D01*
X9218197Y-17422724D02*
X9199150Y-17413200D01*
X9199150Y-17413200D02*
X9161054Y-17413200D01*
X9161054Y-17413200D02*
X9142007Y-17422724D01*
X9142007Y-17422724D02*
X9132483Y-17432248D01*
X9132483Y-17432248D02*
X9122959Y-17451296D01*
X9475340Y-17537010D02*
X9475340Y-17337010D01*
X9561054Y-17537010D02*
X9561054Y-17432248D01*
X9561054Y-17432248D02*
X9551531Y-17413200D01*
X9551531Y-17413200D02*
X9532483Y-17403676D01*
X9532483Y-17403676D02*
X9503912Y-17403676D01*
X9503912Y-17403676D02*
X9484864Y-17413200D01*
X9484864Y-17413200D02*
X9475340Y-17422724D01*
X9684864Y-17537010D02*
X9665816Y-17527486D01*
X9665816Y-17527486D02*
X9656293Y-17517962D01*
X9656293Y-17517962D02*
X9646769Y-17498915D01*
X9646769Y-17498915D02*
X9646769Y-17441772D01*
X9646769Y-17441772D02*
X9656293Y-17422724D01*
X9656293Y-17422724D02*
X9665816Y-17413200D01*
X9665816Y-17413200D02*
X9684864Y-17403676D01*
X9684864Y-17403676D02*
X9713435Y-17403676D01*
X9713435Y-17403676D02*
X9732483Y-17413200D01*
X9732483Y-17413200D02*
X9742007Y-17422724D01*
X9742007Y-17422724D02*
X9751531Y-17441772D01*
X9751531Y-17441772D02*
X9751531Y-17498915D01*
X9751531Y-17498915D02*
X9742007Y-17517962D01*
X9742007Y-17517962D02*
X9732483Y-17527486D01*
X9732483Y-17527486D02*
X9713435Y-17537010D01*
X9713435Y-17537010D02*
X9684864Y-17537010D01*
X9865816Y-17537010D02*
X9846769Y-17527486D01*
X9846769Y-17527486D02*
X9837245Y-17508438D01*
X9837245Y-17508438D02*
X9837245Y-17337010D01*
X10018197Y-17527486D02*
X9999150Y-17537010D01*
X9999150Y-17537010D02*
X9961054Y-17537010D01*
X9961054Y-17537010D02*
X9942007Y-17527486D01*
X9942007Y-17527486D02*
X9932483Y-17508438D01*
X9932483Y-17508438D02*
X9932483Y-17432248D01*
X9932483Y-17432248D02*
X9942007Y-17413200D01*
X9942007Y-17413200D02*
X9961054Y-17403676D01*
X9961054Y-17403676D02*
X9999150Y-17403676D01*
X9999150Y-17403676D02*
X10018197Y-17413200D01*
X10018197Y-17413200D02*
X10027721Y-17432248D01*
X10027721Y-17432248D02*
X10027721Y-17451296D01*
X10027721Y-17451296D02*
X9932483Y-17470343D01*
X10103912Y-17527486D02*
X10122959Y-17537010D01*
X10122959Y-17537010D02*
X10161054Y-17537010D01*
X10161054Y-17537010D02*
X10180102Y-17527486D01*
X10180102Y-17527486D02*
X10189626Y-17508438D01*
X10189626Y-17508438D02*
X10189626Y-17498915D01*
X10189626Y-17498915D02*
X10180102Y-17479867D01*
X10180102Y-17479867D02*
X10161054Y-17470343D01*
X10161054Y-17470343D02*
X10132483Y-17470343D01*
X10132483Y-17470343D02*
X10113435Y-17460819D01*
X10113435Y-17460819D02*
X10103912Y-17441772D01*
X10103912Y-17441772D02*
X10103912Y-17432248D01*
X10103912Y-17432248D02*
X10113435Y-17413200D01*
X10113435Y-17413200D02*
X10132483Y-17403676D01*
X10132483Y-17403676D02*
X10161054Y-17403676D01*
X10161054Y-17403676D02*
X10180102Y-17413200D01*
X10256293Y-17613200D02*
X10265816Y-17603676D01*
X10265816Y-17603676D02*
X10284864Y-17575105D01*
X10284864Y-17575105D02*
X10294388Y-17556057D01*
X10294388Y-17556057D02*
X10303912Y-17527486D01*
X10303912Y-17527486D02*
X10313435Y-17479867D01*
X10313435Y-17479867D02*
X10313435Y-17441772D01*
X10313435Y-17441772D02*
X10303912Y-17394153D01*
X10303912Y-17394153D02*
X10294388Y-17365581D01*
X10294388Y-17365581D02*
X10284864Y-17346534D01*
X10284864Y-17346534D02*
X10265816Y-17317962D01*
X10265816Y-17317962D02*
X10256293Y-17308438D01*
X5381230Y-17809526D02*
X5481230Y-17709526D01*
X5381230Y-17609526D01*
X5281230Y-17709526D01*
X5381230Y-17809526D01*
X5837244Y-17601010D02*
X5742006Y-17601010D01*
X5742006Y-17601010D02*
X5732483Y-17696248D01*
X5732483Y-17696248D02*
X5742006Y-17686724D01*
X5742006Y-17686724D02*
X5761054Y-17677200D01*
X5761054Y-17677200D02*
X5808673Y-17677200D01*
X5808673Y-17677200D02*
X5827721Y-17686724D01*
X5827721Y-17686724D02*
X5837244Y-17696248D01*
X5837244Y-17696248D02*
X5846768Y-17715296D01*
X5846768Y-17715296D02*
X5846768Y-17762915D01*
X5846768Y-17762915D02*
X5837244Y-17781962D01*
X5837244Y-17781962D02*
X5827721Y-17791486D01*
X5827721Y-17791486D02*
X5808673Y-17801010D01*
X5808673Y-17801010D02*
X5761054Y-17801010D01*
X5761054Y-17801010D02*
X5742006Y-17791486D01*
X5742006Y-17791486D02*
X5732483Y-17781962D01*
X5932483Y-17781962D02*
X5942006Y-17791486D01*
X5942006Y-17791486D02*
X5932483Y-17801010D01*
X5932483Y-17801010D02*
X5922959Y-17791486D01*
X5922959Y-17791486D02*
X5932483Y-17781962D01*
X5932483Y-17781962D02*
X5932483Y-17801010D01*
X6065816Y-17601010D02*
X6084864Y-17601010D01*
X6084864Y-17601010D02*
X6103911Y-17610534D01*
X6103911Y-17610534D02*
X6113435Y-17620057D01*
X6113435Y-17620057D02*
X6122959Y-17639105D01*
X6122959Y-17639105D02*
X6132483Y-17677200D01*
X6132483Y-17677200D02*
X6132483Y-17724819D01*
X6132483Y-17724819D02*
X6122959Y-17762915D01*
X6122959Y-17762915D02*
X6113435Y-17781962D01*
X6113435Y-17781962D02*
X6103911Y-17791486D01*
X6103911Y-17791486D02*
X6084864Y-17801010D01*
X6084864Y-17801010D02*
X6065816Y-17801010D01*
X6065816Y-17801010D02*
X6046768Y-17791486D01*
X6046768Y-17791486D02*
X6037244Y-17781962D01*
X6037244Y-17781962D02*
X6027721Y-17762915D01*
X6027721Y-17762915D02*
X6018197Y-17724819D01*
X6018197Y-17724819D02*
X6018197Y-17677200D01*
X6018197Y-17677200D02*
X6027721Y-17639105D01*
X6027721Y-17639105D02*
X6037244Y-17620057D01*
X6037244Y-17620057D02*
X6046768Y-17610534D01*
X6046768Y-17610534D02*
X6065816Y-17601010D01*
X6256292Y-17601010D02*
X6275340Y-17601010D01*
X6275340Y-17601010D02*
X6294387Y-17610534D01*
X6294387Y-17610534D02*
X6303911Y-17620057D01*
X6303911Y-17620057D02*
X6313435Y-17639105D01*
X6313435Y-17639105D02*
X6322959Y-17677200D01*
X6322959Y-17677200D02*
X6322959Y-17724819D01*
X6322959Y-17724819D02*
X6313435Y-17762915D01*
X6313435Y-17762915D02*
X6303911Y-17781962D01*
X6303911Y-17781962D02*
X6294387Y-17791486D01*
X6294387Y-17791486D02*
X6275340Y-17801010D01*
X6275340Y-17801010D02*
X6256292Y-17801010D01*
X6256292Y-17801010D02*
X6237244Y-17791486D01*
X6237244Y-17791486D02*
X6227721Y-17781962D01*
X6227721Y-17781962D02*
X6218197Y-17762915D01*
X6218197Y-17762915D02*
X6208673Y-17724819D01*
X6208673Y-17724819D02*
X6208673Y-17677200D01*
X6208673Y-17677200D02*
X6218197Y-17639105D01*
X6218197Y-17639105D02*
X6227721Y-17620057D01*
X6227721Y-17620057D02*
X6237244Y-17610534D01*
X6237244Y-17610534D02*
X6256292Y-17601010D01*
X6446768Y-17601010D02*
X6465816Y-17601010D01*
X6465816Y-17601010D02*
X6484864Y-17610534D01*
X6484864Y-17610534D02*
X6494387Y-17620057D01*
X6494387Y-17620057D02*
X6503911Y-17639105D01*
X6503911Y-17639105D02*
X6513435Y-17677200D01*
X6513435Y-17677200D02*
X6513435Y-17724819D01*
X6513435Y-17724819D02*
X6503911Y-17762915D01*
X6503911Y-17762915D02*
X6494387Y-17781962D01*
X6494387Y-17781962D02*
X6484864Y-17791486D01*
X6484864Y-17791486D02*
X6465816Y-17801010D01*
X6465816Y-17801010D02*
X6446768Y-17801010D01*
X6446768Y-17801010D02*
X6427721Y-17791486D01*
X6427721Y-17791486D02*
X6418197Y-17781962D01*
X6418197Y-17781962D02*
X6408673Y-17762915D01*
X6408673Y-17762915D02*
X6399149Y-17724819D01*
X6399149Y-17724819D02*
X6399149Y-17677200D01*
X6399149Y-17677200D02*
X6408673Y-17639105D01*
X6408673Y-17639105D02*
X6418197Y-17620057D01*
X6418197Y-17620057D02*
X6427721Y-17610534D01*
X6427721Y-17610534D02*
X6446768Y-17601010D01*
X6599149Y-17801010D02*
X6599149Y-17667676D01*
X6599149Y-17686724D02*
X6608673Y-17677200D01*
X6608673Y-17677200D02*
X6627721Y-17667676D01*
X6627721Y-17667676D02*
X6656292Y-17667676D01*
X6656292Y-17667676D02*
X6675340Y-17677200D01*
X6675340Y-17677200D02*
X6684864Y-17696248D01*
X6684864Y-17696248D02*
X6684864Y-17801010D01*
X6684864Y-17696248D02*
X6694387Y-17677200D01*
X6694387Y-17677200D02*
X6713435Y-17667676D01*
X6713435Y-17667676D02*
X6742006Y-17667676D01*
X6742006Y-17667676D02*
X6761054Y-17677200D01*
X6761054Y-17677200D02*
X6770578Y-17696248D01*
X6770578Y-17696248D02*
X6770578Y-17801010D01*
X6865816Y-17801010D02*
X6865816Y-17667676D01*
X6865816Y-17686724D02*
X6875340Y-17677200D01*
X6875340Y-17677200D02*
X6894387Y-17667676D01*
X6894387Y-17667676D02*
X6922959Y-17667676D01*
X6922959Y-17667676D02*
X6942006Y-17677200D01*
X6942006Y-17677200D02*
X6951530Y-17696248D01*
X6951530Y-17696248D02*
X6951530Y-17801010D01*
X6951530Y-17696248D02*
X6961054Y-17677200D01*
X6961054Y-17677200D02*
X6980102Y-17667676D01*
X6980102Y-17667676D02*
X7008673Y-17667676D01*
X7008673Y-17667676D02*
X7027721Y-17677200D01*
X7027721Y-17677200D02*
X7037245Y-17696248D01*
X7037245Y-17696248D02*
X7037245Y-17801010D01*
X7427721Y-17591486D02*
X7256292Y-17848629D01*
X7684864Y-17601010D02*
X7703911Y-17601010D01*
X7703911Y-17601010D02*
X7722959Y-17610534D01*
X7722959Y-17610534D02*
X7732483Y-17620057D01*
X7732483Y-17620057D02*
X7742007Y-17639105D01*
X7742007Y-17639105D02*
X7751530Y-17677200D01*
X7751530Y-17677200D02*
X7751530Y-17724819D01*
X7751530Y-17724819D02*
X7742007Y-17762915D01*
X7742007Y-17762915D02*
X7732483Y-17781962D01*
X7732483Y-17781962D02*
X7722959Y-17791486D01*
X7722959Y-17791486D02*
X7703911Y-17801010D01*
X7703911Y-17801010D02*
X7684864Y-17801010D01*
X7684864Y-17801010D02*
X7665816Y-17791486D01*
X7665816Y-17791486D02*
X7656292Y-17781962D01*
X7656292Y-17781962D02*
X7646768Y-17762915D01*
X7646768Y-17762915D02*
X7637245Y-17724819D01*
X7637245Y-17724819D02*
X7637245Y-17677200D01*
X7637245Y-17677200D02*
X7646768Y-17639105D01*
X7646768Y-17639105D02*
X7656292Y-17620057D01*
X7656292Y-17620057D02*
X7665816Y-17610534D01*
X7665816Y-17610534D02*
X7684864Y-17601010D01*
X7837245Y-17781962D02*
X7846768Y-17791486D01*
X7846768Y-17791486D02*
X7837245Y-17801010D01*
X7837245Y-17801010D02*
X7827721Y-17791486D01*
X7827721Y-17791486D02*
X7837245Y-17781962D01*
X7837245Y-17781962D02*
X7837245Y-17801010D01*
X8037245Y-17801010D02*
X7922959Y-17801010D01*
X7980102Y-17801010D02*
X7980102Y-17601010D01*
X7980102Y-17601010D02*
X7961054Y-17629581D01*
X7961054Y-17629581D02*
X7942007Y-17648629D01*
X7942007Y-17648629D02*
X7922959Y-17658153D01*
X8132483Y-17801010D02*
X8170578Y-17801010D01*
X8170578Y-17801010D02*
X8189626Y-17791486D01*
X8189626Y-17791486D02*
X8199149Y-17781962D01*
X8199149Y-17781962D02*
X8218197Y-17753391D01*
X8218197Y-17753391D02*
X8227721Y-17715296D01*
X8227721Y-17715296D02*
X8227721Y-17639105D01*
X8227721Y-17639105D02*
X8218197Y-17620057D01*
X8218197Y-17620057D02*
X8208673Y-17610534D01*
X8208673Y-17610534D02*
X8189626Y-17601010D01*
X8189626Y-17601010D02*
X8151530Y-17601010D01*
X8151530Y-17601010D02*
X8132483Y-17610534D01*
X8132483Y-17610534D02*
X8122959Y-17620057D01*
X8122959Y-17620057D02*
X8113435Y-17639105D01*
X8113435Y-17639105D02*
X8113435Y-17686724D01*
X8113435Y-17686724D02*
X8122959Y-17705772D01*
X8122959Y-17705772D02*
X8132483Y-17715296D01*
X8132483Y-17715296D02*
X8151530Y-17724819D01*
X8151530Y-17724819D02*
X8189626Y-17724819D01*
X8189626Y-17724819D02*
X8208673Y-17715296D01*
X8208673Y-17715296D02*
X8218197Y-17705772D01*
X8218197Y-17705772D02*
X8227721Y-17686724D01*
X8399150Y-17601010D02*
X8361054Y-17601010D01*
X8361054Y-17601010D02*
X8342007Y-17610534D01*
X8342007Y-17610534D02*
X8332483Y-17620057D01*
X8332483Y-17620057D02*
X8313435Y-17648629D01*
X8313435Y-17648629D02*
X8303911Y-17686724D01*
X8303911Y-17686724D02*
X8303911Y-17762915D01*
X8303911Y-17762915D02*
X8313435Y-17781962D01*
X8313435Y-17781962D02*
X8322959Y-17791486D01*
X8322959Y-17791486D02*
X8342007Y-17801010D01*
X8342007Y-17801010D02*
X8380102Y-17801010D01*
X8380102Y-17801010D02*
X8399150Y-17791486D01*
X8399150Y-17791486D02*
X8408673Y-17781962D01*
X8408673Y-17781962D02*
X8418197Y-17762915D01*
X8418197Y-17762915D02*
X8418197Y-17715296D01*
X8418197Y-17715296D02*
X8408673Y-17696248D01*
X8408673Y-17696248D02*
X8399150Y-17686724D01*
X8399150Y-17686724D02*
X8380102Y-17677200D01*
X8380102Y-17677200D02*
X8342007Y-17677200D01*
X8342007Y-17677200D02*
X8322959Y-17686724D01*
X8322959Y-17686724D02*
X8313435Y-17696248D01*
X8313435Y-17696248D02*
X8303911Y-17715296D01*
X8513435Y-17801010D02*
X8551530Y-17801010D01*
X8551530Y-17801010D02*
X8570578Y-17791486D01*
X8570578Y-17791486D02*
X8580102Y-17781962D01*
X8580102Y-17781962D02*
X8599150Y-17753391D01*
X8599150Y-17753391D02*
X8608673Y-17715296D01*
X8608673Y-17715296D02*
X8608673Y-17639105D01*
X8608673Y-17639105D02*
X8599150Y-17620057D01*
X8599150Y-17620057D02*
X8589626Y-17610534D01*
X8589626Y-17610534D02*
X8570578Y-17601010D01*
X8570578Y-17601010D02*
X8532483Y-17601010D01*
X8532483Y-17601010D02*
X8513435Y-17610534D01*
X8513435Y-17610534D02*
X8503911Y-17620057D01*
X8503911Y-17620057D02*
X8494388Y-17639105D01*
X8494388Y-17639105D02*
X8494388Y-17686724D01*
X8494388Y-17686724D02*
X8503911Y-17705772D01*
X8503911Y-17705772D02*
X8513435Y-17715296D01*
X8513435Y-17715296D02*
X8532483Y-17724819D01*
X8532483Y-17724819D02*
X8570578Y-17724819D01*
X8570578Y-17724819D02*
X8589626Y-17715296D01*
X8589626Y-17715296D02*
X8599150Y-17705772D01*
X8599150Y-17705772D02*
X8608673Y-17686724D01*
X8684864Y-17601010D02*
X8684864Y-17639105D01*
X8761054Y-17601010D02*
X8761054Y-17639105D01*
X9056293Y-17877200D02*
X9046769Y-17867676D01*
X9046769Y-17867676D02*
X9027721Y-17839105D01*
X9027721Y-17839105D02*
X9018197Y-17820057D01*
X9018197Y-17820057D02*
X9008673Y-17791486D01*
X9008673Y-17791486D02*
X8999150Y-17743867D01*
X8999150Y-17743867D02*
X8999150Y-17705772D01*
X8999150Y-17705772D02*
X9008673Y-17658153D01*
X9008673Y-17658153D02*
X9018197Y-17629581D01*
X9018197Y-17629581D02*
X9027721Y-17610534D01*
X9027721Y-17610534D02*
X9046769Y-17581962D01*
X9046769Y-17581962D02*
X9056293Y-17572438D01*
X9237245Y-17801010D02*
X9122959Y-17801010D01*
X9180102Y-17801010D02*
X9180102Y-17601010D01*
X9180102Y-17601010D02*
X9161054Y-17629581D01*
X9161054Y-17629581D02*
X9142007Y-17648629D01*
X9142007Y-17648629D02*
X9122959Y-17658153D01*
X9475340Y-17801010D02*
X9475340Y-17601010D01*
X9561054Y-17801010D02*
X9561054Y-17696248D01*
X9561054Y-17696248D02*
X9551531Y-17677200D01*
X9551531Y-17677200D02*
X9532483Y-17667676D01*
X9532483Y-17667676D02*
X9503912Y-17667676D01*
X9503912Y-17667676D02*
X9484864Y-17677200D01*
X9484864Y-17677200D02*
X9475340Y-17686724D01*
X9684864Y-17801010D02*
X9665816Y-17791486D01*
X9665816Y-17791486D02*
X9656293Y-17781962D01*
X9656293Y-17781962D02*
X9646769Y-17762915D01*
X9646769Y-17762915D02*
X9646769Y-17705772D01*
X9646769Y-17705772D02*
X9656293Y-17686724D01*
X9656293Y-17686724D02*
X9665816Y-17677200D01*
X9665816Y-17677200D02*
X9684864Y-17667676D01*
X9684864Y-17667676D02*
X9713435Y-17667676D01*
X9713435Y-17667676D02*
X9732483Y-17677200D01*
X9732483Y-17677200D02*
X9742007Y-17686724D01*
X9742007Y-17686724D02*
X9751531Y-17705772D01*
X9751531Y-17705772D02*
X9751531Y-17762915D01*
X9751531Y-17762915D02*
X9742007Y-17781962D01*
X9742007Y-17781962D02*
X9732483Y-17791486D01*
X9732483Y-17791486D02*
X9713435Y-17801010D01*
X9713435Y-17801010D02*
X9684864Y-17801010D01*
X9865816Y-17801010D02*
X9846769Y-17791486D01*
X9846769Y-17791486D02*
X9837245Y-17772438D01*
X9837245Y-17772438D02*
X9837245Y-17601010D01*
X10018197Y-17791486D02*
X9999150Y-17801010D01*
X9999150Y-17801010D02*
X9961054Y-17801010D01*
X9961054Y-17801010D02*
X9942007Y-17791486D01*
X9942007Y-17791486D02*
X9932483Y-17772438D01*
X9932483Y-17772438D02*
X9932483Y-17696248D01*
X9932483Y-17696248D02*
X9942007Y-17677200D01*
X9942007Y-17677200D02*
X9961054Y-17667676D01*
X9961054Y-17667676D02*
X9999150Y-17667676D01*
X9999150Y-17667676D02*
X10018197Y-17677200D01*
X10018197Y-17677200D02*
X10027721Y-17696248D01*
X10027721Y-17696248D02*
X10027721Y-17715296D01*
X10027721Y-17715296D02*
X9932483Y-17734343D01*
X10094388Y-17877200D02*
X10103912Y-17867676D01*
X10103912Y-17867676D02*
X10122959Y-17839105D01*
X10122959Y-17839105D02*
X10132483Y-17820057D01*
X10132483Y-17820057D02*
X10142007Y-17791486D01*
X10142007Y-17791486D02*
X10151531Y-17743867D01*
X10151531Y-17743867D02*
X10151531Y-17705772D01*
X10151531Y-17705772D02*
X10142007Y-17658153D01*
X10142007Y-17658153D02*
X10132483Y-17629581D01*
X10132483Y-17629581D02*
X10122959Y-17610534D01*
X10122959Y-17610534D02*
X10103912Y-17581962D01*
X10103912Y-17581962D02*
X10094388Y-17572438D01*
M02*
