%TF.GenerationSoftware,KiCad,Pcbnew,8.0.2*%
%TF.CreationDate,2024-05-30T02:19:43-04:00*%
%TF.ProjectId,Line-following-learn-to-solder-kit,4c696e65-2d66-46f6-9c6c-6f77696e672d,0*%
%TF.SameCoordinates,Original*%
%TF.FileFunction,Profile,NP*%
%FSLAX46Y46*%
G04 Gerber Fmt 4.6, Leading zero omitted, Abs format (unit mm)*
G04 Created by KiCad (PCBNEW 8.0.2) date 2024-05-30 02:19:43*
%MOMM*%
%LPD*%
G01*
G04 APERTURE LIST*
%TA.AperFunction,Profile*%
%ADD10C,0.010123*%
%TD*%
G04 APERTURE END LIST*
D10*
X91993351Y-55854568D02*
X93134161Y-55895732D01*
X94233415Y-55960901D01*
X95289816Y-56047262D01*
X96302065Y-56152001D01*
X97268866Y-56272304D01*
X98188919Y-56405360D01*
X99060929Y-56548354D01*
X100655623Y-56852904D01*
X102042566Y-57163450D01*
X103211375Y-57457486D01*
X104151669Y-57712505D01*
X104918718Y-57938668D01*
X105977824Y-58277533D01*
X107282089Y-58723093D01*
X108784613Y-59269336D01*
X110438498Y-59910254D01*
X112196843Y-60639836D01*
X114012751Y-61452072D01*
X115839322Y-62340953D01*
X116682545Y-62776972D01*
X117494349Y-63209647D01*
X118274845Y-63638569D01*
X119024145Y-64063327D01*
X119742361Y-64483513D01*
X120429604Y-64898715D01*
X121085986Y-65308525D01*
X121711619Y-65712532D01*
X122306614Y-66110326D01*
X122871084Y-66501497D01*
X123405140Y-66885636D01*
X123908893Y-67262333D01*
X124382456Y-67631177D01*
X124825941Y-67991759D01*
X125239458Y-68343669D01*
X125623120Y-68686496D01*
X125731413Y-68790382D01*
X125832894Y-68896857D01*
X125927784Y-69005671D01*
X126016304Y-69116572D01*
X126098676Y-69229309D01*
X126175120Y-69343632D01*
X126245859Y-69459289D01*
X126311114Y-69576030D01*
X126371105Y-69693603D01*
X126426054Y-69811758D01*
X126521712Y-70048810D01*
X126599857Y-70285176D01*
X126662261Y-70518850D01*
X126710692Y-70747824D01*
X126746923Y-70970090D01*
X126772722Y-71183640D01*
X126789861Y-71386468D01*
X126805239Y-71751924D01*
X126807217Y-72050396D01*
X126799119Y-72244831D01*
X126773722Y-72456770D01*
X126729373Y-72683084D01*
X126664420Y-72920640D01*
X126577208Y-73166308D01*
X126466085Y-73416957D01*
X126329398Y-73669455D01*
X126165493Y-73920673D01*
X126072818Y-74044823D01*
X125972718Y-74167479D01*
X125864988Y-74288248D01*
X125749419Y-74406741D01*
X125625807Y-74522565D01*
X125493944Y-74635330D01*
X125353623Y-74744643D01*
X125204638Y-74850113D01*
X125046782Y-74951350D01*
X124879849Y-75047961D01*
X124703632Y-75139555D01*
X124517924Y-75225742D01*
X124322519Y-75306129D01*
X124117209Y-75380325D01*
X123901790Y-75447939D01*
X123676053Y-75508579D01*
X123245053Y-75622276D01*
X123014674Y-75693646D01*
X122777774Y-75778643D01*
X122536904Y-75880226D01*
X122294614Y-76001355D01*
X122053454Y-76144989D01*
X121815974Y-76314087D01*
X121699410Y-76409111D01*
X121584723Y-76511609D01*
X121472231Y-76621954D01*
X121362252Y-76740514D01*
X121255106Y-76867660D01*
X121151110Y-77003761D01*
X121050585Y-77149188D01*
X120953849Y-77304310D01*
X120861219Y-77469498D01*
X120773016Y-77645120D01*
X120689558Y-77831548D01*
X120611163Y-78029150D01*
X120538151Y-78238298D01*
X120470840Y-78459360D01*
X120409548Y-78692707D01*
X120354596Y-78938709D01*
X120354596Y-78938724D01*
X120315910Y-79150613D01*
X120282964Y-79377425D01*
X120255312Y-79617069D01*
X120232504Y-79867453D01*
X120199633Y-80392069D01*
X120180769Y-80934534D01*
X120172332Y-81478110D01*
X120170740Y-82006058D01*
X120173764Y-82948116D01*
X120173764Y-142246227D01*
X120176417Y-142349675D01*
X120184290Y-142451766D01*
X120197257Y-142552373D01*
X120215187Y-142651369D01*
X120237954Y-142748628D01*
X120265430Y-142844024D01*
X120297485Y-142937430D01*
X120333992Y-143028721D01*
X120374824Y-143117769D01*
X120419851Y-143204449D01*
X120468946Y-143288635D01*
X120521980Y-143370199D01*
X120578826Y-143449016D01*
X120639355Y-143524959D01*
X120703439Y-143597902D01*
X120770951Y-143667718D01*
X120841761Y-143734283D01*
X120915743Y-143797468D01*
X120992767Y-143857147D01*
X121072706Y-143913195D01*
X121155432Y-143965486D01*
X121240816Y-144013892D01*
X121328730Y-144058287D01*
X121419047Y-144098545D01*
X121511638Y-144134541D01*
X121606375Y-144166146D01*
X121703129Y-144193236D01*
X121801774Y-144215684D01*
X121902180Y-144233363D01*
X122004220Y-144246147D01*
X122107766Y-144253911D01*
X122212689Y-144256527D01*
X124768292Y-144256542D01*
X124873215Y-144259158D01*
X124976760Y-144266921D01*
X125078800Y-144279706D01*
X125179206Y-144297385D01*
X125277850Y-144319833D01*
X125374605Y-144346923D01*
X125469341Y-144378530D01*
X125561932Y-144414525D01*
X125652248Y-144454784D01*
X125740162Y-144499180D01*
X125825545Y-144547587D01*
X125908270Y-144599878D01*
X125988208Y-144655926D01*
X126065232Y-144715607D01*
X126139213Y-144778793D01*
X126210022Y-144845358D01*
X126277533Y-144915175D01*
X126341617Y-144988119D01*
X126402145Y-145064062D01*
X126458990Y-145142880D01*
X126512024Y-145224445D01*
X126561118Y-145308631D01*
X126606145Y-145395311D01*
X126646975Y-145484360D01*
X126683482Y-145575652D01*
X126715537Y-145669059D01*
X126743012Y-145764455D01*
X126765779Y-145861714D01*
X126783709Y-145960711D01*
X126796675Y-146061317D01*
X126804549Y-146163408D01*
X126807202Y-146266857D01*
X126807202Y-158120540D01*
X126804549Y-158223980D01*
X126796674Y-158326061D01*
X126783707Y-158426657D01*
X126765774Y-158525643D01*
X126743006Y-158622890D01*
X126715528Y-158718274D01*
X126683470Y-158811668D01*
X126646960Y-158902945D01*
X126606127Y-158991979D01*
X126561097Y-159078644D01*
X126511999Y-159162814D01*
X126458962Y-159244362D01*
X126402114Y-159323161D01*
X126341582Y-159399087D01*
X126277496Y-159472011D01*
X126209982Y-159541809D01*
X126139170Y-159608353D01*
X126065187Y-159671517D01*
X125988162Y-159731175D01*
X125908223Y-159787201D01*
X125825498Y-159839468D01*
X125740114Y-159887850D01*
X125652201Y-159932220D01*
X125561887Y-159972453D01*
X125469298Y-160008422D01*
X125374565Y-160040000D01*
X125277815Y-160067062D01*
X125179175Y-160089481D01*
X125078775Y-160107130D01*
X124976743Y-160119884D01*
X124873205Y-160127616D01*
X124768292Y-160130199D01*
X90812283Y-160119655D01*
X56856274Y-160130199D01*
X56751361Y-160127616D01*
X56647823Y-160119884D01*
X56545791Y-160107130D01*
X56445390Y-160089481D01*
X56346751Y-160067062D01*
X56250000Y-160040000D01*
X56155267Y-160008422D01*
X56062678Y-159972453D01*
X55972363Y-159932220D01*
X55884450Y-159887850D01*
X55799066Y-159839468D01*
X55716341Y-159787201D01*
X55636401Y-159731175D01*
X55559375Y-159671517D01*
X55485392Y-159608353D01*
X55414580Y-159541809D01*
X55347066Y-159472011D01*
X55282979Y-159399087D01*
X55222447Y-159323161D01*
X55165599Y-159244362D01*
X55112561Y-159162814D01*
X55063463Y-159078644D01*
X55018433Y-158991979D01*
X54977599Y-158902945D01*
X54941089Y-158811668D01*
X54909031Y-158718274D01*
X54881553Y-158622890D01*
X54858784Y-158525643D01*
X54840852Y-158426657D01*
X54827884Y-158326061D01*
X54820010Y-158223980D01*
X54817357Y-158120540D01*
X54817357Y-146266857D01*
X54820010Y-146163408D01*
X54827883Y-146061317D01*
X54840850Y-145960711D01*
X54858780Y-145861714D01*
X54881547Y-145764455D01*
X54909022Y-145669059D01*
X54941078Y-145575652D01*
X54977585Y-145484360D01*
X55018416Y-145395311D01*
X55063443Y-145308631D01*
X55112538Y-145224445D01*
X55165572Y-145142880D01*
X55222418Y-145064062D01*
X55282947Y-144988119D01*
X55347031Y-144915175D01*
X55414543Y-144845358D01*
X55485353Y-144778793D01*
X55559334Y-144715607D01*
X55636358Y-144655926D01*
X55716297Y-144599878D01*
X55799022Y-144547587D01*
X55884406Y-144499180D01*
X55972320Y-144454784D01*
X56062636Y-144414525D01*
X56155227Y-144378530D01*
X56249963Y-144346923D01*
X56346718Y-144319833D01*
X56445362Y-144297385D01*
X56545768Y-144279706D01*
X56647807Y-144266921D01*
X56751352Y-144259158D01*
X56856274Y-144256542D01*
X59411869Y-144256527D01*
X59516792Y-144253911D01*
X59620338Y-144246147D01*
X59722378Y-144233363D01*
X59822784Y-144215684D01*
X59921429Y-144193236D01*
X60018184Y-144166146D01*
X60112921Y-144134541D01*
X60205512Y-144098545D01*
X60295828Y-144058287D01*
X60383743Y-144013892D01*
X60469127Y-143965486D01*
X60551852Y-143913195D01*
X60631791Y-143857147D01*
X60708816Y-143797468D01*
X60782797Y-143734283D01*
X60853608Y-143667718D01*
X60921119Y-143597902D01*
X60985204Y-143524959D01*
X61045733Y-143449016D01*
X61102578Y-143370199D01*
X61155613Y-143288635D01*
X61204708Y-143204449D01*
X61249735Y-143117769D01*
X61290566Y-143028721D01*
X61327073Y-142937430D01*
X61359129Y-142844024D01*
X61386604Y-142748628D01*
X61409371Y-142651369D01*
X61427302Y-142552373D01*
X61440268Y-142451766D01*
X61448142Y-142349675D01*
X61450795Y-142246227D01*
X61450795Y-82948116D01*
X61453816Y-82006058D01*
X61452222Y-81478110D01*
X61443782Y-80934534D01*
X61424917Y-80392069D01*
X61392045Y-79867453D01*
X61369237Y-79617069D01*
X61341584Y-79377425D01*
X61308640Y-79150613D01*
X61269955Y-78938724D01*
X61269955Y-78938709D01*
X61215002Y-78692707D01*
X61153711Y-78459360D01*
X61086400Y-78238298D01*
X61013388Y-78029150D01*
X60934993Y-77831548D01*
X60851535Y-77645120D01*
X60763332Y-77469498D01*
X60670702Y-77304310D01*
X60573966Y-77149188D01*
X60473441Y-77003761D01*
X60369446Y-76867660D01*
X60262300Y-76740514D01*
X60152321Y-76621954D01*
X60039829Y-76511609D01*
X59925142Y-76409111D01*
X59808579Y-76314087D01*
X59571099Y-76144989D01*
X59329940Y-76001355D01*
X59087651Y-75880226D01*
X58846783Y-75778643D01*
X58609885Y-75693646D01*
X58379508Y-75622276D01*
X57948513Y-75508579D01*
X57722777Y-75447939D01*
X57507358Y-75380325D01*
X57302049Y-75306129D01*
X57106645Y-75225742D01*
X56920937Y-75139555D01*
X56744720Y-75047961D01*
X56577788Y-74951350D01*
X56419932Y-74850113D01*
X56270948Y-74744643D01*
X56130627Y-74635330D01*
X55998764Y-74522565D01*
X55875152Y-74406741D01*
X55759584Y-74288248D01*
X55651854Y-74167479D01*
X55551754Y-74044823D01*
X55459079Y-73920673D01*
X55295175Y-73669455D01*
X55158488Y-73416957D01*
X55047365Y-73166308D01*
X54960154Y-72920640D01*
X54895200Y-72683084D01*
X54850852Y-72456770D01*
X54825455Y-72244831D01*
X54817357Y-72050396D01*
X54819326Y-71751924D01*
X54834682Y-71386468D01*
X54851808Y-71183640D01*
X54877594Y-70970090D01*
X54913812Y-70747824D01*
X54962232Y-70518850D01*
X55024627Y-70285176D01*
X55102766Y-70048810D01*
X55198423Y-69811758D01*
X55253373Y-69693603D01*
X55313367Y-69576030D01*
X55378625Y-69459289D01*
X55449370Y-69343632D01*
X55525822Y-69229309D01*
X55608203Y-69116572D01*
X55696735Y-69005671D01*
X55791638Y-68896857D01*
X55893135Y-68790382D01*
X56001446Y-68686496D01*
X56385108Y-68343669D01*
X56798626Y-67991759D01*
X57242111Y-67631177D01*
X57715675Y-67262333D01*
X58219429Y-66885636D01*
X58753486Y-66501497D01*
X59317957Y-66110326D01*
X59912953Y-65712532D01*
X60538586Y-65308525D01*
X61194969Y-64898715D01*
X61882212Y-64483513D01*
X62600427Y-64063327D01*
X63349726Y-63638569D01*
X64130221Y-63209647D01*
X64942023Y-62776972D01*
X65785244Y-62340953D01*
X67611811Y-61452072D01*
X69427717Y-60639836D01*
X71186063Y-59910254D01*
X72839949Y-59269336D01*
X74342475Y-58723093D01*
X75646740Y-58277533D01*
X76705845Y-57938668D01*
X77472889Y-57712505D01*
X78413183Y-57457486D01*
X79581993Y-57163450D01*
X80968936Y-56852904D01*
X82563631Y-56548354D01*
X83435640Y-56405360D01*
X84355695Y-56272304D01*
X85322496Y-56152001D01*
X86334746Y-56047262D01*
X87391148Y-55960901D01*
X88490403Y-55895732D01*
X89631214Y-55854568D01*
X90812283Y-55840221D01*
X91993351Y-55854568D01*
M02*
