%TF.GenerationSoftware,KiCad,Pcbnew,8.0.2*%
%TF.CreationDate,2024-05-30T02:19:43-04:00*%
%TF.ProjectId,Line-following-learn-to-solder-kit,4c696e65-2d66-46f6-9c6c-6f77696e672d,0*%
%TF.SameCoordinates,Original*%
%TF.FileFunction,Soldermask,Top*%
%TF.FilePolarity,Negative*%
%FSLAX46Y46*%
G04 Gerber Fmt 4.6, Leading zero omitted, Abs format (unit mm)*
G04 Created by KiCad (PCBNEW 8.0.2) date 2024-05-30 02:19:43*
%MOMM*%
%LPD*%
G01*
G04 APERTURE LIST*
G04 Aperture macros list*
%AMRoundRect*
0 Rectangle with rounded corners*
0 $1 Rounding radius*
0 $2 $3 $4 $5 $6 $7 $8 $9 X,Y pos of 4 corners*
0 Add a 4 corners polygon primitive as box body*
4,1,4,$2,$3,$4,$5,$6,$7,$8,$9,$2,$3,0*
0 Add four circle primitives for the rounded corners*
1,1,$1+$1,$2,$3*
1,1,$1+$1,$4,$5*
1,1,$1+$1,$6,$7*
1,1,$1+$1,$8,$9*
0 Add four rect primitives between the rounded corners*
20,1,$1+$1,$2,$3,$4,$5,0*
20,1,$1+$1,$4,$5,$6,$7,0*
20,1,$1+$1,$6,$7,$8,$9,0*
20,1,$1+$1,$8,$9,$2,$3,0*%
G04 Aperture macros list end*
%ADD10C,10.000000*%
%ADD11C,5.400000*%
%ADD12C,3.000000*%
%ADD13O,3.300000X6.000000*%
%ADD14C,3.300000*%
%ADD15O,1.800000X2.200000*%
%ADD16R,2.400000X1.600000*%
%ADD17O,2.400000X1.600000*%
%ADD18C,2.200000*%
%ADD19R,2.200000X1.800000*%
%ADD20RoundRect,0.450000X-0.550000X0.450000X-0.550000X-0.450000X0.550000X-0.450000X0.550000X0.450000X0*%
%ADD21RoundRect,0.450000X-0.650000X0.450000X-0.650000X-0.450000X0.650000X-0.450000X0.650000X0.450000X0*%
%ADD22R,1.800000X1.800000*%
%ADD23C,1.800000*%
%ADD24RoundRect,0.225000X-0.675000X-0.775000X0.675000X-0.775000X0.675000X0.775000X-0.675000X0.775000X0*%
%ADD25O,1.800000X2.000000*%
%ADD26R,2.200000X2.500000*%
%ADD27O,2.500000X2.200000*%
%ADD28O,2.200000X2.500000*%
%ADD29R,1.600000X1.600000*%
%ADD30C,1.600000*%
G04 APERTURE END LIST*
D10*
%TO.C,H1*%
X90820000Y-64140000D03*
D11*
X90820000Y-64140000D03*
%TD*%
D12*
%TO.C,H2*%
X119330000Y-146730000D03*
%TD*%
D13*
%TO.C,BT1*%
X90427287Y-125182710D03*
D14*
X90427287Y-111182710D03*
%TD*%
D15*
%TO.C,R14*%
X79112287Y-67735210D03*
X82512287Y-67735210D03*
%TD*%
%TO.C,R13*%
X102562287Y-67735210D03*
X99162287Y-67735210D03*
%TD*%
D16*
%TO.C,U1*%
X86312287Y-137985210D03*
D17*
X86312287Y-140525210D03*
X86312287Y-143065210D03*
X86312287Y-145605210D03*
X93932287Y-145605210D03*
X93932287Y-143065210D03*
X93932287Y-140525210D03*
X93932287Y-137985210D03*
%TD*%
D18*
%TO.C,R12*%
X73812287Y-73235210D03*
X66192287Y-73235210D03*
%TD*%
D19*
%TO.C,Q1*%
X96420000Y-83640000D03*
D20*
X98490000Y-85910000D03*
D21*
X96420000Y-88140000D03*
%TD*%
D22*
%TO.C,D2*%
X57487287Y-71385210D03*
D23*
X60027287Y-71385210D03*
%TD*%
D24*
%TO.C,SW1*%
X87812287Y-152185210D03*
D25*
X90312287Y-152185210D03*
X92812287Y-152185210D03*
X92812287Y-158385210D03*
X90312287Y-158385210D03*
X87812287Y-158385210D03*
%TD*%
D18*
%TO.C,R10*%
X94562287Y-96485210D03*
X86942287Y-96485210D03*
%TD*%
%TO.C,R11*%
X107252287Y-73235210D03*
X114872287Y-73235210D03*
%TD*%
%TO.C,R3*%
X94252287Y-77735210D03*
X101872287Y-77735210D03*
%TD*%
D26*
%TO.C,R1*%
X109774787Y-154135210D03*
D27*
X115174787Y-151235210D03*
D28*
X109774787Y-148335210D03*
%TD*%
D21*
%TO.C,Q2*%
X84400000Y-87985210D03*
D20*
X86470000Y-85755210D03*
D19*
X84400000Y-83485210D03*
%TD*%
D18*
%TO.C,R9*%
X94562287Y-91735210D03*
X86942287Y-91735210D03*
%TD*%
%TO.C,R4*%
X79002287Y-77735210D03*
X86622287Y-77735210D03*
%TD*%
D26*
%TO.C,R2*%
X71562287Y-148335210D03*
D27*
X66162287Y-151235210D03*
D28*
X71562287Y-154135210D03*
%TD*%
D29*
%TO.C,C2*%
X74080000Y-64230000D03*
D30*
X74080000Y-61730000D03*
%TD*%
D18*
%TO.C,R8*%
X86622287Y-73235210D03*
X79002287Y-73235210D03*
%TD*%
%TO.C,R5*%
X107252287Y-69485210D03*
X114872287Y-69485210D03*
%TD*%
D29*
%TO.C,C1*%
X107550000Y-64110000D03*
D30*
X107550000Y-61610000D03*
%TD*%
D22*
%TO.C,D1*%
X124262287Y-71385210D03*
D23*
X121722287Y-71385210D03*
%TD*%
D18*
%TO.C,R6*%
X66192287Y-69485210D03*
X73812287Y-69485210D03*
%TD*%
%TO.C,R7*%
X94252287Y-73235210D03*
X101872287Y-73235210D03*
%TD*%
D23*
%TO.C,D4*%
X100862287Y-62235210D03*
D22*
X100862287Y-59695210D03*
%TD*%
D23*
%TO.C,D5*%
X80812287Y-62235210D03*
D22*
X80812287Y-59695210D03*
%TD*%
M02*
